<?xml version="1.0" encoding="UTF-8" standalone="no"?>
<svg
   xmlns:dc="http://purl.org/dc/elements/1.1/"
   xmlns:cc="http://creativecommons.org/ns#"
   xmlns:rdf="http://www.w3.org/1999/02/22-rdf-syntax-ns#"
   xmlns:svg="http://www.w3.org/2000/svg"
   xmlns="http://www.w3.org/2000/svg"
   viewBox="0 0 422.11249 20.2875"
   height="20.2875"
   width="422.11249"
   xml:space="preserve"
   version="1.1"
   id="svg4282"><metadata
     id="metadata4288"><rdf:RDF><cc:Work
         rdf:about=""><dc:format>image/svg+xml</dc:format><dc:type
           rdf:resource="http://purl.org/dc/dcmitype/StillImage" /><dc:title></dc:title></cc:Work></rdf:RDF></metadata><defs
     id="defs4286" /><g
     transform="matrix(1.25,0,0,-1.25,0,20.2875)"
     id="g4290"><g
       transform="scale(0.1,0.1)"
       id="g4292"><path
         id="path4294"
         style="fill:#231f20;fill-opacity:1;fill-rule:nonzero;stroke:none"
         d="M 30.8438,11.4258 0,11.4258 0,130.52 c 0,-0.118 0,22.488 22.5547,30.007 20.3594,6.524 33.9648,-6.621 33.9844,-6.582 L 158.207,44.0039 c 5.117,-3.1445 7.188,0.1172 7.148,3.1367 l 0,113.3864 31.133,0 0,-118.2418 c -0.144,-10.0664 -8.476,-22.5664 -20.281,-27.4219 -12.102,-4.707 -25.383,-4.668 -41.125,8.5742 L 39.9766,126.828 c -2.5,2.676 -9.0391,2.969 -9.1328,-2.297 l 0,-113.1052" /><path
         id="path4296"
         style="fill:#231f20;fill-opacity:1;fill-rule:nonzero;stroke:none"
         d="m 216.469,160.527 31.133,0 0,-106.8278 c -0.098,-11.3554 9.433,-11.3554 18.847,-11.414 l 138.235,0 c 5.769,0.0586 12.312,6.8476 12.285,13.7109 0.058,7.1094 -6.633,14.2969 -12.852,14.2695 l -89.972,0 c -15.457,-0.5664 -47.586,13.711 -47.696,43.9924 0.11,36.965 30.442,45.293 44.278,46.269 l 254.464,0 0,-31.433 -63.683,0 0,-117.6682 -30.848,0 0,117.6682 -155.93,0 c -14.863,1.308 -25.566,-24.289 -1.152,-27.989 l 95.684,0 c 14.375,0.137 38.164,-12.355 38.273,-43.4097 -0.109,-31.4258 -18.547,-46.3164 -38.273,-46.2695 l -141.375,0 c -23.34,-0.0469 -31.711,5.2851 -39.992,13.1367 -7.645,7.5781 -8.946,11.8359 -11.426,27.4297 l 0,108.5348" /><path
         id="path4298"
         style="fill:#231f20;fill-opacity:1;fill-rule:nonzero;stroke:none"
         d="m 575.375,67.6367 13.633,0 19.57,-26.6797 c 0.508,-0.6523 2.168,-3.6992 4.707,-9.1328 -0.508,4.0547 -0.789,7.461 -0.789,10.2149 l 0,25.5976 13.555,0 0,-51.8359 -13.555,0 -19.582,26.75 c -0.508,0.6523 -2.168,3.6328 -4.707,9.0625 0.508,-4.0547 0.801,-7.461 0.801,-10.2149 l 0,-25.5976 -13.633,0 0,51.8359" /><path
         id="path4300"
         style="fill:#231f20;fill-opacity:1;fill-rule:nonzero;stroke:none"
         d="m 674.625,51.543 -11.672,0 0,-5.8672 c -2.832,4.8515 -6.601,7.0273 -11.961,7.0273 -10.148,0 -16.535,-7.4687 -16.535,-19.0703 0,-11.8164 6.387,-19.207 15.734,-19.207 5.653,0 9.5,2.1758 12.832,7.1758 l 0,-5.7344 11.602,0 0,35.6758 z M 663.531,33.7109 c 0,-5.5859 -3.195,-8.9921 -8.332,-8.9921 -5.156,0 -8.269,3.4062 -8.269,8.9921 0,5.5079 3.113,9.0625 8.269,9.0625 5.137,0 8.332,-3.5546 8.332,-9.0625" /><path
         id="path4302"
         style="fill:#231f20;fill-opacity:1;fill-rule:nonzero;stroke:none"
         d="m 686.078,42.6289 -5.371,0 0,8.9141 5.371,0 0,10.6562 12.402,0 0,-10.6562 5.364,0 0,-8.9141 -5.364,0 0,-26.8281 -12.402,0 0,26.8281" /><path
         id="path4304"
         style="fill:#231f20;fill-opacity:1;fill-rule:nonzero;stroke:none"
         d="m 716.383,69.668 c 3.836,0 6.961,-3.0469 6.961,-6.961 0,-3.9179 -3.192,-7.0312 -6.961,-7.0312 -3.918,0 -6.965,3.3398 -6.965,7.0312 0,3.7696 3.125,6.961 6.965,6.961 z m -6.301,-18.125 12.609,0 0,-35.7422 -12.609,0 0,35.7422" /><path
         id="path4306"
         style="fill:#231f20;fill-opacity:1;fill-rule:nonzero;stroke:none"
         d="m 770.25,33.5664 c 0,10.5859 -8.703,19.1367 -20.012,19.1367 -11.308,0 -19.941,-8.5508 -19.941,-19.1367 0,-10.5195 8.555,-19.1406 19.941,-19.1406 11.309,0 20.012,8.5547 20.012,19.1406 z m -12.539,0 c 0,-5.293 -2.824,-8.5547 -7.473,-8.5547 -4.636,0 -7.461,3.2617 -7.461,8.5547 0,5.293 2.825,8.6211 7.461,8.6211 4.649,0 7.473,-3.3281 7.473,-8.6211" /><path
         id="path4308"
         style="fill:#231f20;fill-opacity:1;fill-rule:nonzero;stroke:none"
         d="m 777.504,51.543 11.523,0 0,-7.2461 c 3.411,5.8672 7.461,8.4062 13.703,8.4062 4.637,0 8.407,-1.5976 10.586,-4.3515 2.391,-3.0391 2.606,-6.9532 2.606,-12.1016 l 0,-20.4492 -12.617,0 0,19.1406 c 0,5.5859 -1.66,8.1953 -5.867,8.1953 -5.657,0 -7.54,-4.2773 -7.54,-12.3242 l 0,-15.0117 -12.394,0 0,35.7422" /><path
         id="path4310"
         style="fill:#231f20;fill-opacity:1;fill-rule:nonzero;stroke:none"
         d="m 863.188,51.543 -11.661,0 0,-5.8672 c -2.832,4.8515 -6.601,7.0273 -11.972,7.0273 -10.145,0 -16.524,-7.4687 -16.524,-19.0703 0,-11.8164 6.379,-19.207 15.735,-19.207 5.652,0 9.5,2.1758 12.832,7.1758 l 0,-5.7344 11.59,0 0,35.6758 z M 852.105,33.7109 c 0,-5.5859 -3.195,-8.9921 -8.339,-8.9921 -5.149,0 -8.274,3.4062 -8.274,8.9921 0,5.5079 3.125,9.0625 8.274,9.0625 5.144,0 8.339,-3.5546 8.339,-9.0625" /><path
         id="path4312"
         style="fill:#231f20;fill-opacity:1;fill-rule:nonzero;stroke:none"
         d="m 873.051,15.8008 12.6172,0 0,54.8828 -12.6172,0 0,-54.8828 z" /><path
         id="path4314"
         style="fill:#231f20;fill-opacity:1;fill-rule:nonzero;stroke:none"
         d="m 919.234,15.8008 14.2852,0 0,51.8359 -14.2852,0 0,-51.8359 z" /><path
         id="path4316"
         style="fill:#231f20;fill-opacity:1;fill-rule:nonzero;stroke:none"
         d="m 944.027,51.543 11.524,0 0,-7.2461 c 3.418,5.8672 7.48,8.4062 13.711,8.4062 4.64,0 8.41,-1.5976 10.586,-4.3515 2.382,-3.0391 2.609,-6.9532 2.609,-12.1016 l 0,-20.4492 -12.617,0 0,19.1406 c 0,5.5859 -1.672,8.1953 -5.871,8.1953 -5.664,0 -7.539,-4.2773 -7.539,-12.3242 l 0,-15.0117 -12.403,0 0,35.7422" /><path
         id="path4318"
         style="fill:#231f20;fill-opacity:1;fill-rule:nonzero;stroke:none"
         d="m 990.648,28.418 c 3.692,-3.2617 8.411,-5 12.752,-5 3.2,0 4.87,1.0859 4.87,2.9687 0,2.9688 -2.9,2.9688 -7.62,4.211 -7.392,1.9531 -10.802,5.2148 -10.802,10.6523 0,6.5234 5.148,11.4531 14.502,11.4531 4.72,0 9.35,-1.0898 14.29,-3.2578 l -2.62,-8.7031 c -3.48,2.3945 -6.95,3.4766 -10.29,3.4766 -2.9,0 -4.36,-0.9375 -4.36,-2.6055 0,-2.461 3.2,-2.6094 8.21,-4.1328 6.81,-2.0313 10.14,-5.0782 10.14,-10.8008 0,-7.1758 -5.87,-12.2539 -15.37,-12.2539 -6.162,0 -11.455,1.375 -16.319,4.3437 l 2.617,9.6485" /><path
         id="path4320"
         style="fill:#231f20;fill-opacity:1;fill-rule:nonzero;stroke:none"
         d="m 1028.42,42.6289 -5.37,0 0,8.9141 5.37,0 0,10.6562 12.4,0 0,-10.6562 5.36,0 0,-8.9141 -5.36,0 0,-26.8281 -12.4,0 0,26.8281" /><path
         id="path4322"
         style="fill:#231f20;fill-opacity:1;fill-rule:nonzero;stroke:none"
         d="m 1058.73,69.668 c 3.83,0 6.96,-3.0469 6.96,-6.961 0,-3.9179 -3.19,-7.0312 -6.96,-7.0312 -3.92,0 -6.97,3.3398 -6.97,7.0312 0,3.7696 3.13,6.961 6.97,6.961 z m -6.31,-18.125 12.61,0 0,-35.7422 -12.61,0 0,35.7422" /><path
         id="path4324"
         style="fill:#231f20;fill-opacity:1;fill-rule:nonzero;stroke:none"
         d="m 1076.63,42.6289 -5.37,0 0,8.9141 5.37,0 0,10.6562 12.4,0 0,-10.6562 5.37,0 0,-8.9141 -5.37,0 0,-26.8281 -12.4,0 0,26.8281" /><path
         id="path4326"
         style="fill:#231f20;fill-opacity:1;fill-rule:nonzero;stroke:none"
         d="m 1136.96,33.2734 c 0,-5.5781 -0.16,-10 -4.28,-14.1328 -3.2,-3.1914 -7.91,-4.7148 -14.22,-4.7148 -6.31,0 -10.95,1.5234 -14.28,4.7148 -3.98,3.8399 -4.2,8.3321 -4.2,14.1328 l 0,18.2696 12.04,0 0,-19.0625 c 0,-5.586 1.52,-8.4883 6.31,-8.4883 4.78,0 6.29,2.9023 6.29,8.4883 l 0,19.0625 12.34,0 0,-18.2696" /><path
         id="path4328"
         style="fill:#231f20;fill-opacity:1;fill-rule:nonzero;stroke:none"
         d="m 1147.97,42.6289 -5.37,0 0,8.9141 5.37,0 0,10.6562 12.4,0 0,-10.6562 5.36,0 0,-8.9141 -5.36,0 0,-26.8281 -12.4,0 0,26.8281" /><path
         id="path4330"
         style="fill:#231f20;fill-opacity:1;fill-rule:nonzero;stroke:none"
         d="m 1208.66,31.1719 0,0.5742 c 0,13.125 -7.54,20.957 -19.14,20.957 -11.9,0 -19.94,-8.6289 -19.94,-19.4297 0,-10.8007 7.61,-18.8476 20.66,-18.8476 8.48,0 14.35,3.1914 16.6,8.5547 l -9.49,3.8359 c -1.39,-2.8242 -4,-4.2773 -7.83,-4.2773 -5.08,0 -7.98,3.0468 -8.05,8.6328 l 27.19,0 z m -12.41,7.1015 -14.49,0 c 0.73,4.5 3.26,6.7461 7.32,6.7461 3.77,0 6.75,-2.6093 7.17,-6.7461" /><path
         id="path4332"
         style="fill:#231f20;fill-opacity:1;fill-rule:nonzero;stroke:none"
         d="m 1276.51,33.5664 c 0,10.5859 -8.69,19.1367 -20,19.1367 -11.32,0 -19.94,-8.5508 -19.94,-19.1367 0,-10.5195 8.55,-19.1406 19.94,-19.1406 11.31,0 20,8.5547 20,19.1406 z m -12.54,0 c 0,-5.293 -2.83,-8.5547 -7.46,-8.5547 -4.65,0 -7.48,3.2617 -7.48,8.5547 0,5.293 2.83,8.6211 7.48,8.6211 4.63,0 7.46,-3.3281 7.46,-8.6211" /><path
         id="path4334"
         style="fill:#231f20;fill-opacity:1;fill-rule:nonzero;stroke:none"
         d="m 1285,42.6289 -5.37,0 0,8.9141 5.37,0 0,7.3242 c 0,8.3398 4.56,12.5391 13.55,12.5391 1.3,0 3.05,-0.2149 5.15,-0.6524 l 0,-9.6406 c -1.16,0.4414 -2.17,0.6562 -2.9,0.6562 -2.53,0 -3.41,-1.5273 -3.41,-4.4922 l 0,-5.7343 6.31,0 0,-8.9141 -6.31,0 0,-26.8281 -12.39,0 0,26.8281" /><path
         id="path4336"
         style="fill:#231f20;fill-opacity:1;fill-rule:nonzero;stroke:none"
         d="m 1347.42,25.4414 c 3.91,0 6.45,2.3242 6.45,5.3711 0,4.1289 -2.83,5.3594 -8.71,6.8828 -9.34,2.461 -13.91,6.2422 -13.91,14.3555 0,9.6406 7.04,16.8164 17.91,16.8164 5.8,0 10.86,-1.5234 15.37,-4.6367 L 1360.1,54.082 c -3.26,2.7539 -6.74,4.1328 -9.93,4.1328 -3.49,0 -5.73,-1.8867 -5.73,-4.3476 0,-3.7031 3.55,-4.5039 8.26,-5.7305 9.22,-2.4609 14.29,-5.8711 14.29,-15.4414 0,-10.8008 -7.69,-18.2695 -19.87,-18.2695 -7.31,0 -12.83,2.3203 -18.4,7.6055 l 6.36,10.5195 c 4.14,-4.7188 8.21,-7.1094 12.34,-7.1094" /><path
         id="path4338"
         style="fill:#231f20;fill-opacity:1;fill-rule:nonzero;stroke:none"
         d="m 1375.98,42.6289 -5.37,0 0,8.9141 5.37,0 0,10.6562 12.4,0 0,-10.6562 5.36,0 0,-8.9141 -5.36,0 0,-26.8281 -12.4,0 0,26.8281" /><path
         id="path4340"
         style="fill:#231f20;fill-opacity:1;fill-rule:nonzero;stroke:none"
         d="m 1437.97,51.543 -11.68,0 0,-5.8672 c -2.83,4.8515 -6.6,7.0273 -11.96,7.0273 -10.15,0 -16.53,-7.4687 -16.53,-19.0703 0,-11.8164 6.38,-19.207 15.74,-19.207 5.64,0 9.49,2.1758 12.83,7.1758 l 0,-5.7344 11.6,0 0,35.6758 z m -11.09,-17.8321 c 0,-5.5859 -3.19,-8.9921 -8.34,-8.9921 -5.16,0 -8.26,3.4062 -8.26,8.9921 0,5.5079 3.1,9.0625 8.26,9.0625 5.15,0 8.34,-3.5546 8.34,-9.0625" /><path
         id="path4342"
         style="fill:#231f20;fill-opacity:1;fill-rule:nonzero;stroke:none"
         d="m 1447.47,51.543 11.52,0 0,-7.2461 c 3.41,5.8672 7.47,8.4062 13.71,8.4062 4.63,0 8.4,-1.5976 10.58,-4.3515 2.39,-3.0391 2.6,-6.9532 2.6,-12.1016 l 0,-20.4492 -12.61,0 0,19.1406 c 0,5.5859 -1.66,8.1953 -5.86,8.1953 -5.67,0 -7.54,-4.2773 -7.54,-12.3242 l 0,-15.0117 -12.4,0 0,35.7422" /><path
         id="path4344"
         style="fill:#231f20;fill-opacity:1;fill-rule:nonzero;stroke:none"
         d="m 1533.31,70.6836 -12.11,0 0,-18.6992 c 0,-2.1797 0.14,-4.3555 0.43,-6.3867 -3.19,5.3711 -6.6,7.1054 -12.46,7.1054 -9.36,0 -16.03,-7.4687 -16.03,-19.0703 0,-11.9609 6.59,-19.207 16.45,-19.207 4.94,0 8.93,2.3906 12.11,7.1758 l 0,-5.8008 11.61,0 0,54.8828 z m -11.18,-37.0508 c 0,-5.5742 -3.11,-8.9844 -8.26,-8.9844 -5.08,0 -8.19,3.4102 -8.19,8.9844 0,5.5195 3.11,8.9961 8.19,8.9961 5.08,0 8.26,-3.4766 8.26,-8.9961" /><path
         id="path4346"
         style="fill:#231f20;fill-opacity:1;fill-rule:nonzero;stroke:none"
         d="m 1581,51.543 -11.66,0 0,-5.8672 c -2.83,4.8515 -6.6,7.0273 -11.97,7.0273 -10.15,0 -16.53,-7.4687 -16.53,-19.0703 0,-11.8164 6.38,-19.207 15.74,-19.207 5.65,0 9.5,2.1758 12.83,7.1758 l 0,-5.7344 11.59,0 0,35.6758 z m -11.08,-17.8321 c 0,-5.5859 -3.2,-8.9921 -8.34,-8.9921 -5.15,0 -8.27,3.4062 -8.27,8.9921 0,5.5079 3.12,9.0625 8.27,9.0625 5.14,0 8.34,-3.5546 8.34,-9.0625" /><path
         id="path4348"
         style="fill:#231f20;fill-opacity:1;fill-rule:nonzero;stroke:none"
         d="m 1590.57,51.543 11.9,0 0,-8.4063 c 2.32,5.9453 6.73,9.2071 12.24,9.2071 0.88,0 2.03,-0.0782 3.56,-0.2266 l -1.23,-11.4531 c -1.53,0.4414 -2.89,0.7343 -4.35,0.7343 -5.95,0 -9.57,-3.6328 -9.57,-10.8007 l 0,-14.7969 -12.55,0 0,35.7422" /><path
         id="path4350"
         style="fill:#231f20;fill-opacity:1;fill-rule:nonzero;stroke:none"
         d="m 1661.41,70.6836 -12.11,0 0,-18.6992 c 0,-2.1797 0.15,-4.3555 0.43,-6.3867 -3.18,5.3711 -6.59,7.1054 -12.46,7.1054 -9.35,0 -16.02,-7.4687 -16.02,-19.0703 0,-11.9609 6.59,-19.207 16.45,-19.207 4.93,0 8.92,2.3906 12.11,7.1758 l 0,-5.8008 11.6,0 0,54.8828 z m -11.17,-37.0508 c 0,-5.5742 -3.12,-8.9844 -8.26,-8.9844 -5.08,0 -8.2,3.4102 -8.2,8.9844 0,5.5195 3.12,8.9961 8.2,8.9961 5.08,0 8.26,-3.4766 8.26,-8.9961" /><path
         id="path4352"
         style="fill:#231f20;fill-opacity:1;fill-rule:nonzero;stroke:none"
         d="m 1670.03,28.418 c 3.71,-3.2617 8.41,-5 12.77,-5 3.18,0 4.85,1.0859 4.85,2.9687 0,2.9688 -2.9,2.9688 -7.61,4.211 -7.4,1.9531 -10.8,5.2148 -10.8,10.6523 0,6.5234 5.14,11.4531 14.5,11.4531 4.71,0 9.35,-1.0898 14.28,-3.2578 l -2.6,-8.7031 c -3.49,2.3945 -6.97,3.4766 -10.3,3.4766 -2.91,0 -4.35,-0.9375 -4.35,-2.6055 0,-2.461 3.18,-2.6094 8.19,-4.1328 6.81,-2.0313 10.15,-5.0782 10.15,-10.8008 0,-7.1758 -5.87,-12.2539 -15.37,-12.2539 -6.17,0 -11.45,1.375 -16.31,4.3437 l 2.6,9.6485" /><path
         id="path4354"
         style="fill:#231f20;fill-opacity:1;fill-rule:nonzero;stroke:none"
         d="m 1766.9,51.543 -11.68,0 0,-5.8672 c -2.83,4.8515 -6.6,7.0273 -11.96,7.0273 -10.15,0 -16.54,-7.4687 -16.54,-19.0703 0,-11.8164 6.39,-19.207 15.75,-19.207 5.64,0 9.49,2.1758 12.83,7.1758 l 0,-5.7344 11.6,0 0,35.6758 z m -11.09,-17.8321 c 0,-5.5859 -3.2,-8.9921 -8.34,-8.9921 -5.16,0 -8.27,3.4062 -8.27,8.9921 0,5.5079 3.11,9.0625 8.27,9.0625 5.14,0 8.34,-3.5546 8.34,-9.0625" /><path
         id="path4356"
         style="fill:#231f20;fill-opacity:1;fill-rule:nonzero;stroke:none"
         d="m 1776.39,51.543 11.53,0 0,-7.2461 c 3.4,5.8672 7.47,8.4062 13.71,8.4062 4.62,0 8.39,-1.5976 10.58,-4.3515 2.38,-3.0391 2.6,-6.9532 2.6,-12.1016 l 0,-20.4492 -12.61,0 0,19.1406 c 0,5.5859 -1.67,8.1953 -5.87,8.1953 -5.66,0 -7.54,-4.2773 -7.54,-12.3242 l 0,-15.0117 -12.4,0 0,35.7422" /><path
         id="path4358"
         style="fill:#231f20;fill-opacity:1;fill-rule:nonzero;stroke:none"
         d="m 1862.23,70.6836 -12.11,0 0,-18.6992 c 0,-2.1797 0.15,-4.3555 0.43,-6.3867 -3.18,5.3711 -6.59,7.1054 -12.46,7.1054 -9.35,0 -16.02,-7.4687 -16.02,-19.0703 0,-11.9609 6.59,-19.207 16.45,-19.207 4.93,0 8.93,2.3906 12.11,7.1758 l 0,-5.8008 11.6,0 0,54.8828 z m -11.17,-37.0508 c 0,-5.5742 -3.11,-8.9844 -8.26,-8.9844 -5.08,0 -8.19,3.4102 -8.19,8.9844 0,5.5195 3.11,8.9961 8.19,8.9961 5.08,0 8.26,-3.4766 8.26,-8.9961" /><path
         id="path4360"
         style="fill:#231f20;fill-opacity:1;fill-rule:nonzero;stroke:none"
         d="m 1902.61,55.3828 -11.53,0 0,12.2539 37.26,0 0,-12.2539 -11.6,0 0,-39.582 -14.13,0 0,39.582" /><path
         id="path4362"
         style="fill:#231f20;fill-opacity:1;fill-rule:nonzero;stroke:none"
         d="m 1965.4,31.1719 0,0.5742 c 0,13.125 -7.54,20.957 -19.15,20.957 -11.89,0 -19.94,-8.6289 -19.94,-19.4297 0,-10.8007 7.62,-18.8476 20.67,-18.8476 8.48,0 14.35,3.1914 16.6,8.5547 l -9.49,3.8359 c -1.38,-2.8242 -3.99,-4.2773 -7.84,-4.2773 -5.07,0 -7.96,3.0468 -8.04,8.6328 l 27.19,0 z m -12.41,7.1015 -14.49,0 c 0.72,4.5 3.26,6.7461 7.33,6.7461 3.76,0 6.73,-2.6093 7.16,-6.7461" /><path
         id="path4364"
         style="fill:#231f20;fill-opacity:1;fill-rule:nonzero;stroke:none"
         d="m 1991.21,42.9219 c -4.86,0 -8.2,-3.4102 -8.2,-9.211 0,-5.3711 3.19,-8.9921 8.48,-8.9921 2.69,0 4.72,0.9453 6.82,3.1132 l 0,-10.9453 c -2.89,-1.5937 -5.87,-2.4609 -9.2,-2.4609 -10.59,0 -18.5,7.3203 -18.5,19.207 0,11.2383 7.76,19.0703 18.63,19.0703 3.42,0 6.24,-0.5859 9.07,-2.2422 l 0,-10.664 c -2.39,2.1094 -4.56,3.125 -7.1,3.125" /><path
         id="path4366"
         style="fill:#231f20;fill-opacity:1;fill-rule:nonzero;stroke:none"
         d="m 2006.07,70.6836 12.39,0 0,-19.2852 c 0,-2.1796 -0.13,-4.4257 -0.43,-6.457 3.26,5.3711 7.25,7.7617 13.27,7.7617 4.63,0 8.4,-1.5976 10.59,-4.3515 2.38,-3.0391 2.6,-6.9532 2.6,-12.1016 l 0,-20.4492 -12.61,0 0,19.1406 c 0,5.5859 -1.67,8.1953 -5.88,8.1953 -5.64,0 -7.54,-4.2773 -7.54,-12.3242 l 0,-15.0117 -12.39,0 0,54.8828" /><path
         id="path4368"
         style="fill:#231f20;fill-opacity:1;fill-rule:nonzero;stroke:none"
         d="m 2053.41,51.543 11.53,0 0,-7.2461 c 3.4,5.8672 7.47,8.4062 13.71,8.4062 4.63,0 8.4,-1.5976 10.57,-4.3515 2.4,-3.0391 2.61,-6.9532 2.61,-12.1016 l 0,-20.4492 -12.62,0 0,19.1406 c 0,5.5859 -1.66,8.1953 -5.86,8.1953 -5.66,0 -7.53,-4.2773 -7.53,-12.3242 l 0,-15.0117 -12.41,0 0,35.7422" /><path
         id="path4370"
         style="fill:#231f20;fill-opacity:1;fill-rule:nonzero;stroke:none"
         d="m 2138.67,33.5664 c 0,10.5859 -8.69,19.1367 -20,19.1367 -11.32,0 -19.94,-8.5508 -19.94,-19.1367 0,-10.5195 8.55,-19.1406 19.94,-19.1406 11.31,0 20,8.5547 20,19.1406 z m -12.54,0 c 0,-5.293 -2.83,-8.5547 -7.46,-8.5547 -4.65,0 -7.48,3.2617 -7.48,8.5547 0,5.293 2.83,8.6211 7.48,8.6211 4.63,0 7.46,-3.3281 7.46,-8.6211" /><path
         id="path4372"
         style="fill:#231f20;fill-opacity:1;fill-rule:nonzero;stroke:none"
         d="m 2146.28,15.8008 12.6172,0 0,54.8828 -12.6172,0 0,-54.8828 z" /><path
         id="path4374"
         style="fill:#231f20;fill-opacity:1;fill-rule:nonzero;stroke:none"
         d="m 2206.46,33.5664 c 0,10.5859 -8.7,19.1367 -20.02,19.1367 -11.31,0 -19.93,-8.5508 -19.93,-19.1367 0,-10.5195 8.55,-19.1406 19.93,-19.1406 11.32,0 20.02,8.5547 20.02,19.1406 z m -12.54,0 c 0,-5.293 -2.83,-8.5547 -7.48,-8.5547 -4.63,0 -7.46,3.2617 -7.46,8.5547 0,5.293 2.83,8.6211 7.46,8.6211 4.65,0 7.48,-3.3281 7.48,-8.6211" /><path
         id="path4376"
         style="fill:#231f20;fill-opacity:1;fill-rule:nonzero;stroke:none"
         d="m 2252.07,51.543 -11.68,0 0,-5.7227 c -2.84,4.7774 -6.61,6.8828 -11.97,6.8828 -10.14,0 -16.53,-7.3906 -16.53,-18.7773 0,-11.6016 6.39,-18.7774 15.66,-18.7774 5.66,0 9.72,2.1758 12.41,6.668 l 0,-3.2617 c 0,-6.668 -0.51,-10.22657 -7.19,-10.22657 -3.48,0 -5.65,1.3789 -6.02,3.55857 l -13.04,0 C 2214.07,4.5625 2220.38,0 2231.83,0 c 13.7,0 20.24,5 20.24,15.8672 l 0,35.6758 z m -11.1,-17.7617 c 0,-5.4415 -3.12,-8.8477 -8.34,-8.8477 -5.22,0 -8.42,3.4062 -8.42,8.8477 0,5.4375 3.2,8.8476 8.42,8.8476 5.22,0 8.34,-3.4101 8.34,-8.8476" /><path
         id="path4378"
         style="fill:#231f20;fill-opacity:1;fill-rule:nonzero;stroke:none"
         d="m 2269.67,21.2383 -14.42,30.3047 13.98,0 5.01,-12.8985 c 0.44,-1.164 1.17,-2.9804 1.67,-5.664 0.58,2.832 1.23,4.5703 1.66,5.664 l 5.08,12.8985 13.49,0 L 2273.67,0 l -14.07,0 10.07,21.2383" /><path
         id="path4380"
         style="fill:#231f20;fill-opacity:1;fill-rule:nonzero;stroke:none"
         d="m 2414.86,67.9102 0,-32.2657 c 0,-10.3632 4.28,-15.2226 13.92,-15.2226 9.64,0 13.85,4.8594 13.92,15.2226 l 0,32.2657 6.16,0 0,-32.2657 c 0,-13.9843 -6.59,-20.9453 -20.08,-20.9453 -13.48,0 -20.08,6.961 -20.08,20.9453 l 0,32.2657 6.16,0" /><path
         id="path4382"
         style="fill:#231f20;fill-opacity:1;fill-rule:nonzero;stroke:none"
         d="m 2461.19,23.7617 c 2.39,0 4.27,-1.8867 4.27,-4.2109 0,-2.3125 -1.88,-4.1289 -4.27,-4.1289 -2.4,0 -4.2,1.8164 -4.2,4.1289 0,2.3242 1.88,4.2109 4.2,4.2109" /><path
         id="path4384"
         style="fill:#231f20;fill-opacity:1;fill-rule:nonzero;stroke:none"
         d="m 2507.22,30.6445 c 0,-9.4922 -6.59,-15.8789 -16.6,-15.8789 -8.18,0 -13.92,4.3555 -15.87,12.043 l 5.58,2.7539 c 1.52,-6.3086 5.08,-9.5742 10.29,-9.5742 6.24,0 10.37,3.9883 10.37,9.6406 0,4.6406 -2.68,8.0469 -8.05,10.3711 l -6.3,2.6875 c -6.89,2.8984 -10.23,7.3906 -10.23,13.6992 0,7.2461 5.95,12.7539 14.58,12.7539 6.23,0 10.87,-2.6758 13.41,-7.8203 l -5.08,-3.2734 c -2.24,3.9179 -5.07,5.9492 -8.77,5.9492 -4.64,0 -7.9,-3.1172 -7.9,-7.543 0,-3.6875 2.25,-6.3047 6.95,-8.3398 l 7.41,-3.2578 c 6.81,-2.9024 10.21,-7.6875 10.21,-14.211" /><path
         id="path4386"
         style="fill:#231f20;fill-opacity:1;fill-rule:nonzero;stroke:none"
         d="m 2518.46,23.7617 c 2.39,0 4.28,-1.8867 4.28,-4.2109 0,-2.3125 -1.89,-4.1289 -4.28,-4.1289 -2.39,0 -4.2,1.8164 -4.2,4.1289 0,2.3242 1.89,4.2109 4.2,4.2109" /><path
         id="path4388"
         style="fill:#231f20;fill-opacity:1;fill-rule:nonzero;stroke:none"
         d="m 2556.81,16.0742 12.19,0 c 8.41,0 15.22,0.2149 21.24,4.8555 5.95,4.5664 9.06,11.7461 9.06,21.0234 0,9.2852 -3.11,16.5352 -9.06,21.1055 -6.31,4.8516 -13.78,4.8516 -23.49,4.8516 l -9.94,0 0,-51.836 z m 6.17,5.8008 0,40.3125 3.99,0 c 8.91,0 15.08,-0.1484 19.35,-3.7695 4.28,-3.5547 6.53,-9.0625 6.53,-16.3867 0,-7.3243 -2.32,-12.9766 -6.53,-16.4571 -4.34,-3.6289 -10.5,-3.6992 -19.35,-3.6992 l -3.99,0" /><path
         id="path4390"
         style="fill:#231f20;fill-opacity:1;fill-rule:nonzero;stroke:none"
         d="m 2637.73,31.4453 0,1.086 c 0,10.7304 -6.09,17.1875 -15.6,17.1875 -9.42,0 -16.16,-7.1094 -16.16,-17.336 0,-10.5742 6.67,-17.6836 16.53,-17.6836 6.67,0 11.74,2.9649 15,8.8477 l -4.19,2.8203 c -2.69,-4.707 -6.17,-7.0313 -10.52,-7.0313 -6.23,0 -10.72,4.5704 -10.72,11.6016 l 0,0.5078 25.66,0 z m -5.95,4.4922 -19.71,0 c 0.57,5.5078 4.56,8.918 9.85,8.918 5.87,0 9.5,-3.1836 9.86,-8.918" /><path
         id="path4392"
         style="fill:#231f20;fill-opacity:1;fill-rule:nonzero;stroke:none"
         d="m 2646.06,0.273438 5.52,0 0,21.671862 c 2.46,-4.789 6.44,-7.2461 11.81,-7.2461 9.07,0 15.3,6.5235 15.3,17.4688 0,10.6562 -6.23,17.4726 -15.52,17.4726 -5,0 -9.28,-2.539 -11.82,-7.2461 l 0,6.0938 -5.29,0 0,-48.214862 z m 5.37,31.894562 c 0,7.6875 4.2,12.1093 10.87,12.1093 6.45,0 10.52,-4.6367 10.52,-12.7617 0,-7.1797 -4,-11.3789 -10.44,-11.3789 -6.53,0 -10.95,4.7071 -10.95,12.0313" /><path
         id="path4394"
         style="fill:#231f20;fill-opacity:1;fill-rule:nonzero;stroke:none"
         d="m 2717.69,48.4883 -5.51,0 0,-6.0938 c -2.46,4.7852 -6.45,7.2461 -11.89,7.2461 -9.06,0 -15.23,-6.5937 -15.23,-17.4726 0,-10.586 6.24,-17.4688 15.52,-17.4688 5,0 9.14,2.5391 11.75,7.2461 l 0,-5.8711 5.36,0 0,32.4141 z m -5.36,-16.5352 c 0,-7.4687 -4.06,-11.75 -10.59,-11.75 -6.88,0 -10.8,4.4258 -10.8,12.2578 0,7.3946 3.92,11.6719 10.59,11.6719 6.23,0 10.8,-4.6406 10.8,-12.1797" /><path
         id="path4396"
         style="fill:#231f20;fill-opacity:1;fill-rule:nonzero;stroke:none"
         d="m 2728.85,48.4883 4.93,0 0,-6.75 c 2.9,5.5078 5.95,7.832 10.88,7.832 1.3,0 2.54,-0.2148 3.77,-0.6562 l -1.88,-5 c -1.23,0.4336 -2.39,0.6562 -3.41,0.6562 -5.87,0 -8.77,-4.207 -8.77,-12.6953 l 0,-15.8008 -5.52,0 0,32.4141" /><path
         id="path4398"
         style="fill:#231f20;fill-opacity:1;fill-rule:nonzero;stroke:none"
         d="m 2749.16,43.9141 0,4.5742 5.94,0 0,13.043 5.51,0 0,-13.043 6.09,0 0,-4.5742 -6.09,0 0,-27.8399 -5.51,0 0,27.8399 -5.94,0" /><path
         id="path4400"
         style="fill:#231f20;fill-opacity:1;fill-rule:nonzero;stroke:none"
         d="m 2818.1,35.1484 c 0,6.5235 -2.54,9.7071 -8.05,9.7071 -2.97,0 -5.58,-1.2344 -7.32,-3.4766 -1.38,-1.8164 -1.74,-3.8476 -1.74,-6.5234 0,-0.6563 0.08,-1.3086 0.08,-2.0313 l 0,-16.75 -5.52,0 0,19.0742 c 0,6.5235 -2.53,9.7071 -8.05,9.7071 -2.96,0 -5.65,-1.2344 -7.39,-3.4766 -1.37,-1.7383 -1.67,-3.7695 -1.67,-6.2305 0,-0.7343 0.08,-1.5273 0.08,-2.3242 l 0,-16.75 -5.52,0 0,32.4141 5.52,0 0,-5.0117 c 2.61,4.1328 6.31,6.164 11.16,6.164 5.22,0 9,-2.2461 10.88,-6.5937 2.82,4.4922 6.59,6.5937 11.52,6.5937 7.18,0 11.53,-4.1992 11.53,-11.5273 l 0,-22.0391 -5.51,0 0,19.0742" /><path
         id="path4402"
         style="fill:#231f20;fill-opacity:1;fill-rule:nonzero;stroke:none"
         d="m 2863.41,31.4453 0,1.086 c 0,10.7304 -6.09,17.1875 -15.58,17.1875 -9.43,0 -16.17,-7.1094 -16.17,-17.336 0,-10.5742 6.67,-17.6836 16.53,-17.6836 6.67,0 11.75,2.9649 15.01,8.8477 l -4.21,2.8203 c -2.68,-4.707 -6.16,-7.0313 -10.51,-7.0313 -6.24,0 -10.73,4.5704 -10.73,11.6016 l 0,0.5078 25.66,0 z m -5.94,4.4922 -19.72,0 c 0.58,5.5078 4.57,8.918 9.86,8.918 5.87,0 9.49,-3.1836 9.86,-8.918" /><path
         id="path4404"
         style="fill:#231f20;fill-opacity:1;fill-rule:nonzero;stroke:none"
         d="m 2871.75,48.4883 5.51,0 0,-5.0117 c 2.75,4.2109 6.67,6.164 11.75,6.164 7.54,0 12.18,-4.1992 12.18,-11.5273 l 0,-22.0391 -5.51,0 0,19.0742 c 0,6.5235 -2.83,9.7071 -8.63,9.7071 -3.27,0 -6.09,-1.2344 -7.9,-3.4766 -1.89,-2.3242 -1.89,-5 -1.89,-8.5547 l 0,-16.75 -5.51,0 0,32.4141" /><path
         id="path4406"
         style="fill:#231f20;fill-opacity:1;fill-rule:nonzero;stroke:none"
         d="m 2907.06,43.9141 0,4.5742 5.94,0 0,13.043 5.51,0 0,-13.043 6.1,0 0,-4.5742 -6.1,0 0,-27.8399 -5.51,0 0,27.8399 -5.94,0" /><path
         id="path4408"
         style="fill:#231f20;fill-opacity:1;fill-rule:nonzero;stroke:none"
         d="m 2949.69,32.168 c 0,-4.7071 1.74,-8.9141 5.16,-12.3242 3.32,-3.3282 7.67,-5.1446 12.46,-5.1446 4.71,0 9.06,1.8828 12.46,5.211 3.34,3.2734 5.16,7.5507 5.16,12.2578 0,4.7187 -1.82,9.0625 -5.16,12.3242 -3.4,3.3398 -7.68,5.1484 -12.46,5.1484 -4.79,0 -9.14,-1.7383 -12.46,-5.0703 -3.42,-3.3398 -5.16,-7.6836 -5.16,-12.4023 z m 5.88,0 c 0,6.8867 5.22,12.2578 11.74,12.2578 6.44,0 11.68,-5.3711 11.68,-12.2578 0,-6.8867 -5.24,-12.2578 -11.68,-12.2578 -6.45,0 -11.74,5.3711 -11.74,12.2578" /><path
         id="path4410"
         style="fill:#231f20;fill-opacity:1;fill-rule:nonzero;stroke:none"
         d="m 2995,43.9141 -6.23,0 0,4.5742 6.23,0 0,9.3437 c 0,9.7188 1.61,13.7813 9.36,13.7813 1.66,0 3.26,-0.2266 4.79,-0.7227 l 0,-5.7343 c -1.45,0.8007 -2.91,1.164 -4.36,1.164 -4.14,0 -4.28,-2.9805 -4.28,-9.2109 l 0,-8.6211 8.64,0 0,-4.5742 -8.64,0 0,-27.8399 -5.51,0 0,27.8399" /><path
         id="path4412"
         style="fill:#231f20;fill-opacity:1;fill-rule:nonzero;stroke:none"
         d="m 3061.27,63.418 c -5.44,0 -10.95,-2.3242 -14.8,-6.3086 -3.98,-4.1289 -5.94,-9.2071 -5.94,-15.293 0,-4.7851 1.15,-8.8476 3.56,-12.2539 4.12,-5.8711 10.43,-9.2109 17.46,-9.2109 6.54,0 12.26,2.6836 16.97,8.1953 l 0,-8.1953 c -5.14,-3.6993 -11.17,-5.6524 -17.46,-5.6524 -5.53,0 -10.82,1.668 -15.31,4.7852 -7.54,5.2148 -11.66,13.0469 -11.66,22.2539 0,8.0469 2.67,14.5 8.1,19.793 5.3,5.082 11.68,7.6093 19.3,7.6093 6.15,0 11.66,-1.8828 17.03,-5.5742 l 0,-8.0469 c -5,5.4297 -10.51,7.8985 -17.25,7.8985" /><path
         id="path4414"
         style="fill:#231f20;fill-opacity:1;fill-rule:nonzero;stroke:none"
         d="m 3085.84,32.168 c 0,-4.7071 1.74,-8.9141 5.16,-12.3242 3.32,-3.3282 7.68,-5.1446 12.46,-5.1446 4.71,0 9.06,1.8828 12.46,5.211 3.34,3.2734 5.16,7.5507 5.16,12.2578 0,4.7187 -1.82,9.0625 -5.16,12.3242 -3.4,3.3398 -7.67,5.1484 -12.46,5.1484 -4.78,0 -9.14,-1.7383 -12.46,-5.0703 -3.42,-3.3398 -5.16,-7.6836 -5.16,-12.4023 z m 5.88,0 c 0,6.8867 5.22,12.2578 11.74,12.2578 6.45,0 11.68,-5.3711 11.68,-12.2578 0,-6.8867 -5.23,-12.2578 -11.68,-12.2578 -6.44,0 -11.74,5.3711 -11.74,12.2578" /><path
         id="path4416"
         style="fill:#231f20;fill-opacity:1;fill-rule:nonzero;stroke:none"
         d="m 3174.81,35.1484 c 0,6.5235 -2.54,9.7071 -8.05,9.7071 -2.99,0 -5.58,-1.2344 -7.32,-3.4766 -1.39,-1.8164 -1.74,-3.8476 -1.74,-6.5234 0,-0.6563 0.06,-1.3086 0.06,-2.0313 l 0,-16.75 -5.51,0 0,19.0742 c 0,6.5235 -2.54,9.7071 -8.05,9.7071 -2.96,0 -5.64,-1.2344 -7.4,-3.4766 -1.37,-1.7383 -1.66,-3.7695 -1.66,-6.2305 0,-0.7343 0.08,-1.5273 0.08,-2.3242 l 0,-16.75 -5.51,0 0,32.4141 5.51,0 0,-5.0117 c 2.6,4.1328 6.31,6.164 11.15,6.164 5.24,0 9.01,-2.2461 10.88,-6.5937 2.83,4.4922 6.6,6.5937 11.52,6.5937 7.19,0 11.55,-4.1992 11.55,-11.5273 l 0,-22.0391 -5.51,0 0,19.0742" /><path
         id="path4418"
         style="fill:#231f20;fill-opacity:1;fill-rule:nonzero;stroke:none"
         d="m 3236.27,35.1484 c 0,6.5235 -2.53,9.7071 -8.04,9.7071 -2.97,0 -5.59,-1.2344 -7.33,-3.4766 -1.36,-1.8164 -1.73,-3.8476 -1.73,-6.5234 0,-0.6563 0.07,-1.3086 0.07,-2.0313 l 0,-16.75 -5.5,0 0,19.0742 c 0,6.5235 -2.54,9.7071 -8.05,9.7071 -2.97,0 -5.67,-1.2344 -7.4,-3.4766 -1.37,-1.7383 -1.66,-3.7695 -1.66,-6.2305 0,-0.7343 0.07,-1.5273 0.07,-2.3242 l 0,-16.75 -5.52,0 0,32.4141 5.52,0 0,-5.0117 c 2.6,4.1328 6.31,6.164 11.16,6.164 5.21,0 8.98,-2.2461 10.88,-6.5937 2.83,4.4922 6.6,6.5937 11.52,6.5937 7.19,0 11.52,-4.1992 11.52,-11.5273 l 0,-22.0391 -5.51,0 0,19.0742" /><path
         id="path4420"
         style="fill:#231f20;fill-opacity:1;fill-rule:nonzero;stroke:none"
         d="m 3281.59,31.4453 0,1.086 c 0,10.7304 -6.1,17.1875 -15.59,17.1875 -9.41,0 -16.17,-7.1094 -16.17,-17.336 0,-10.5742 6.68,-17.6836 16.54,-17.6836 6.66,0 11.74,2.9649 15,8.8477 l -4.2,2.8203 c -2.67,-4.707 -6.17,-7.0313 -10.5,-7.0313 -6.25,0 -10.75,4.5704 -10.75,11.6016 l 0,0.5078 25.67,0 z m -5.94,4.4922 -19.73,0 c 0.59,5.5078 4.57,8.918 9.87,8.918 5.88,0 9.49,-3.1836 9.86,-8.918" /><path
         id="path4422"
         style="fill:#231f20;fill-opacity:1;fill-rule:nonzero;stroke:none"
         d="m 3290,48.4883 4.93,0 0,-6.75 c 2.91,5.5078 5.95,7.832 10.88,7.832 1.3,0 2.53,-0.2148 3.77,-0.6562 l -1.88,-5 c -1.25,0.4336 -2.4,0.6562 -3.42,0.6562 -5.88,0 -8.77,-4.207 -8.77,-12.6953 l 0,-15.8008 -5.51,0 0,32.4141" /><path
         id="path4424"
         style="fill:#231f20;fill-opacity:1;fill-rule:nonzero;stroke:none"
         d="m 3340.24,17.3047 c -2.97,-1.7383 -6.66,-2.6055 -10.88,-2.6055 -10.08,0 -16.66,7.0313 -16.66,17.2539 0,10.586 7.17,17.6875 16.89,17.6875 3.62,0 7.09,-0.7929 10.08,-2.2461 l 0,-5.9492 c -2.77,1.8164 -5.8,2.832 -9,2.832 -7.11,0 -12.03,-4.7851 -12.03,-12.4687 0,-6.5273 4.86,-11.75 11.6,-11.75 3.48,0 6.6,1.2422 10,3.7031 l 0,-6.457" /><path
         id="path4426"
         style="fill:#231f20;fill-opacity:1;fill-rule:nonzero;stroke:none"
         d="m 3376.86,31.4453 0,1.086 c 0,10.7304 -6.09,17.1875 -15.59,17.1875 -9.43,0 -16.17,-7.1094 -16.17,-17.336 0,-10.5742 6.66,-17.6836 16.53,-17.6836 6.68,0 11.75,2.9649 15.02,8.8477 l -4.22,2.8203 c -2.68,-4.707 -6.16,-7.0313 -10.51,-7.0313 -6.23,0 -10.72,4.5704 -10.72,11.6016 l 0,0.5078 25.66,0 z m -5.96,4.4922 -19.7,0 c 0.56,5.5078 4.57,8.918 9.86,8.918 5.86,0 9.49,-3.1836 9.84,-8.918" /><path
         id="path4428"
         style="fill:#231f20;fill-opacity:1;fill-rule:nonzero;stroke:none"
         d="m 2347.8,25.1953 c -6.85,0 -12.48,5.5195 -12.48,12.5977 -0.13,6.9648 5.63,12.5976 12.6,12.5976 6.95,0 12.59,-5.5195 12.59,-12.5976 0,-6.9649 -5.64,-12.5977 -12.59,-12.5977 l -0.12,0" /></g></g></svg>