<?xml version="1.0" encoding="UTF-8" standalone="no"?>
<svg
   xmlns:dc="http://purl.org/dc/elements/1.1/"
   xmlns:cc="http://creativecommons.org/ns#"
   xmlns:rdf="http://www.w3.org/1999/02/22-rdf-syntax-ns#"
   xmlns:svg="http://www.w3.org/2000/svg"
   xmlns="http://www.w3.org/2000/svg"
   viewBox="0 0 118.27688 48.36375"
   height="48.36375"
   width="118.27688"
   xml:space="preserve"
   version="1.1"
   id="svg11178"><metadata
     id="metadata11184"><rdf:RDF><cc:Work
         rdf:about=""><dc:format>image/svg+xml</dc:format><dc:type
           rdf:resource="http://purl.org/dc/dcmitype/StillImage" /><dc:title></dc:title></cc:Work></rdf:RDF></metadata><defs
     id="defs11182"><clipPath
       id="clipPath11194"
       clipPathUnits="userSpaceOnUse"><path
         id="path11196"
         d="m 0,0 946.215,0 0,386.91 L 0,386.91 0,0 Z" /></clipPath></defs><g
     transform="matrix(1.25,0,0,-1.25,0,48.36375)"
     id="g11186"><g
       transform="scale(0.1,0.1)"
       id="g11188"><g
         style="fill:#26386d;fill-opacity:1;stroke:none"
         id="g11880"><path
           d="m 53.6875,386.91 28.1641,0 0,-85.594 -17.1641,0 0,68.211 -0.2187,0 -15.8399,-68.211 -15.4062,0 -15.8399,68.211 -0.2187,0 0,-68.211 -17.1641,0 0,85.594 28.1641,0 12.6523,-61.387 0.2188,0 12.6523,61.387"
           style="fill:#26386d;fill-opacity:1;fill-rule:nonzero;stroke:none"
           id="path11198" /><path
           d="m 137.168,372.168 -0.438,0 -9.019,-35.863 18.48,0 -9.023,35.863 z m 35.535,-70.852 -17.488,0 -5.61,21.457 -25.308,0 -5.609,-21.457 -17.493,0 23.985,85.594 23.101,0 24.422,-85.594"
           style="fill:#26386d;fill-opacity:1;fill-rule:nonzero;stroke:none"
           id="path11200" /><path
           d="m 242.008,372.387 -22.227,0 0,-71.071 -17.16,0 0,71.071 -22.226,0 0,14.523 61.613,0 0,-14.523"
           style="fill:#26386d;fill-opacity:1;fill-rule:nonzero;stroke:none"
           id="path11202" /><path
           d="m 316.254,372.387 -36.082,0 0,-20.465 29.922,0 0,-14.52 -29.922,0 0,-21.562 38.172,0 0,-14.524 -55.336,0 0,85.594 53.246,0 0,-14.523"
           style="fill:#26386d;fill-opacity:1;fill-rule:nonzero;stroke:none"
           id="path11204" /><path
           d="m 367.949,351.375 c 7.481,0 18.922,-0.437 18.922,10.23 0,11.774 -11.555,10.782 -20.023,10.782 l -6.379,0 0,-21.012 7.48,0 z m 9.129,35.535 c 19.695,0 27.395,-14.082 27.395,-24.972 0,-9.352 -5.828,-18.043 -14.524,-21.563 l 17.055,-39.059 -18.043,0 -15.402,35.539 -13.09,0 0,-35.539 -17.164,0 0,85.594 33.773,0"
           style="fill:#26386d;fill-opacity:1;fill-rule:nonzero;stroke:none"
           id="path11206" /><path
           d="m 430.094,301.316 17.168,0 0,85.5938 -17.168,0 0,-85.5938 z"
           style="fill:#26386d;fill-opacity:1;fill-rule:nonzero;stroke:none"
           id="path11208" /><path
           d="m 502.594,372.168 -0.449,0 -9.016,-35.863 18.488,0 -9.023,35.863 z m 35.527,-70.852 -17.48,0 -5.618,21.457 -25.3,0 -5.618,-21.457 -17.488,0 23.985,85.594 23.105,0 24.414,-85.594"
           style="fill:#26386d;fill-opacity:1;fill-rule:nonzero;stroke:none"
           id="path11210" /><path
           d="m 574.645,315.84 35.644,0 0,-14.524 -52.812,0 0,85.594 17.168,0 0,-71.07"
           style="fill:#26386d;fill-opacity:1;fill-rule:nonzero;stroke:none"
           id="path11212" /></g><g
         style="fill:#26386d;fill-opacity:1;stroke:none"
         id="g11867"><path
           d="m 53.6875,236.91 28.1641,0 0,-85.594 -17.1641,0 0,68.211 -0.2187,0 -15.8399,-68.211 -15.4062,0 -15.8399,68.211 -0.2187,0 0,-68.211 -17.1641,0 0,85.594 28.1641,0 12.6523,-61.387 0.2188,0 12.6523,61.387"
           style="fill:#26386d;fill-opacity:1;fill-rule:nonzero;stroke:none"
           id="path11214" /><path
           d="m 161.266,222.387 -36.086,0 0,-20.461 29.922,0 0,-14.524 -29.922,0 0,-21.562 38.175,0 0,-14.524 -55.335,0 0,85.594 53.246,0 0,-14.523"
           style="fill:#26386d;fill-opacity:1;fill-rule:nonzero;stroke:none"
           id="path11216" /><path
           d="m 217.473,222.168 -0.442,0 -9.019,-35.863 18.48,0 -9.019,35.863 z m 35.535,-70.852 -17.488,0 -5.614,21.457 -25.304,0 -5.614,-21.457 -17.488,0 23.984,85.594 23.102,0 24.422,-85.594"
           style="fill:#26386d;fill-opacity:1;fill-rule:nonzero;stroke:none"
           id="path11218" /><path
           d="m 312.297,211.719 c -1.652,5.937 -4.953,11.992 -11.887,11.992 -5.609,0 -10.449,-4.074 -10.449,-9.902 0,-16.836 40.266,-5.832 40.266,-37.735 0,-10.453 -7.922,-26.074 -29.043,-26.074 -16.286,0 -28.059,7.922 -30.696,24.645 l 17.164,2.527 c 1.536,-7.262 5.278,-12.652 13.418,-12.652 6.711,0 12.325,3.523 12.325,10.89 0,17.164 -40.27,7.262 -40.27,36.414 0,15.406 12.984,26.406 27.836,26.406 14.523,0 25.418,-9.347 26.844,-23.761 l -15.508,-2.75"
           style="fill:#26386d;fill-opacity:1;fill-rule:nonzero;stroke:none"
           id="path11220" /><path
           d="m 414.375,236.91 0,-59.187 C 414.375,160.117 402.27,150 384.23,150 c -18.042,0 -30.144,10.117 -30.144,27.723 l 0,59.187 17.16,0 0,-53.687 c 0,-14.301 4.289,-18.703 12.984,-18.703 8.692,0 12.981,4.402 12.981,18.703 l 0,53.687 17.164,0"
           style="fill:#26386d;fill-opacity:1;fill-rule:nonzero;stroke:none"
           id="path11222" /><path
           d="m 464.645,201.379 c 7.48,0 18.914,-0.441 18.914,10.226 0,11.774 -11.551,10.782 -20.028,10.782 l -6.367,0 0,-21.008 7.481,0 z m 9.121,35.531 c 19.695,0 27.402,-14.082 27.402,-24.972 0,-9.348 -5.84,-18.043 -14.531,-21.563 l 17.051,-39.059 -18.04,0 -15.398,35.539 -13.086,0 0,-35.539 -17.168,0 0,85.594 33.77,0"
           style="fill:#26386d;fill-opacity:1;fill-rule:nonzero;stroke:none"
           id="path11224" /><path
           d="m 580.035,222.387 -36.094,0 0,-20.461 29.922,0 0,-14.524 -29.922,0 0,-21.562 38.184,0 0,-14.524 -55.344,0 0,85.594 53.254,0 0,-14.523"
           style="fill:#26386d;fill-opacity:1;fill-rule:nonzero;stroke:none"
           id="path11226" /><path
           d="m 660.777,236.91 28.164,0 0,-85.594 -17.168,0 0,68.211 -0.214,0 -15.852,-68.211 -15.398,0 -15.84,68.211 -0.215,0 0,-68.211 -17.168,0 0,85.594 28.164,0 12.656,-61.387 0.215,0 12.656,61.387"
           style="fill:#26386d;fill-opacity:1;fill-rule:nonzero;stroke:none"
           id="path11228" /><path
           d="m 768.355,222.387 -36.093,0 0,-20.461 29.922,0 0,-14.524 -29.922,0 0,-21.562 38.183,0 0,-14.524 -55.343,0 0,85.594 53.253,0 0,-14.523"
           style="fill:#26386d;fill-opacity:1;fill-rule:nonzero;stroke:none"
           id="path11230" /><path
           d="m 820.484,236.91 25.633,-56.437 0.227,0 0,56.437 17.156,0 0,-85.594 -18.367,0 -32.344,68.762 -0.226,0 0,-68.762 -17.157,0 0,85.594 25.078,0"
           style="fill:#26386d;fill-opacity:1;fill-rule:nonzero;stroke:none"
           id="path11232" /><path
           d="m 946.215,222.387 -22.227,0 0,-71.071 -17.156,0 0,71.071 -22.227,0 0,14.523 61.61,0 0,-14.523"
           style="fill:#26386d;fill-opacity:1;fill-rule:nonzero;stroke:none"
           id="path11234" /></g><g
         style="fill:#26386d;fill-opacity:1;stroke:none"
         id="g11855"><path
           d="m 17.1641,15.8398 35.6445,0 0,-14.52339 -52.8086,0 0,85.58589 17.1641,0 0,-71.0625"
           style="fill:#26386d;fill-opacity:1;fill-rule:nonzero;stroke:none"
           id="path11236" /><path
           d="m 104.723,72.168 -0.442,0 -9.0154,-35.8672 18.4804,0 -9.023,35.8672 z m 35.535,-70.85159 -17.488,0 -5.618,21.45699 -25.3004,0 -5.6133,-21.45699 -17.4883,0 23.9844,85.58589 23.1016,0 24.422,-85.58589"
           style="fill:#26386d;fill-opacity:1;fill-rule:nonzero;stroke:none"
           id="path11238" /><path
           d="m 187.883,14.8516 c 5.168,0 15.183,-0.6641 15.183,12.3281 0,11.6601 -9.683,13.2031 -26.293,11.9922 l 0,-24.3203 11.11,0 z m -11.11,37.2851 c 12.653,0 24.641,-1.4219 24.641,10.3516 0,12.207 -12.543,10.8906 -24.641,10.8906 l 0,-21.2422 z m -17.164,-50.82029 0,85.58589 24.645,0 c 27.723,0 34.766,-9.6679 34.766,-23.5351 0,-8.0234 -3.856,-13.8633 -10.782,-17.7149 7.809,-3.7382 12.43,-11.1132 12.43,-19.6835 0,-14.7461 -11.992,-24.65239 -27.617,-24.65239 l -33.442,0"
           style="fill:#26386d;fill-opacity:1;fill-rule:nonzero;stroke:none"
           id="path11240" /><path
           d="m 261.031,44.1094 c 0,-10.9961 2.969,-30.586 17.707,-30.586 14.742,0 17.715,19.5899 17.715,30.586 0,11.0078 -2.973,30.5859 -17.715,30.5859 -14.738,0 -17.707,-19.5781 -17.707,-30.5859 z m 53.028,0 C 314.059,22.5508 303.164,0 278.738,0 254.316,0 243.43,22.5508 243.43,44.1094 c 0,21.5664 10.886,44.1211 35.308,44.1211 24.426,0 35.321,-22.5547 35.321,-44.1211"
           style="fill:#26386d;fill-opacity:1;fill-rule:nonzero;stroke:none"
           id="path11242" /><path
           d="m 363.109,51.3789 c 7.481,0 18.922,-0.4414 18.922,10.2305 0,11.7695 -11.551,10.7812 -20.023,10.7812 l -6.379,0 0,-21.0117 7.48,0 z m 9.133,35.5234 c 19.692,0 27.391,-14.082 27.391,-24.9609 0,-9.3516 -5.828,-18.0469 -14.52,-21.5586 l 17.051,-39.06639 -18.043,0 -15.398,35.53909 -13.094,0 0,-35.53909 -17.16,0 0,85.58589 33.773,0"
           style="fill:#26386d;fill-opacity:1;fill-rule:nonzero;stroke:none"
           id="path11244" /><path
           d="m 454.41,72.168 -0.449,0 -9.016,-35.8672 18.489,0 -9.024,35.8672 z m 35.528,-70.85159 -17.481,0 -5.617,21.45699 -25.301,0 -5.617,-21.45699 -17.488,0 23.984,85.58589 23.105,0 24.415,-85.58589"
           style="fill:#26386d;fill-opacity:1;fill-rule:nonzero;stroke:none"
           id="path11246" /><path
           d="m 559.242,72.3906 -22.226,0 0,-71.07419 -17.157,0 0,71.07419 -22.226,0 0,14.5117 61.609,0 0,-14.5117"
           style="fill:#26386d;fill-opacity:1;fill-rule:nonzero;stroke:none"
           id="path11248" /><path
           d="m 596.195,44.1094 c 0,-10.9961 2.969,-30.586 17.707,-30.586 14.746,0 17.715,19.5899 17.715,30.586 0,11.0078 -2.969,30.5859 -17.715,30.5859 -14.738,0 -17.707,-19.5781 -17.707,-30.5859 z m 53.028,0 C 649.223,22.5508 638.336,0 613.902,0 589.488,0 578.59,22.5508 578.59,44.1094 c 0,21.5664 10.898,44.1211 35.312,44.1211 24.434,0 35.321,-22.5547 35.321,-44.1211"
           style="fill:#26386d;fill-opacity:1;fill-rule:nonzero;stroke:none"
           id="path11250" /><path
           d="m 698.277,51.3789 c 7.481,0 18.926,-0.4414 18.926,10.2305 0,11.7695 -11.562,10.7812 -20.031,10.7812 l -6.375,0 0,-21.0117 7.48,0 z m 9.129,35.5234 c 19.699,0 27.395,-14.082 27.395,-24.9609 0,-9.3516 -5.832,-18.0469 -14.524,-21.5586 l 17.051,-39.06639 -18.035,0 -15.41,35.53909 -13.086,0 0,-35.53909 -17.168,0 0,85.58589 33.777,0"
           style="fill:#26386d;fill-opacity:1;fill-rule:nonzero;stroke:none"
           id="path11252" /><path
           d="m 795.523,35.8672 0,-34.55079 -17.168,0 0,34.55079 -28.046,51.0351 18.261,0 18.477,-37.6171 19.141,37.6171 17.714,0 -28.379,-51.0351"
           style="fill:#26386d;fill-opacity:1;fill-rule:nonzero;stroke:none"
           id="path11254" /></g></g></g></svg>