<?xml version="1.0" encoding="UTF-8" standalone="no"?>
<svg
   xmlns:dc="http://purl.org/dc/elements/1.1/"
   xmlns:cc="http://creativecommons.org/ns#"
   xmlns:rdf="http://www.w3.org/1999/02/22-rdf-syntax-ns#"
   xmlns:svg="http://www.w3.org/2000/svg"
   xmlns="http://www.w3.org/2000/svg"
   viewBox="0 0 200.39999 88.162498"
   height="88.162498"
   width="200.39999"
   xml:space="preserve"
   version="1.1"
   id="svg6342"><metadata
     id="metadata6348"><rdf:RDF><cc:Work
         rdf:about=""><dc:format>image/svg+xml</dc:format><dc:type
           rdf:resource="http://purl.org/dc/dcmitype/StillImage" /><dc:title></dc:title></cc:Work></rdf:RDF></metadata><defs
     id="defs6346" /><g
     transform="matrix(1.25,0,0,-1.25,0,88.1625)"
     id="g6350"><g
       transform="scale(0.1,0.1)"
       id="g6352"><path
         id="path6354"
         style="fill:#231f20;fill-opacity:1;fill-rule:nonzero;stroke:none"
         d="m 402.223,399.488 22.586,0 41.375,-53.14 0.226,0 0,53.14 22.59,0 0,-86.91 -22.59,0 -41.367,53.25 -0.234,0 0,-53.25 -22.586,0 0,86.91" /><path
         id="path6356"
         style="fill:#231f20;fill-opacity:1;fill-rule:nonzero;stroke:none"
         d="m 520.699,342.09 c 0,-7.5 4.953,-13.25 13.489,-13.25 8.527,0 13.48,5.75 13.48,13.25 0,7.246 -4.953,13.371 -13.48,13.371 -8.536,0 -13.489,-6.125 -13.489,-13.371 z m 47.254,-29.512 -20.973,0 0,6.57 -0.234,0 c -3.695,-5.867 -10.941,-8.523 -17.863,-8.523 -17.512,0 -29.856,14.641 -29.856,31.582 0,16.934 12.11,31.461 29.621,31.461 6.801,0 13.954,-2.547 18.332,-7.73 l 0,5.761 20.973,0 0,-59.121" /><path
         id="path6358"
         style="fill:#231f20;fill-opacity:1;fill-rule:nonzero;stroke:none"
         d="m 604.824,312.578 -20.972,0 0,41.836 -6.801,0 0,17.285 6.801,0 0,17.758 20.972,0 0,-17.758 11.875,0 0,-17.285 -11.875,0 0,-41.836" /><path
         id="path6360"
         style="fill:#231f20;fill-opacity:1;fill-rule:nonzero;stroke:none"
         d="m 644.359,312.578 -20.968,0 0,59.121 20.968,0 0,-59.121 z m 1.262,81.832 c 0,-6.461 -5.293,-11.754 -11.754,-11.754 -6.457,0 -11.75,5.293 -11.75,11.754 0,6.453 5.293,11.75 11.75,11.75 6.461,0 11.754,-5.297 11.754,-11.75" /><path
         id="path6362"
         style="fill:#231f20;fill-opacity:1;fill-rule:nonzero;stroke:none"
         d="m 675.938,342.09 c 0,-7.5 4.953,-13.25 13.476,-13.25 8.535,0 13.492,5.75 13.492,13.25 0,7.246 -4.957,13.371 -13.492,13.371 -8.523,0 -13.476,-6.125 -13.476,-13.371 z m 49.085,0 c 0,-20.059 -16.593,-31.465 -35.609,-31.465 -18.891,0 -35.613,11.289 -35.613,31.465 0,20.172 16.609,31.578 35.613,31.578 19.016,0 35.609,-11.406 35.609,-31.578" /><path
         id="path6364"
         style="fill:#231f20;fill-opacity:1;fill-rule:nonzero;stroke:none"
         d="m 755.449,364.105 0.235,0 c 4.843,7.141 10.726,9.563 18.906,9.563 15.898,0 22.246,-10.023 22.246,-24.559 l 0,-36.531 -20.984,0 0,28.82 c 0,5.653 0.929,15.551 -9.442,15.551 -8.539,0 -10.961,-6.336 -10.961,-13.707 l 0,-30.664 -20.972,0 0,59.121 20.972,0 0,-7.594" /><path
         id="path6366"
         style="fill:#231f20;fill-opacity:1;fill-rule:nonzero;stroke:none"
         d="m 828.059,342.09 c 0,-7.5 4.964,-13.25 13.496,-13.25 8.511,0 13.472,5.75 13.472,13.25 0,7.246 -4.961,13.371 -13.472,13.371 -8.532,0 -13.496,-6.125 -13.496,-13.371 z m 47.254,-29.512 -20.977,0 0,6.57 -0.227,0 c -3.687,-5.867 -10.957,-8.523 -17.847,-8.523 -17.535,0 -29.86,14.641 -29.86,31.582 0,16.934 12.09,31.461 29.621,31.461 6.797,0 13.938,-2.547 18.313,-7.73 l 0,5.761 20.977,0 0,-59.121" /><path
         id="path6368"
         style="fill:#231f20;fill-opacity:1;fill-rule:nonzero;stroke:none"
         d="m 889.246,312.578 20.9961,0 0,95.6641 -20.9961,0 0,-95.6641 z" /><path
         id="path6370"
         style="fill:#231f20;fill-opacity:1;fill-rule:nonzero;stroke:none"
         d="m 964.043,312.578 22.6055,0 0,86.9102 -22.6055,0 0,-86.9102 z" /><path
         id="path6372"
         style="fill:#231f20;fill-opacity:1;fill-rule:nonzero;stroke:none"
         d="m 1021.9,364.105 0.24,0 c 4.84,7.141 10.7,9.563 18.9,9.563 15.9,0 22.23,-10.023 22.23,-24.559 l 0,-36.531 -20.98,0 0,28.82 c 0,5.653 0.94,15.551 -9.45,15.551 -8.51,0 -10.94,-6.336 -10.94,-13.707 l 0,-30.664 -20.97,0 0,59.121 20.97,0 0,-7.594" /><path
         id="path6374"
         style="fill:#231f20;fill-opacity:1;fill-rule:nonzero;stroke:none"
         d="m 1116.18,356.504 c -3.24,1.719 -7.71,2.867 -11.31,2.867 -2.4,0 -6.56,-1.043 -6.56,-4.039 0,-4.031 6.56,-4.609 9.45,-5.176 9.81,-1.965 17.17,-6.57 17.17,-17.519 0,-15.547 -14.18,-22.012 -27.87,-22.012 -8.42,0 -16.72,2.422 -23.87,6.797 l 7.6,14.648 c 4.28,-3.007 11.43,-5.996 16.6,-5.996 2.66,0 6.57,1.25 6.57,4.492 0,4.61 -6.57,4.832 -13.13,6.563 -6.56,1.738 -13.14,4.961 -13.14,15.566 0,14.516 13.14,20.973 26.03,20.973 6.7,0 13.38,-1.039 19.49,-3.805 l -7.03,-13.359" /><path
         id="path6376"
         style="fill:#231f20;fill-opacity:1;fill-rule:nonzero;stroke:none"
         d="m 1159.17,312.578 -20.98,0 0,41.836 -6.79,0 0,17.285 6.79,0 0,17.758 20.98,0 0,-17.758 11.87,0 0,-17.285 -11.87,0 0,-41.836" /><path
         id="path6378"
         style="fill:#231f20;fill-opacity:1;fill-rule:nonzero;stroke:none"
         d="m 1198.68,312.578 -20.97,0 0,59.121 20.97,0 0,-59.121 z m 1.27,81.832 c 0,-6.461 -5.29,-11.754 -11.74,-11.754 -6.46,0 -11.75,5.293 -11.75,11.754 0,6.453 5.29,11.75 11.75,11.75 6.45,0 11.74,-5.297 11.74,-11.75" /><path
         id="path6380"
         style="fill:#231f20;fill-opacity:1;fill-rule:nonzero;stroke:none"
         d="m 1235.44,312.578 -20.96,0 0,41.836 -6.81,0 0,17.285 6.81,0 0,17.758 20.96,0 0,-17.758 11.87,0 0,-17.285 -11.87,0 0,-41.836" /><path
         id="path6382"
         style="fill:#231f20;fill-opacity:1;fill-rule:nonzero;stroke:none"
         d="m 1274.64,371.699 0,-31.582 c 0,-7.48 1.83,-12.793 10.49,-12.793 8.65,0 10.49,5.313 10.49,12.793 l 0,31.582 20.97,0 0,-35.613 c 0,-19.465 -13.73,-25.461 -31.46,-25.461 -17.76,0 -31.47,5.996 -31.47,25.461 l 0,35.613 20.98,0" /><path
         id="path6384"
         style="fill:#231f20;fill-opacity:1;fill-rule:nonzero;stroke:none"
         d="m 1352.88,312.578 -20.98,0 0,41.836 -6.79,0 0,17.285 6.79,0 0,17.758 20.98,0 0,-17.758 11.88,0 0,-17.285 -11.88,0 0,-41.836" /><path
         id="path6386"
         style="fill:#231f20;fill-opacity:1;fill-rule:nonzero;stroke:none"
         d="m 1412.71,350.723 c -1.04,5.656 -6.24,9.343 -11.88,9.343 -6.11,0 -11.17,-3.226 -12.44,-9.343 l 24.32,0 z m 19.47,-12.09 -44.14,0 c 0,-8.535 4.49,-13.145 13.14,-13.145 4.49,0 7.72,1.504 10.02,5.41 l 20.18,0 c -3.34,-13.945 -16.6,-20.273 -30.1,-20.273 -19.59,0 -34.22,11.055 -34.22,31.465 0,19.703 13.5,31.578 32.73,31.578 20.51,0 32.39,-12.684 32.39,-32.848 l 0,-2.187" /><path
         id="path6388"
         style="fill:#231f20;fill-opacity:1;fill-rule:nonzero;stroke:none"
         d="m 1499.03,342.09 c 0,-7.5 4.94,-13.25 13.48,-13.25 8.53,0 13.48,5.75 13.48,13.25 0,7.246 -4.95,13.371 -13.48,13.371 -8.54,0 -13.48,-6.125 -13.48,-13.371 z m 49.09,0 c 0,-20.059 -16.61,-31.465 -35.61,-31.465 -18.91,0 -35.63,11.289 -35.63,31.465 0,20.172 16.61,31.578 35.63,31.578 19,0 35.61,-11.406 35.61,-31.578" /><path
         id="path6390"
         style="fill:#231f20;fill-opacity:1;fill-rule:nonzero;stroke:none"
         d="m 1580.62,312.578 -20.98,0 0,41.836 -7.36,0 0,17.285 7.36,0 0,7.496 c 0,8.184 0.23,14.172 5.99,20.743 5.2,6.113 12.68,9.453 20.65,9.453 3.2,0 6.09,-0.578 8.98,-2.082 l 0,-18.086 c -2.42,1.043 -4.61,1.961 -7.38,1.961 -5.41,0 -7.26,-3.235 -7.26,-9.911 l 0,-9.574 14.64,0 0,-17.285 -14.64,0 0,-41.836" /><path
         id="path6392"
         style="fill:#231f20;fill-opacity:1;fill-rule:nonzero;stroke:none"
         d="m 51.6328,238.027 c -4.1484,3.457 -9.4414,5.762 -14.9805,5.762 -4.1484,0 -9.6718,-2.422 -9.6718,-7.266 0,-5.058 6.1015,-7.031 10.0273,-8.3 l 5.7617,-1.719 c 12.0938,-3.574 21.4414,-9.688 21.4414,-23.731 0,-8.652 -2.0859,-17.539 -8.9921,-23.398 -6.8008,-5.781 -15.9141,-8.184 -24.668,-8.184 -10.9453,0 -21.66799,3.672 -30.5508,9.903 l 9.6875,18.203 c 5.6484,-4.942 12.3242,-8.984 20.0586,-8.984 5.293,0 10.9414,2.656 10.9414,8.769 0,6.328 -8.8828,8.535 -13.707,9.902 -14.1719,4.024 -23.51956,7.715 -23.51956,24.551 0,17.637 12.55856,29.16 29.96096,29.16 8.7695,0 19.4844,-2.773 27.1992,-7.148 l -8.9883,-17.52" /><path
         id="path6394"
         style="fill:#231f20;fill-opacity:1;fill-rule:nonzero;stroke:none"
         d="m 97.3984,173.496 -20.9726,0 0,41.836 -6.8008,0 0,17.266 6.8008,0 0,17.761 20.9726,0 0,-17.761 11.8596,0 0,-17.266 -11.8596,0 0,-41.836" /><path
         id="path6396"
         style="fill:#231f20;fill-opacity:1;fill-rule:nonzero;stroke:none"
         d="m 133.352,203.008 c 0,-7.5 4.949,-13.262 13.472,-13.262 8.535,0 13.489,5.762 13.489,13.262 0,7.246 -4.954,13.359 -13.489,13.359 -8.523,0 -13.472,-6.113 -13.472,-13.359 z m 47.253,-29.512 -20.972,0 0,6.563 -0.235,0 c -3.695,-5.879 -10.96,-8.516 -17.871,-8.516 -17.507,0 -29.847,14.629 -29.847,31.562 0,16.934 12.109,31.465 29.621,31.465 6.797,0 13.937,-2.539 18.332,-7.734 l 0,5.762 20.972,0 0,-59.102" /><path
         id="path6398"
         style="fill:#231f20;fill-opacity:1;fill-rule:nonzero;stroke:none"
         d="m 215.52,225.02 0.234,0 c 4.844,7.128 10.707,9.55 18.902,9.55 15.903,0 22.235,-10.019 22.235,-24.55 l 0,-36.524 -20.977,0 0,28.809 c 0,5.644 0.934,15.547 -9.453,15.547 -8.523,0 -10.941,-6.329 -10.941,-13.711 l 0,-30.645 -20.973,0 0,59.102 20.973,0 0,-7.578" /><path
         id="path6400"
         style="fill:#231f20;fill-opacity:1;fill-rule:nonzero;stroke:none"
         d="m 288.93,203.008 c 0,-7.5 4.953,-13.262 13.492,-13.262 8.519,0 13.473,5.762 13.473,13.262 0,7.246 -4.954,13.359 -13.473,13.359 -8.539,0 -13.492,-6.113 -13.492,-13.359 z m 26.281,-22.949 -0.231,0 c -3.695,-5.879 -10.949,-8.516 -17.871,-8.516 -17.507,0 -29.851,14.629 -29.851,31.562 0,16.934 12.105,31.465 29.621,31.465 6.797,0 13.957,-2.539 18.332,-7.734 l 0,42.305 20.973,0 0,-95.645 -20.973,0 0,6.563" /><path
         id="path6402"
         style="fill:#231f20;fill-opacity:1;fill-rule:nonzero;stroke:none"
         d="m 366.719,203.008 c 0,-7.5 4.965,-13.262 13.492,-13.262 8.519,0 13.473,5.762 13.473,13.262 0,7.246 -4.954,13.359 -13.473,13.359 -8.527,0 -13.492,-6.113 -13.492,-13.359 z m 47.258,-29.512 -20.973,0 0,6.563 -0.234,0 c -3.684,-5.879 -10.946,-8.516 -17.868,-8.516 -17.515,0 -29.839,14.629 -29.839,31.562 0,16.934 12.093,31.465 29.621,31.465 6.8,0 13.937,-2.539 18.32,-7.734 l 0,5.762 20.973,0 0,-59.102" /><path
         id="path6404"
         style="fill:#231f20;fill-opacity:1;fill-rule:nonzero;stroke:none"
         d="m 448.902,222.93 0.219,0 c 4.031,7.265 10.957,10.488 19.141,10.488 l 4.035,0 0,-20.176 c -2.887,1.621 -5.652,1.953 -8.879,1.953 -11.645,0 -14.516,-7.715 -14.516,-17.851 l 0,-23.848 -20.988,0 0,59.102 20.988,0 0,-9.668" /><path
         id="path6406"
         style="fill:#231f20;fill-opacity:1;fill-rule:nonzero;stroke:none"
         d="m 498.328,203.008 c 0,-7.5 4.969,-13.262 13.492,-13.262 8.524,0 13.493,5.762 13.493,13.262 0,7.246 -4.969,13.359 -13.493,13.359 -8.523,0 -13.492,-6.113 -13.492,-13.359 z m 26.285,-22.949 -0.234,0 c -3.68,-5.879 -10.945,-8.516 -17.871,-8.516 -17.508,0 -29.832,14.629 -29.832,31.562 0,16.934 12.094,31.465 29.617,31.465 6.797,0 13.941,-2.539 18.32,-7.734 l 0,42.305 20.973,0 0,-95.645 -20.973,0 0,6.563" /><path
         id="path6408"
         style="fill:#231f20;fill-opacity:1;fill-rule:nonzero;stroke:none"
         d="m 597.793,217.402 c -3.23,1.719 -7.715,2.871 -11.289,2.871 -2.422,0 -6.582,-1.035 -6.582,-4.023 0,-4.043 6.582,-4.609 9.453,-5.195 9.801,-1.953 17.172,-6.563 17.172,-17.5 0,-15.567 -14.176,-22.012 -27.879,-22.012 -8.414,0 -16.719,2.402 -23.863,6.797 l 7.605,14.629 c 4.27,-2.989 11.414,-5.996 16.598,-5.996 2.652,0 6.566,1.269 6.566,4.492 0,4.609 -6.566,4.844 -13.133,6.562 -6.566,1.739 -13.132,4.981 -13.132,15.567 0,14.531 13.132,20.976 26.035,20.976 6.687,0 13.379,-1.035 19.48,-3.789 l -7.031,-13.379" /><path
         id="path6410"
         style="fill:#231f20;fill-opacity:1;fill-rule:nonzero;stroke:none"
         d="m 674.773,203.008 c 0,-7.5 4.954,-13.262 13.489,-13.262 8.523,0 13.476,5.762 13.476,13.262 0,7.246 -4.953,13.359 -13.476,13.359 -8.535,0 -13.489,-6.113 -13.489,-13.359 z m 47.254,-29.512 -20.972,0 0,6.563 -0.235,0 c -3.691,-5.879 -10.941,-8.516 -17.867,-8.516 -17.508,0 -29.851,14.629 -29.851,31.562 0,16.934 12.109,31.465 29.617,31.465 6.801,0 13.961,-2.539 18.336,-7.734 l 0,5.762 20.972,0 0,-59.102" /><path
         id="path6412"
         style="fill:#231f20;fill-opacity:1;fill-rule:nonzero;stroke:none"
         d="m 756.941,225.02 0.231,0 c 4.844,7.128 10.726,9.55 18.914,9.55 15.891,0 22.242,-10.019 22.242,-24.55 l 0,-36.524 -20.988,0 0,28.809 c 0,5.644 0.93,15.547 -9.442,15.547 -8.535,0 -10.957,-6.329 -10.957,-13.711 l 0,-30.645 -20.972,0 0,59.102 20.972,0 0,-7.578" /><path
         id="path6414"
         style="fill:#231f20;fill-opacity:1;fill-rule:nonzero;stroke:none"
         d="m 830.352,203.008 c 0,-7.5 4.968,-13.262 13.488,-13.262 8.531,0 13.496,5.762 13.496,13.262 0,7.246 -4.965,13.359 -13.496,13.359 -8.52,0 -13.488,-6.113 -13.488,-13.359 z m 26.281,-22.949 -0.238,0 c -3.668,-5.879 -10.934,-8.516 -17.848,-8.516 -17.524,0 -29.852,14.629 -29.852,31.562 0,16.934 12.098,31.465 29.618,31.465 6.804,0 13.945,-2.539 18.32,-7.734 l 0,42.305 20.972,0 0,-95.645 -20.972,0 0,6.563" /><path
         id="path6416"
         style="fill:#231f20;fill-opacity:1;fill-rule:nonzero;stroke:none"
         d="m 965.32,173.496 -22.593,0 0,67.754 -18.672,0 0,19.141 59.922,0 0,-19.141 -18.657,0 0,-67.754" /><path
         id="path6418"
         style="fill:#231f20;fill-opacity:1;fill-rule:nonzero;stroke:none"
         d="m 1024.43,211.641 c -1.04,5.644 -6.22,9.336 -11.86,9.336 -6.11,0 -11.19,-3.223 -12.44,-9.336 l 24.3,0 z m 19.49,-12.11 -44.147,0 c 0,-8.535 4.497,-13.144 13.147,-13.144 4.47,0 7.71,1.504 10.02,5.429 l 20.17,0 c -3.33,-13.945 -16.6,-20.273 -30.09,-20.273 -19.59,0 -34.219,11.035 -34.219,31.465 0,19.687 13.472,31.562 32.729,31.562 20.51,0 32.39,-12.675 32.39,-32.851 l 0,-2.188" /><path
         id="path6420"
         style="fill:#231f20;fill-opacity:1;fill-rule:nonzero;stroke:none"
         d="m 1096.12,213.379 c -3.12,2.285 -6.79,4.141 -10.84,4.141 -8.06,0 -14.4,-6.231 -14.4,-14.415 0,-8.515 6.1,-14.511 14.75,-14.511 3.7,0 7.72,1.484 10.49,4.023 l 0,-17.754 c -4.61,-2.285 -9.68,-3.32 -14.74,-3.32 -17.53,0 -32.17,13.008 -32.17,30.859 0,19.024 14.53,32.168 33.08,32.168 4.85,0 9.69,-1.152 13.83,-3.457 l 0,-17.734" /><path
         id="path6422"
         style="fill:#231f20;fill-opacity:1;fill-rule:nonzero;stroke:none"
         d="m 1130.13,269.141 0,-44.024 0.21,0 c 4.85,6.465 10.72,9.453 18.91,9.453 14.98,0 22.24,-9.922 22.24,-24.902 l 0,-36.172 -20.97,0 0,30.293 c 0,6.934 -1.04,14.063 -9.46,14.063 -8.3,0 -10.93,-7.129 -10.93,-14.063 l 0,-30.293 -20.98,0 0,95.645 20.98,0" /><path
         id="path6424"
         style="fill:#231f20;fill-opacity:1;fill-rule:nonzero;stroke:none"
         d="m 1206.3,225.02 0.23,0 c 4.85,7.128 10.71,9.55 18.89,9.55 15.92,0 22.25,-10.019 22.25,-24.55 l 0,-36.524 -20.98,0 0,28.809 c 0,5.644 0.94,15.547 -9.45,15.547 -8.52,0 -10.94,-6.329 -10.94,-13.711 l 0,-30.645 -20.98,0 0,59.102 20.98,0 0,-7.578" /><path
         id="path6426"
         style="fill:#231f20;fill-opacity:1;fill-rule:nonzero;stroke:none"
         d="m 1279.25,203.008 c 0,-7.5 4.96,-13.262 13.47,-13.262 8.54,0 13.5,5.762 13.5,13.262 0,7.246 -4.96,13.359 -13.5,13.359 -8.51,0 -13.47,-6.113 -13.47,-13.359 z m 49.1,0 c 0,-20.059 -16.6,-31.465 -35.63,-31.465 -18.9,0 -35.6,11.27 -35.6,31.465 0,20.156 16.6,31.562 35.6,31.562 19.03,0 35.63,-11.406 35.63,-31.562" /><path
         id="path6428"
         style="fill:#231f20;fill-opacity:1;fill-rule:nonzero;stroke:none"
         d="m 1337.8,173.496 20.9609,0 0,95.6445 -20.9609,0 0,-95.6445 z" /><path
         id="path6430"
         style="fill:#231f20;fill-opacity:1;fill-rule:nonzero;stroke:none"
         d="m 1390.34,203.008 c 0,-7.5 4.96,-13.262 13.5,-13.262 8.51,0 13.47,5.762 13.47,13.262 0,7.246 -4.96,13.359 -13.47,13.359 -8.54,0 -13.5,-6.113 -13.5,-13.359 z m 49.1,0 c 0,-20.059 -16.6,-31.465 -35.6,-31.465 -18.91,0 -35.63,11.27 -35.63,31.465 0,20.156 16.6,31.562 35.63,31.562 19,0 35.6,-11.406 35.6,-31.562" /><path
         id="path6432"
         style="fill:#231f20;fill-opacity:1;fill-rule:nonzero;stroke:none"
         d="m 1466.51,203.457 c 0,-7.48 4.96,-13.262 13.5,-13.262 8.52,0 13.48,5.782 13.48,13.262 0,7.266 -4.96,13.359 -13.48,13.359 -8.54,0 -13.5,-6.093 -13.5,-13.359 z m 47.27,-24.199 c 0,-25.117 -12.46,-35.274 -34.24,-35.274 -13.59,0 -31.8,7.032 -33.65,22.598 l 23.51,0 c 0.59,-2.09 2.07,-3.594 3.91,-4.512 1.86,-0.898 4.04,-1.367 6,-1.367 11.31,0 13.49,7.363 13.49,16.934 l 0,2.754 c -5.41,-5.391 -10.95,-8.047 -18.79,-8.047 -17.28,0 -29.16,13.125 -29.16,30.195 0,17.266 12.21,32.031 30.32,32.031 6.91,0 13.26,-2.304 17.4,-8.183 l 0.23,0 0,6.211 20.98,0 0,-53.34" /><path
         id="path6434"
         style="fill:#231f20;fill-opacity:1;fill-rule:nonzero;stroke:none"
         d="m 1518.25,232.598 24.22,0 15.8,-30.293 15.43,30.293 23.85,0 -47.36,-88.614 -23.52,0 20.18,37.579 -28.6,51.035" /><path
         id="path6436"
         style="fill:#231f20;fill-opacity:1;fill-rule:nonzero;stroke:none"
         d="m 82.5117,65.5664 c 0,-6.4453 -0.2226,-13.8281 3.8008,-19.3555 3.8047,-5.2929 11.1914,-8.3007 17.5275,-8.3007 6.223,0 13.023,2.8906 17.058,7.7343 4.61,5.5078 4.254,13.125 4.254,19.9219 l 0,51.7576 9.688,0 0,-54.3943 c 0,-9.4531 -0.699,-16.9531 -7.61,-24.1016 -5.992,-6.4453 -14.636,-9.9023 -23.39,-9.9023 -8.1798,0 -16.5939,3.1055 -22.4767,8.8672 -7.6094,7.2656 -8.5274,15.2148 -8.5274,25.1367 l 0,54.3943 9.6758,0 0,-51.7576" /><path
         id="path6438"
         style="fill:#231f20;fill-opacity:1;fill-rule:nonzero;stroke:none"
         d="m 167.457,35.5078 c 0,-3.5742 -2.887,-6.582 -6.461,-6.582 -3.57,0 -6.457,3.0078 -6.457,6.582 0,3.4375 2.887,6.3281 6.457,6.3281 3.574,0 6.461,-2.8906 6.461,-6.3281" /><path
         id="path6440"
         style="fill:#231f20;fill-opacity:1;fill-rule:nonzero;stroke:none"
         d="m 226.93,100.371 c -3.461,5.996 -7.61,9.453 -14.981,9.453 -7.734,0 -14.41,-5.527 -14.41,-13.4959 0,-7.4804 7.715,-10.9375 13.598,-13.5937 l 5.761,-2.5196 c 11.286,-4.9609 20.868,-10.6054 20.868,-24.4335 0,-15.2149 -12.219,-26.8555 -27.328,-26.8555 -13.938,0 -24.305,8.9844 -27.086,22.4609 l 9.457,2.6563 c 1.269,-8.8672 8.07,-16.1328 17.402,-16.1328 9.344,0 17.863,7.1484 17.863,16.9531 0,10.1367 -7.945,13.5937 -16.019,17.2656 l -5.309,2.3242 c -10.137,4.6094 -18.894,9.7852 -18.894,22.2461 0,13.4768 11.41,22.1098 24.312,22.1098 9.688,0 17.871,-4.942 22.481,-13.477 l -7.715,-4.961" /><path
         id="path6442"
         style="fill:#231f20;fill-opacity:1;fill-rule:nonzero;stroke:none"
         d="m 267.367,35.5078 c 0,-3.5742 -2.871,-6.582 -6.445,-6.582 -3.567,0 -6.453,3.0078 -6.453,6.582 0,3.4375 2.886,6.3281 6.453,6.3281 3.574,0 6.445,-2.8906 6.445,-6.3281" /><path
         id="path6444"
         style="fill:#231f20;fill-opacity:1;fill-rule:nonzero;stroke:none"
         d="m 339.629,39.4141 c 10.605,0 19.48,1.5039 27.434,8.9843 7.14,6.6993 10.832,15.7813 10.832,25.4688 0,9.9023 -3.801,19.4726 -11.297,26.0547 -7.95,7.0311 -16.703,8.4181 -26.969,8.4181 l -7.031,0 0,-68.9259 7.031,0 z m -16.703,77.9099 16.359,0 c 13.028,0 23.629,-1.738 33.895,-10.488 9.902,-8.5352 14.402,-20.1758 14.402,-33.086 0,-12.6758 -4.609,-23.8477 -14.187,-32.3828 -10.372,-9.2188 -20.739,-10.9375 -34.336,-10.9375 l -16.133,0 0,86.8943" /><path
         id="path6446"
         style="fill:#231f20;fill-opacity:1;fill-rule:nonzero;stroke:none"
         d="m 438.516,63.3789 c -1.27,7.832 -7.836,14.1797 -15.914,14.1797 -7.946,0 -15.317,-6.3477 -16.469,-14.1797 l 32.383,0 z m -32.848,-7.832 c 0.125,-10.0196 7.266,-18.086 17.746,-18.086 7.836,0 12.914,4.7071 16.484,11.1719 l 7.84,-4.5117 c -5.183,-9.668 -13.937,-15.1953 -25.008,-15.1953 -16.128,0 -26.515,12.3242 -26.515,27.8906 0,16.0156 9.348,29.2774 26.281,29.2774 17.402,0 26.625,-14.4141 25.707,-30.5469 l -42.535,0" /><path
         id="path6448"
         style="fill:#231f20;fill-opacity:1;fill-rule:nonzero;stroke:none"
         d="m 469.176,58.0859 c 0,-10.6054 6.222,-20.625 17.742,-20.625 11.875,0 18.102,9.5508 18.102,20.5079 0,10.8203 -6.797,19.5898 -18.207,19.5898 -10.727,0 -17.637,-9.3359 -17.637,-19.4727 z m 0.453,18.7891 0.23,0 c 4.5,5.9766 11.176,9.2188 18.676,9.2188 15.895,0 25.922,-13.7305 25.922,-28.711 0,-15.4492 -9.793,-28.457 -26.027,-28.457 -7.395,0 -14.192,3.2226 -18.571,9.1015 l -0.23,0 0,-38.0273 -9.223,0 0,84.5898 9.223,0 0,-7.7148" /><path
         id="path6450"
         style="fill:#231f20;fill-opacity:1;fill-rule:nonzero;stroke:none"
         d="m 532.219,58.0859 c 0,-10.6054 6.211,-20.625 17.742,-20.625 11.875,0 18.086,9.5508 18.086,20.5079 0,10.8203 -6.797,19.5898 -18.207,19.5898 -10.715,0 -17.621,-9.3359 -17.621,-19.4727 z m 44.597,-27.6562 -9.218,0 0,7.4805 -0.235,0 c -4.718,-5.9766 -11.07,-8.9844 -18.672,-8.9844 -15.898,0 -25.925,13.4765 -25.925,28.457 0,15.4492 9.793,28.711 26.047,28.711 7.375,0 14.046,-3.4571 18.55,-9.2188 l 0.235,0 0,7.7148 9.218,0 0,-54.1601" /><path
         id="path6452"
         style="fill:#231f20;fill-opacity:1;fill-rule:nonzero;stroke:none"
         d="m 602.637,78.7109 0.215,0 c 3.226,4.2579 6.003,7.3829 12.003,7.3829 3.098,0 5.633,-1.0352 8.286,-2.5586 l -4.375,-8.3985 c -1.852,1.2696 -3.106,2.4219 -5.528,2.4219 -10.152,0 -10.601,-13.0078 -10.601,-20.0391 l 0,-27.0898 -9.223,0 0,54.1601 9.223,0 0,-5.8789" /><path
         id="path6454"
         style="fill:#231f20;fill-opacity:1;fill-rule:nonzero;stroke:none"
         d="m 644.457,30.4297 -9.223,0 0,45.625 -5.632,0 0,8.5351 5.632,0 0,19.4732 9.223,0 0,-19.4732 9.684,0 0,-8.5351 -9.684,0 0,-45.625" /><path
         id="path6456"
         style="fill:#231f20;fill-opacity:1;fill-rule:nonzero;stroke:none"
         d="m 671.656,78.7109 0.231,0 c 2.886,4.4922 7.5,7.3829 13.023,7.3829 6.336,0 12.11,-3.3594 14.985,-8.9844 3.226,5.9765 9.683,8.9844 16.25,8.9844 13.832,0 17.293,-11.3086 17.293,-22.7149 l 0,-32.9492 -9.219,0 0,31.4648 c 0,7.0313 -0.469,15.6641 -9.922,15.6641 -10.602,0 -11.754,-10.2539 -11.754,-18.4375 l 0,-28.6914 -9.219,0 0,30.7617 c 0,6.6797 -0.804,16.3672 -9.687,16.3672 -10.821,0 -11.981,-10.957 -11.981,-19.1406 l 0,-27.9883 -9.222,0 0,54.1601 9.222,0 0,-5.8789" /><path
         id="path6458"
         style="fill:#231f20;fill-opacity:1;fill-rule:nonzero;stroke:none"
         d="m 788.406,63.3789 c -1.273,7.832 -7.84,14.1797 -15.91,14.1797 -7.949,0 -15.324,-6.3477 -16.473,-14.1797 l 32.383,0 z m -32.843,-7.832 c 0.105,-10.0196 7.265,-18.086 17.742,-18.086 7.84,0 12.918,4.7071 16.484,11.1719 l 7.84,-4.5117 c -5.184,-9.668 -13.957,-15.1953 -25.008,-15.1953 -16.144,0 -26.516,12.3242 -26.516,27.8906 0,16.0156 9.344,29.2774 26.282,29.2774 17.402,0 26.621,-14.4141 25.695,-30.5469 l -42.519,0" /><path
         id="path6460"
         style="fill:#231f20;fill-opacity:1;fill-rule:nonzero;stroke:none"
         d="m 819.984,78.0273 0.231,0 c 3.805,5.1758 8.754,8.0665 15.449,8.0665 14.981,0 18.43,-10.8399 18.43,-23.5157 l 0,-32.1484 -9.211,0 0,30.5273 c 0,8.7696 -0.695,16.6016 -11.41,16.6016 -12.68,0 -13.489,-11.7578 -13.489,-21.4258 l 0,-25.7031 -9.222,0 0,54.1601 9.222,0 0,-6.5625" /><path
         id="path6462"
         style="fill:#231f20;fill-opacity:1;fill-rule:nonzero;stroke:none"
         d="m 881.301,30.4297 -9.223,0 0,45.625 -5.64,0 0,8.5351 5.64,0 0,19.4732 9.223,0 0,-19.4732 9.668,0 0,-8.5351 -9.668,0 0,-45.625" /><path
         id="path6464"
         style="fill:#231f20;fill-opacity:1;fill-rule:nonzero;stroke:none"
         d="m 939.148,57.5195 c 0,-11.0742 7.832,-20.0586 19.243,-20.0586 11.414,0 19.254,8.9844 19.254,20.0586 0,10.9375 -7.84,20.0391 -19.254,20.0391 -11.411,0 -19.243,-9.1016 -19.243,-20.0391 z m -9.226,-0.1367 c 0,15.918 12.566,28.711 28.469,28.711 15.918,0 28.472,-12.793 28.472,-28.711 0,-15.8984 -12.683,-28.457 -28.472,-28.457 -15.786,0 -28.469,12.5586 -28.469,28.457" /><path
         id="path6466"
         style="fill:#231f20;fill-opacity:1;fill-rule:nonzero;stroke:none"
         d="m 1009.56,30.4297 -9.22,0 0,45.625 -5.059,0 0,8.5351 5.059,0 0,21.5622 c 0,4.473 0,10.137 2.42,14.043 2.99,4.844 8.42,6.797 13.96,6.797 2.19,0 4.37,-0.449 6.56,-1.152 l 0,-9.317 c -2.08,0.684 -3.92,1.25 -6.22,1.25 -7.5,0 -7.5,-5.293 -7.5,-14.863 l 0,-18.3202 13.72,0 0,-8.5351 -13.72,0 0,-45.625" /><path
         id="path6468"
         style="fill:#231f20;fill-opacity:1;fill-rule:nonzero;stroke:none"
         d="m 1132.88,98.3008 c -6.91,7.1482 -16.48,11.5232 -26.52,11.5232 -19.36,0 -35.03,-16.8162 -35.03,-35.9568 0,-19.1406 15.81,-35.957 35.26,-35.957 9.81,0 19.38,4.6289 26.29,11.5234 l 0,-11.9727 c -7.5,-5.4296 -16.72,-8.5351 -25.94,-8.5351 -24.55,0 -45.28,19.9414 -45.28,44.6094 0,24.8828 20.4,45.2738 45.28,45.2738 9.69,0 18.21,-2.754 25.94,-8.516 l 0,-11.9922" /><path
         id="path6470"
         style="fill:#231f20;fill-opacity:1;fill-rule:nonzero;stroke:none"
         d="m 1153.62,57.5195 c 0,-11.0742 7.84,-20.0586 19.24,-20.0586 11.43,0 19.26,8.9844 19.26,20.0586 0,10.9375 -7.83,20.0391 -19.26,20.0391 -11.4,0 -19.24,-9.1016 -19.24,-20.0391 z m -9.22,-0.1367 c 0,15.918 12.56,28.711 28.46,28.711 15.9,0 28.48,-12.793 28.48,-28.711 0,-15.8984 -12.68,-28.457 -28.48,-28.457 -15.78,0 -28.46,12.5586 -28.46,28.457" /><path
         id="path6472"
         style="fill:#231f20;fill-opacity:1;fill-rule:nonzero;stroke:none"
         d="m 1223.23,78.7109 0.24,0 c 2.89,4.4922 7.5,7.3829 13.02,7.3829 6.33,0 12.09,-3.3594 14.98,-8.9844 3.23,5.9765 9.69,8.9844 16.25,8.9844 13.83,0 17.27,-11.3086 17.27,-22.7149 l 0,-32.9492 -9.2,0 0,31.4648 c 0,7.0313 -0.47,15.6641 -9.92,15.6641 -10.61,0 -11.74,-10.2539 -11.74,-18.4375 l 0,-28.6914 -9.24,0 0,30.7617 c 0,6.6797 -0.8,16.3672 -9.68,16.3672 -10.83,0 -11.98,-10.957 -11.98,-19.1406 l 0,-27.9883 -9.22,0 0,54.1601 9.22,0 0,-5.8789" /><path
         id="path6474"
         style="fill:#231f20;fill-opacity:1;fill-rule:nonzero;stroke:none"
         d="m 1311.75,78.7109 0.23,0 c 2.87,4.4922 7.48,7.3829 13.01,7.3829 6.35,0 12.11,-3.3594 15,-8.9844 3.2,5.9765 9.67,8.9844 16.23,8.9844 13.83,0 17.31,-11.3086 17.31,-22.7149 l 0,-32.9492 -9.24,0 0,31.4648 c 0,7.0313 -0.45,15.6641 -9.91,15.6641 -10.6,0 -11.75,-10.2539 -11.75,-18.4375 l 0,-28.6914 -9.22,0 0,30.7617 c 0,6.6797 -0.82,16.3672 -9.67,16.3672 -10.84,0 -11.99,-10.957 -11.99,-19.1406 l 0,-27.9883 -9.22,0 0,54.1601 9.22,0 0,-5.8789" /><path
         id="path6476"
         style="fill:#231f20;fill-opacity:1;fill-rule:nonzero;stroke:none"
         d="m 1428.49,63.3789 c -1.25,7.832 -7.84,14.1797 -15.9,14.1797 -7.97,0 -15.33,-6.3477 -16.49,-14.1797 l 32.39,0 z m -32.86,-7.832 c 0.12,-10.0196 7.27,-18.086 17.76,-18.086 7.83,0 12.91,4.7071 16.48,11.1719 l 7.84,-4.5117 c -5.18,-9.668 -13.95,-15.1953 -25,-15.1953 -16.14,0 -26.51,12.3242 -26.51,27.8906 0,16.0156 9.34,29.2774 26.27,29.2774 17.4,0 26.62,-14.4141 25.7,-30.5469 l -42.54,0" /><path
         id="path6478"
         style="fill:#231f20;fill-opacity:1;fill-rule:nonzero;stroke:none"
         d="m 1459.62,78.7109 0.21,0 c 3.23,4.2579 6,7.3829 12,7.3829 3.1,0 5.64,-1.0352 8.3,-2.5586 l -4.4,-8.3985 c -1.83,1.2696 -3.1,2.4219 -5.52,2.4219 -10.14,0 -10.59,-13.0078 -10.59,-20.0391 l 0,-27.0898 -9.24,0 0,54.1601 9.24,0 0,-5.8789" /><path
         id="path6480"
         style="fill:#231f20;fill-opacity:1;fill-rule:nonzero;stroke:none"
         d="m 1529.68,68.457 -0.24,0 c -4.25,5.4102 -9.57,9.1016 -16.81,9.1016 -11.19,0 -19.14,-9.2188 -19.14,-20.0391 0,-10.7422 7.36,-20.0586 18.67,-20.0586 7.71,0 13.12,3.4571 17.63,9.3164 l 0.24,0 0,-12.3242 c -5.31,-3.5742 -10.72,-5.5273 -17.19,-5.5273 -16.37,0 -28.81,12.207 -28.81,28.5937 0,16.1133 13.03,28.5743 28.93,28.5743 5.88,0 11.87,-1.9532 16.72,-5.4297 l 0,-12.2071" /><path
         id="path6482"
         style="fill:#231f20;fill-opacity:1;fill-rule:nonzero;stroke:none"
         d="m 1581.77,63.3789 c -1.27,7.832 -7.83,14.1797 -15.92,14.1797 -7.95,0 -15.31,-6.3477 -16.47,-14.1797 l 32.39,0 z m -32.85,-7.832 c 0.13,-10.0196 7.26,-18.086 17.75,-18.086 7.83,0 12.91,4.7071 16.48,11.1719 l 7.84,-4.5117 c -5.18,-9.668 -13.95,-15.1953 -25,-15.1953 -16.14,0 -26.53,12.3242 -26.53,27.8906 0,16.0156 9.36,29.2774 26.29,29.2774 17.4,0 26.62,-14.4141 25.71,-30.5469 l -42.54,0" /><path
         id="path6484"
         style="fill:#231f20;fill-opacity:1;fill-rule:nonzero;stroke:none"
         d="m 724,456.953 -50.746,0 0,195.942 c 0,-0.215 0,36.98 37.117,49.367 33.5,10.742 55.883,-10.899 55.934,-10.836 l 167.3,-180.914 c 8.399,-5.184 11.825,0.215 11.739,5.187 l 0,186.563 51.226,0 0,-194.547 c -0.254,-16.578 -13.941,-37.129 -33.379,-45.141 -19.898,-7.73 -41.753,-7.668 -67.656,14.125 L 739.027,646.777 c -4.101,4.446 -14.843,4.938 -15.027,-3.754 l 0,-186.07" /><path
         id="path6486"
         style="fill:#231f20;fill-opacity:1;fill-rule:nonzero;stroke:none"
         d="m 1029.44,702.262 51.23,0 0,-175.762 c -0.15,-18.723 15.49,-18.723 31.02,-18.785 l 227.44,0 c 9.49,0.062 20.27,11.238 20.22,22.543 0.05,11.707 -10.92,23.535 -21.16,23.504 l -148.04,0 c -25.45,-0.934 -78.3,22.57 -78.46,72.371 0.16,60.793 50.08,74.515 72.83,76.129 l 418.71,0 0,-51.696 -104.8,0 0,-193.613 -50.74,0 0,193.613 -256.59,0 c -24.43,2.114 -42.05,-39.988 -1.89,-46.074 l 157.44,0 c 23.65,0.219 62.81,-20.367 62.95,-71.41 -0.14,-51.723 -30.49,-76.191 -62.95,-76.129 l -232.62,0 c -38.41,-0.062 -52.16,8.66 -65.8,21.613 -12.58,12.45 -14.7,19.43 -18.79,45.11 l 0,178.586" /></g></g></svg>