<?xml version="1.0" encoding="UTF-8" standalone="no"?>
<svg
   xmlns:dc="http://purl.org/dc/elements/1.1/"
   xmlns:cc="http://creativecommons.org/ns#"
   xmlns:rdf="http://www.w3.org/1999/02/22-rdf-syntax-ns#"
   xmlns:svg="http://www.w3.org/2000/svg"
   xmlns="http://www.w3.org/2000/svg"
   viewBox="0 0 243.3 32.349998"
   height="32.349998"
   width="243.3"
   xml:space="preserve"
   version="1.1"
   id="svg5656"><metadata
     id="metadata5662"><rdf:RDF><cc:Work
         rdf:about=""><dc:format>image/svg+xml</dc:format><dc:type
           rdf:resource="http://purl.org/dc/dcmitype/StillImage" /><dc:title></dc:title></cc:Work></rdf:RDF></metadata><defs
     id="defs5660" /><g
     transform="matrix(1.25,0,0,-1.25,0,32.35)"
     id="g5664"><g
       transform="scale(0.1,0.1)"
       id="g5666"><path
         id="path5668"
         style="fill:#231f20;fill-opacity:1;fill-rule:nonzero;stroke:none"
         d="m 939.086,252.516 14.273,0 26.157,-33.582 0.144,0 0,33.582 14.278,0 0,-54.926 -14.278,0 -26.152,33.656 -0.149,0 0,-33.656 -14.273,0 0,54.926" /><path
         id="path5670"
         style="fill:#231f20;fill-opacity:1;fill-rule:nonzero;stroke:none"
         d="m 1013.98,216.238 c 0,-4.734 3.13,-8.371 8.52,-8.371 5.39,0 8.52,3.637 8.52,8.371 0,4.59 -3.13,8.453 -8.52,8.453 -5.39,0 -8.52,-3.863 -8.52,-8.453 z m 29.87,-18.648 -13.26,0 0,4.156 -0.15,0 c -2.33,-3.719 -6.91,-5.394 -11.29,-5.394 -11.07,0 -18.87,9.246 -18.87,19.964 0,10.711 7.65,19.883 18.72,19.883 4.3,0 8.82,-1.601 11.59,-4.879 l 0,3.641 13.26,0 0,-37.371" /><path
         id="path5672"
         style="fill:#231f20;fill-opacity:1;fill-rule:nonzero;stroke:none"
         d="m 1067.15,197.59 -13.25,0 0,26.445 -4.3,0 0,10.926 4.3,0 0,11.223 13.25,0 0,-11.223 7.51,0 0,-10.926 -7.51,0 0,-26.445" /><path
         id="path5674"
         style="fill:#231f20;fill-opacity:1;fill-rule:nonzero;stroke:none"
         d="m 1092.14,197.59 -13.25,0 0,37.371 13.25,0 0,-37.371 z m 0.8,51.723 c 0,-4.079 -3.35,-7.43 -7.43,-7.43 -4.08,0 -7.43,3.351 -7.43,7.43 0,4.082 3.35,7.429 7.43,7.429 4.08,0 7.43,-3.347 7.43,-7.429" /><path
         id="path5676"
         style="fill:#231f20;fill-opacity:1;fill-rule:nonzero;stroke:none"
         d="m 1112.1,216.238 c 0,-4.734 3.13,-8.371 8.52,-8.371 5.4,0 8.53,3.637 8.53,8.371 0,4.59 -3.13,8.453 -8.53,8.453 -5.39,0 -8.52,-3.863 -8.52,-8.453 z m 31.03,0 c 0,-12.672 -10.49,-19.886 -22.51,-19.886 -11.94,0 -22.51,7.144 -22.51,19.886 0,12.746 10.49,19.961 22.51,19.961 12.02,0 22.51,-7.215 22.51,-19.961" /><path
         id="path5678"
         style="fill:#231f20;fill-opacity:1;fill-rule:nonzero;stroke:none"
         d="m 1162.37,230.152 0.14,0 c 3.06,4.52 6.78,6.047 11.95,6.047 10.05,0 14.06,-6.336 14.06,-15.508 l 0,-23.101 -13.26,0 0,18.215 c 0,3.57 0.59,9.832 -5.97,9.832 -5.39,0 -6.92,-4.004 -6.92,-8.668 l 0,-19.379 -13.26,0 0,37.371 13.26,0 0,-4.809" /><path
         id="path5680"
         style="fill:#231f20;fill-opacity:1;fill-rule:nonzero;stroke:none"
         d="m 1208.26,216.238 c 0,-4.734 3.14,-8.371 8.53,-8.371 5.38,0 8.52,3.637 8.52,8.371 0,4.59 -3.14,8.453 -8.52,8.453 -5.39,0 -8.53,-3.863 -8.53,-8.453 z m 29.87,-18.648 -13.26,0 0,4.156 -0.15,0 c -2.32,-3.719 -6.91,-5.394 -11.29,-5.394 -11.07,0 -18.86,9.246 -18.86,19.964 0,10.711 7.64,19.883 18.72,19.883 4.3,0 8.81,-1.601 11.58,-4.879 l 0,3.641 13.26,0 0,-37.371" /><path
         id="path5682"
         style="fill:#231f20;fill-opacity:1;fill-rule:nonzero;stroke:none"
         d="m 1246.94,197.59 13.2695,0 0,60.4688 -13.2695,0 0,-60.4688 z" /><path
         id="path5684"
         style="fill:#231f20;fill-opacity:1;fill-rule:nonzero;stroke:none"
         d="m 1294.22,197.59 14.2813,0 0,54.9258 -14.2813,0 0,-54.9258 z" /><path
         id="path5686"
         style="fill:#231f20;fill-opacity:1;fill-rule:nonzero;stroke:none"
         d="m 1330.79,230.152 0.15,0 c 3.06,4.52 6.77,6.047 11.95,6.047 10.05,0 14.05,-6.336 14.05,-15.508 l 0,-23.101 -13.26,0 0,18.215 c 0,3.57 0.59,9.832 -5.97,9.832 -5.39,0 -6.92,-4.004 -6.92,-8.668 l 0,-19.379 -13.26,0 0,37.371 13.26,0 0,-4.809" /><path
         id="path5688"
         style="fill:#231f20;fill-opacity:1;fill-rule:nonzero;stroke:none"
         d="m 1390.39,225.34 c -2.05,1.101 -4.88,1.828 -7.15,1.828 -1.53,0 -4.15,-0.648 -4.15,-2.555 0,-2.55 4.15,-2.902 5.98,-3.273 6.19,-1.238 10.85,-4.156 10.85,-11.07 0,-9.836 -8.96,-13.918 -17.63,-13.918 -5.32,0 -10.57,1.535 -15.08,4.3 l 4.81,9.246 c 2.69,-1.89 7.21,-3.793 10.49,-3.793 1.68,0 4.15,0.805 4.15,2.848 0,2.914 -4.15,3.063 -8.3,4.16 -4.16,1.082 -8.31,3.125 -8.31,9.832 0,9.176 8.31,13.254 16.46,13.254 4.23,0 8.45,-0.656 12.32,-2.406 l -4.44,-8.453" /><path
         id="path5690"
         style="fill:#231f20;fill-opacity:1;fill-rule:nonzero;stroke:none"
         d="m 1417.55,197.59 -13.25,0 0,26.445 -4.3,0 0,10.926 4.3,0 0,11.223 13.25,0 0,-11.223 7.51,0 0,-10.926 -7.51,0 0,-26.445" /><path
         id="path5692"
         style="fill:#231f20;fill-opacity:1;fill-rule:nonzero;stroke:none"
         d="m 1442.54,197.59 -13.26,0 0,37.371 13.26,0 0,-37.371 z m 0.8,51.723 c 0,-4.079 -3.35,-7.43 -7.43,-7.43 -4.08,0 -7.43,3.351 -7.43,7.43 0,4.082 3.35,7.429 7.43,7.429 4.08,0 7.43,-3.347 7.43,-7.429" /><path
         id="path5694"
         style="fill:#231f20;fill-opacity:1;fill-rule:nonzero;stroke:none"
         d="m 1465.77,197.59 -13.25,0 0,26.445 -4.3,0 0,10.926 4.3,0 0,11.223 13.25,0 0,-11.223 7.51,0 0,-10.926 -7.51,0 0,-26.445" /><path
         id="path5696"
         style="fill:#231f20;fill-opacity:1;fill-rule:nonzero;stroke:none"
         d="m 1490.54,234.961 0,-19.961 c 0,-4.73 1.17,-8.09 6.63,-8.09 5.48,0 6.64,3.36 6.64,8.09 l 0,19.961 13.25,0 0,-22.52 c 0,-12.3 -8.67,-16.089 -19.89,-16.089 -11.21,0 -19.88,3.789 -19.88,16.089 l 0,22.52 13.25,0" /><path
         id="path5698"
         style="fill:#231f20;fill-opacity:1;fill-rule:nonzero;stroke:none"
         d="m 1540.01,197.59 -13.26,0 0,26.445 -4.29,0 0,10.926 4.29,0 0,11.223 13.26,0 0,-11.223 7.51,0 0,-10.926 -7.51,0 0,-26.445" /><path
         id="path5700"
         style="fill:#231f20;fill-opacity:1;fill-rule:nonzero;stroke:none"
         d="m 1577.82,221.711 c -0.66,3.562 -3.93,5.887 -7.5,5.887 -3.87,0 -7.07,-2.032 -7.87,-5.887 l 15.37,0 z m 12.31,-7.656 -27.89,0 c 0,-5.395 2.83,-8.297 8.3,-8.297 2.83,0 4.87,0.941 6.34,3.414 l 12.74,0 c -2.11,-8.813 -10.49,-12.82 -19.02,-12.82 -12.38,0 -21.64,6.992 -21.64,19.886 0,12.457 8.53,19.961 20.7,19.961 12.97,0 20.47,-8.011 20.47,-20.758 l 0,-1.386" /><path
         id="path5702"
         style="fill:#231f20;fill-opacity:1;fill-rule:nonzero;stroke:none"
         d="m 1632.38,216.238 c 0,-4.734 3.13,-8.371 8.52,-8.371 5.4,0 8.53,3.637 8.53,8.371 0,4.59 -3.13,8.453 -8.53,8.453 -5.39,0 -8.52,-3.863 -8.52,-8.453 z m 31.03,0 c 0,-12.672 -10.49,-19.886 -22.51,-19.886 -11.94,0 -22.51,7.144 -22.51,19.886 0,12.746 10.49,19.961 22.51,19.961 12.02,0 22.51,-7.215 22.51,-19.961" /><path
         id="path5704"
         style="fill:#231f20;fill-opacity:1;fill-rule:nonzero;stroke:none"
         d="m 1683.96,197.59 -13.25,0 0,26.445 -4.68,0 0,10.926 4.68,0 0,4.738 c 0,5.168 0.13,8.953 3.78,13.114 3.28,3.863 8.01,5.968 13.04,5.968 2.03,0 3.86,-0.363 5.68,-1.308 l 0,-11.438 c -1.52,0.656 -2.91,1.235 -4.67,1.235 -3.41,0 -4.58,-2.036 -4.58,-6.262 l 0,-6.047 9.25,0 0,-10.926 -9.25,0 0,-26.445" /><path
         id="path5706"
         style="fill:#231f20;fill-opacity:1;fill-rule:nonzero;stroke:none"
         d="m 969.246,150.469 c -2.629,2.179 -5.973,3.629 -9.465,3.629 -2.629,0 -6.125,-1.532 -6.125,-4.582 0,-3.207 3.856,-4.442 6.34,-5.246 l 3.641,-1.094 c 7.652,-2.254 13.551,-6.11 13.551,-15.004 0,-5.461 -1.317,-11.074 -5.68,-14.793 -4.297,-3.629 -10.059,-5.164 -15.594,-5.164 -6.918,0 -13.695,2.328 -19.301,6.262 l 6.114,11.511 c 3.57,-3.133 7.8,-5.683 12.675,-5.683 3.356,0 6.918,1.668 6.918,5.535 0,4 -5.601,5.394 -8.664,6.262 -8.957,2.55 -14.863,4.882 -14.863,15.523 0,11.145 7.945,18.422 18.945,18.422 5.535,0 12.305,-1.742 17.196,-4.512 l -5.688,-11.066" /><path
         id="path5708"
         style="fill:#231f20;fill-opacity:1;fill-rule:nonzero;stroke:none"
         d="m 998.168,109.664 -13.258,0 0,26.453 -4.297,0 0,10.918 4.297,0 0,11.231 13.258,0 0,-11.231 7.502,0 0,-10.918 -7.502,0 0,-26.453" /><path
         id="path5710"
         style="fill:#231f20;fill-opacity:1;fill-rule:nonzero;stroke:none"
         d="m 1020.9,128.313 c 0,-4.727 3.12,-8.372 8.52,-8.372 5.39,0 8.52,3.645 8.52,8.372 0,4.589 -3.13,8.457 -8.52,8.457 -5.4,0 -8.52,-3.868 -8.52,-8.457 z m 29.86,-18.649 -13.25,0 0,4.156 -0.15,0 c -2.34,-3.718 -6.92,-5.386 -11.29,-5.386 -11.07,0 -18.88,9.238 -18.88,19.957 0,10.714 7.66,19.879 18.73,19.879 4.3,0 8.82,-1.59 11.59,-4.868 l 0,3.633 13.25,0 0,-37.371" /><path
         id="path5712"
         style="fill:#231f20;fill-opacity:1;fill-rule:nonzero;stroke:none"
         d="m 1072.83,142.227 0.15,0 c 3.06,4.523 6.78,6.043 11.95,6.043 10.05,0 14.06,-6.325 14.06,-15.5 l 0,-23.106 -13.26,0 0,18.215 c 0,3.57 0.59,9.836 -5.97,9.836 -5.4,0 -6.93,-4.008 -6.93,-8.668 l 0,-19.383 -13.25,0 0,37.371 13.25,0 0,-4.808" /><path
         id="path5714"
         style="fill:#231f20;fill-opacity:1;fill-rule:nonzero;stroke:none"
         d="m 1119.24,128.313 c 0,-4.727 3.14,-8.372 8.53,-8.372 5.38,0 8.52,3.645 8.52,8.372 0,4.589 -3.14,8.457 -8.52,8.457 -5.39,0 -8.53,-3.868 -8.53,-8.457 z m 16.61,-14.493 -0.15,0 c -2.32,-3.718 -6.92,-5.386 -11.28,-5.386 -11.08,0 -18.87,9.238 -18.87,19.957 0,10.714 7.64,19.879 18.72,19.879 4.3,0 8.81,-1.59 11.58,-4.868 l 0,26.735 13.26,0 0,-60.473 -13.26,0 0,4.156" /><path
         id="path5716"
         style="fill:#231f20;fill-opacity:1;fill-rule:nonzero;stroke:none"
         d="m 1168.42,128.313 c 0,-4.727 3.13,-8.372 8.52,-8.372 5.39,0 8.52,3.645 8.52,8.372 0,4.589 -3.13,8.457 -8.52,8.457 -5.39,0 -8.52,-3.868 -8.52,-8.457 z m 29.86,-18.649 -13.26,0 0,4.156 -0.14,0 c -2.33,-3.718 -6.92,-5.386 -11.29,-5.386 -11.08,0 -18.87,9.238 -18.87,19.957 0,10.714 7.65,19.879 18.72,19.879 4.3,0 8.82,-1.59 11.58,-4.868 l 0,3.633 13.26,0 0,-37.371" /><path
         id="path5718"
         style="fill:#231f20;fill-opacity:1;fill-rule:nonzero;stroke:none"
         d="m 1220.36,140.922 0.15,0 c 2.54,4.582 6.91,6.621 12.08,6.621 l 2.56,0 0,-12.738 c -1.83,1.015 -3.58,1.242 -5.62,1.242 -7.36,0 -9.17,-4.891 -9.17,-11.301 l 0,-15.082 -13.26,0 0,37.371 13.26,0 0,-6.113" /><path
         id="path5720"
         style="fill:#231f20;fill-opacity:1;fill-rule:nonzero;stroke:none"
         d="m 1251.61,128.313 c 0,-4.727 3.13,-8.372 8.52,-8.372 5.4,0 8.53,3.645 8.53,8.372 0,4.589 -3.13,8.457 -8.53,8.457 -5.39,0 -8.52,-3.868 -8.52,-8.457 z m 16.6,-14.493 -0.14,0 c -2.33,-3.718 -6.92,-5.386 -11.29,-5.386 -11.08,0 -18.87,9.238 -18.87,19.957 0,10.714 7.65,19.879 18.73,19.879 4.29,0 8.81,-1.59 11.57,-4.868 l 0,26.735 13.26,0 0,-60.473 -13.26,0 0,4.156" /><path
         id="path5722"
         style="fill:#231f20;fill-opacity:1;fill-rule:nonzero;stroke:none"
         d="m 1314.47,137.422 c -2.03,1.098 -4.88,1.82 -7.13,1.82 -1.53,0 -4.15,-0.644 -4.15,-2.551 0,-2.55 4.15,-2.902 5.96,-3.277 6.2,-1.234 10.87,-4.148 10.87,-11.07 0,-9.828 -8.97,-13.91 -17.64,-13.91 -5.32,0 -10.56,1.527 -15.08,4.293 l 4.81,9.246 c 2.7,-1.883 7.21,-3.789 10.49,-3.789 1.68,0 4.15,0.804 4.15,2.843 0,2.914 -4.15,3.071 -8.3,4.161 -4.15,1.082 -8.3,3.125 -8.3,9.835 0,9.176 8.3,13.247 16.46,13.247 4.22,0 8.45,-0.645 12.31,-2.395 l -4.45,-8.453" /><path
         id="path5724"
         style="fill:#231f20;fill-opacity:1;fill-rule:nonzero;stroke:none"
         d="m 1363.13,128.313 c 0,-4.727 3.14,-8.372 8.53,-8.372 5.39,0 8.53,3.645 8.53,8.372 0,4.589 -3.14,8.457 -8.53,8.457 -5.39,0 -8.53,-3.868 -8.53,-8.457 z m 29.88,-18.649 -13.26,0 0,4.156 -0.15,0 c -2.32,-3.718 -6.92,-5.386 -11.28,-5.386 -11.08,0 -18.88,9.238 -18.88,19.957 0,10.714 7.65,19.879 18.73,19.879 4.3,0 8.81,-1.59 11.58,-4.868 l 0,3.633 13.26,0 0,-37.371" /><path
         id="path5726"
         style="fill:#231f20;fill-opacity:1;fill-rule:nonzero;stroke:none"
         d="m 1415.08,142.227 0.15,0 c 3.05,4.523 6.77,6.043 11.94,6.043 10.06,0 14.06,-6.325 14.06,-15.5 l 0,-23.106 -13.25,0 0,18.215 c 0,3.57 0.57,9.836 -5.98,9.836 -5.39,0 -6.92,-4.008 -6.92,-8.668 l 0,-19.383 -13.27,0 0,37.371 13.27,0 0,-4.808" /><path
         id="path5728"
         style="fill:#231f20;fill-opacity:1;fill-rule:nonzero;stroke:none"
         d="m 1461.48,128.313 c 0,-4.727 3.14,-8.372 8.52,-8.372 5.4,0 8.53,3.645 8.53,8.372 0,4.589 -3.13,8.457 -8.53,8.457 -5.38,0 -8.52,-3.868 -8.52,-8.457 z m 16.61,-14.493 -0.14,0 c -2.34,-3.718 -6.92,-5.386 -11.3,-5.386 -11.07,0 -18.87,9.238 -18.87,19.957 0,10.714 7.66,19.879 18.73,19.879 4.3,0 8.81,-1.59 11.58,-4.868 l 0,26.735 13.27,0 0,-60.473 -13.27,0 0,4.156" /><path
         id="path5730"
         style="fill:#231f20;fill-opacity:1;fill-rule:nonzero;stroke:none"
         d="m 1546.79,109.664 -14.28,0 0,42.848 -11.81,0 0,12.093 37.89,0 0,-12.093 -11.8,0 0,-42.848" /><path
         id="path5732"
         style="fill:#231f20;fill-opacity:1;fill-rule:nonzero;stroke:none"
         d="m 1584.16,133.789 c -0.65,3.563 -3.93,5.887 -7.5,5.887 -3.87,0 -7.07,-2.031 -7.87,-5.887 l 15.37,0 z m 12.31,-7.656 -27.9,0 c 0,-5.399 2.84,-8.301 8.31,-8.301 2.84,0 4.88,0.941 6.34,3.414 l 12.74,0 c -2.11,-8.812 -10.49,-12.812 -19.01,-12.812 -12.39,0 -21.64,6.984 -21.64,19.879 0,12.46 8.52,19.957 20.69,19.957 12.97,0 20.47,-8.004 20.47,-20.754 l 0,-1.383" /><path
         id="path5734"
         style="fill:#231f20;fill-opacity:1;fill-rule:nonzero;stroke:none"
         d="m 1629.47,134.871 c -1.96,1.457 -4.29,2.625 -6.85,2.625 -5.09,0 -9.1,-3.937 -9.1,-9.105 0,-5.395 3.86,-9.184 9.33,-9.184 2.33,0 4.87,0.953 6.62,2.551 l 0,-11.215 c -2.91,-1.465 -6.11,-2.109 -9.32,-2.109 -11.08,0 -20.32,8.222 -20.32,19.527 0,12.008 9.17,20.309 20.9,20.309 3.06,0 6.12,-0.727 8.74,-2.18 l 0,-11.219" /><path
         id="path5736"
         style="fill:#231f20;fill-opacity:1;fill-rule:nonzero;stroke:none"
         d="m 1650.96,170.137 0,-27.836 0.15,0 c 3.06,4.086 6.77,5.969 11.94,5.969 9.48,0 14.06,-6.262 14.06,-15.727 l 0,-22.879 -13.25,0 0,19.16 c 0,4.379 -0.66,8.891 -5.98,8.891 -5.24,0 -6.92,-4.512 -6.92,-8.891 l 0,-19.16 -13.25,0 0,60.473 13.25,0" /><path
         id="path5738"
         style="fill:#231f20;fill-opacity:1;fill-rule:nonzero;stroke:none"
         d="m 1699.11,142.227 0.15,0 c 3.06,4.523 6.78,6.043 11.95,6.043 10.05,0 14.06,-6.325 14.06,-15.5 l 0,-23.106 -13.26,0 0,18.215 c 0,3.57 0.59,9.836 -5.97,9.836 -5.39,0 -6.93,-4.008 -6.93,-8.668 l 0,-19.383 -13.25,0 0,37.371 13.25,0 0,-4.808" /><path
         id="path5740"
         style="fill:#231f20;fill-opacity:1;fill-rule:nonzero;stroke:none"
         d="m 1745.23,128.313 c 0,-4.727 3.13,-8.372 8.52,-8.372 5.4,0 8.52,3.645 8.52,8.372 0,4.589 -3.12,8.457 -8.52,8.457 -5.39,0 -8.52,-3.868 -8.52,-8.457 z m 31.03,0 c 0,-12.672 -10.49,-19.879 -22.51,-19.879 -11.94,0 -22.51,7.144 -22.51,19.879 0,12.753 10.49,19.957 22.51,19.957 12.02,0 22.51,-7.204 22.51,-19.957" /><path
         id="path5742"
         style="fill:#231f20;fill-opacity:1;fill-rule:nonzero;stroke:none"
         d="m 1782.24,109.664 13.25,0 0,60.4727 -13.25,0 0,-60.4727 z" /><path
         id="path5744"
         style="fill:#231f20;fill-opacity:1;fill-rule:nonzero;stroke:none"
         d="m 1815.46,128.313 c 0,-4.727 3.13,-8.372 8.52,-8.372 5.39,0 8.53,3.645 8.53,8.372 0,4.589 -3.14,8.457 -8.53,8.457 -5.39,0 -8.52,-3.868 -8.52,-8.457 z m 31.03,0 c 0,-12.672 -10.48,-19.879 -22.51,-19.879 -11.95,0 -22.51,7.144 -22.51,19.879 0,12.753 10.5,19.957 22.51,19.957 12.03,0 22.51,-7.204 22.51,-19.957" /><path
         id="path5746"
         style="fill:#231f20;fill-opacity:1;fill-rule:nonzero;stroke:none"
         d="m 1863.6,128.605 c 0,-4.726 3.14,-8.375 8.54,-8.375 5.38,0 8.52,3.649 8.52,8.375 0,4.598 -3.14,8.461 -8.52,8.461 -5.4,0 -8.54,-3.863 -8.54,-8.461 z m 29.88,-15.296 c 0,-15.8793 -7.87,-22.2817 -21.64,-22.2817 -8.6,0 -20.11,4.4336 -21.28,14.2617 l 14.87,0 c 0.37,-1.305 1.31,-2.258 2.48,-2.832 1.16,-0.582 2.54,-0.875 3.78,-0.875 7.14,0 8.53,4.66 8.53,10.719 l 0,1.742 c -3.43,-3.43 -6.92,-5.098 -11.88,-5.098 -10.93,0 -18.43,8.301 -18.43,19.078 0,10.922 7.73,20.247 19.16,20.247 4.38,0 8.38,-1.45 11.01,-5.165 l 0.14,0 0,3.93 13.26,0 0,-33.726" /><path
         id="path5748"
         style="fill:#231f20;fill-opacity:1;fill-rule:nonzero;stroke:none"
         d="m 1896.32,147.035 15.3,0 9.98,-19.156 9.76,19.156 15.07,0 -29.93,-56.0077 -14.86,0 12.75,23.7457 -18.07,32.262" /><path
         id="path5750"
         style="fill:#231f20;fill-opacity:1;fill-rule:nonzero;stroke:none"
         d="m 945.938,41.4492 c 0,-4.0859 -0.153,-8.7304 2.402,-12.2383 2.402,-3.3437 7.062,-5.2461 11.066,-5.2461 3.938,0 8.235,1.8204 10.785,4.8868 2.914,3.4922 2.7,8.3007 2.7,12.5976 l 0,32.7188 6.113,0 0,-34.3867 c 0,-5.9766 -0.434,-10.7188 -4.809,-15.2305 -3.789,-4.082 -9.246,-6.2617 -14.789,-6.2617 -5.168,0 -10.488,1.9609 -14.199,5.6054 -4.809,4.5938 -5.394,9.6172 -5.394,15.8868 l 0,34.3867 6.125,0 0,-32.7188" /><path
         id="path5752"
         style="fill:#231f20;fill-opacity:1;fill-rule:nonzero;stroke:none"
         d="m 999.617,22.4297 c 0,-2.2539 -1.812,-4.1406 -4.07,-4.1406 -2.254,0 -4.082,1.8867 -4.082,4.1406 0,2.1992 1.828,4.0156 4.082,4.0156 2.258,0 4.07,-1.8164 4.07,-4.0156" /><path
         id="path5754"
         style="fill:#231f20;fill-opacity:1;fill-rule:nonzero;stroke:none"
         d="m 1037.21,63.4492 c -2.19,3.7891 -4.81,5.9766 -9.47,5.9766 -4.87,0 -9.1,-3.4961 -9.1,-8.5235 0,-4.7382 4.89,-6.9218 8.59,-8.6015 l 3.64,-1.5977 c 7.15,-3.1328 13.19,-6.707 13.19,-15.4336 0,-9.6172 -7.72,-16.9804 -17.26,-16.9804 -8.82,0 -15.38,5.6757 -17.12,14.1992 l 5.98,1.6836 c 0.79,-5.6172 5.09,-10.2071 10.99,-10.2071 5.9,0 11.29,4.5235 11.29,10.7149 0,6.4062 -5.02,8.5976 -10.12,10.9297 l -3.36,1.4492 c -6.4,2.9219 -11.95,6.1953 -11.95,14.0664 0,8.5234 7.22,13.9805 15.38,13.9805 6.12,0 11.29,-3.1289 14.21,-8.5157 l -4.89,-3.1406" /><path
         id="path5756"
         style="fill:#231f20;fill-opacity:1;fill-rule:nonzero;stroke:none"
         d="m 1062.78,22.4297 c 0,-2.2539 -1.82,-4.1406 -4.08,-4.1406 -2.25,0 -4.08,1.8867 -4.08,4.1406 0,2.1992 1.83,4.0156 4.08,4.0156 2.26,0 4.08,-1.8164 4.08,-4.0156" /><path
         id="path5758"
         style="fill:#231f20;fill-opacity:1;fill-rule:nonzero;stroke:none"
         d="m 1108.46,24.9141 c 6.71,0 12.31,0.9531 17.34,5.6836 4.51,4.2187 6.85,9.9765 6.85,16.1015 0,6.2696 -2.4,12.3164 -7.14,16.4571 -5.03,4.4531 -10.56,5.3164 -17.05,5.3164 l -4.44,0 0,-43.5586 4.44,0 z m -10.57,49.2539 10.36,0 c 8.22,0 14.92,-1.1016 21.41,-6.6328 6.27,-5.4024 9.11,-12.75 9.11,-20.9024 0,-8.0234 -2.92,-15.0976 -8.96,-20.4726 -6.56,-5.8243 -13.11,-6.9258 -21.71,-6.9258 l -10.21,0 0,54.9336" /><path
         id="path5760"
         style="fill:#231f20;fill-opacity:1;fill-rule:nonzero;stroke:none"
         d="m 1170.97,40.0664 c -0.8,4.9531 -4.96,8.9609 -10.06,8.9609 -5.02,0 -9.68,-4.0078 -10.42,-8.9609 l 20.48,0 z m -20.76,-4.957 c 0.07,-6.3399 4.58,-11.4336 11.21,-11.4336 4.96,0 8.16,2.9844 10.42,7.0664 l 4.95,-2.8359 c -3.28,-6.1211 -8.81,-9.6172 -15.81,-9.6172 -10.19,0 -16.75,7.789 -16.75,17.625 0,10.1289 5.9,18.5078 16.62,18.5078 10.99,0 16.82,-9.1055 16.23,-19.3125 l -26.87,0" /><path
         id="path5762"
         style="fill:#231f20;fill-opacity:1;fill-rule:nonzero;stroke:none"
         d="m 1190.34,36.7188 c 0,-6.7032 3.94,-13.043 11.23,-13.043 7.49,0 11.43,6.0469 11.43,12.9687 0,6.8477 -4.3,12.3828 -11.51,12.3828 -6.77,0 -11.15,-5.8984 -11.15,-12.3085 z m 0.29,11.875 0.15,0 c 2.84,3.789 7.07,5.8281 11.81,5.8281 10.05,0 16.39,-8.6719 16.39,-18.1446 0,-9.7617 -6.2,-17.9882 -16.47,-17.9882 -4.66,0 -8.96,2.0468 -11.73,5.75 l -0.15,0 0,-24.0391 -5.82,0 0,53.4805 5.82,0 0,-4.8867" /><path
         id="path5764"
         style="fill:#231f20;fill-opacity:1;fill-rule:nonzero;stroke:none"
         d="m 1230.19,36.7188 c 0,-6.7032 3.93,-13.043 11.22,-13.043 7.5,0 11.44,6.0469 11.44,12.9687 0,6.8477 -4.3,12.3828 -11.51,12.3828 -6.77,0 -11.15,-5.8984 -11.15,-12.3085 z m 28.19,-17.4844 -5.83,0 0,4.7304 -0.14,0 c -2.99,-3.789 -6.99,-5.6757 -11.8,-5.6757 -10.06,0 -16.39,8.5195 -16.39,17.9882 0,9.7657 6.19,18.1446 16.46,18.1446 4.66,0 8.89,-2.1875 11.73,-5.8281 l 0.14,0 0,4.8867 5.83,0 0,-34.2461" /><path
         id="path5766"
         style="fill:#231f20;fill-opacity:1;fill-rule:nonzero;stroke:none"
         d="m 1274.7,49.75 0.15,0 c 2.04,2.7109 3.79,4.6719 7.57,4.6719 1.98,0 3.58,-0.6602 5.25,-1.6094 l -2.76,-5.3203 c -1.17,0.8086 -1.98,1.5351 -3.51,1.5351 -6.4,0 -6.7,-8.2226 -6.7,-12.6796 l 0,-17.1133 -5.83,0 0,34.2461 5.83,0 0,-3.7305" /><path
         id="path5768"
         style="fill:#231f20;fill-opacity:1;fill-rule:nonzero;stroke:none"
         d="m 1301.15,19.2344 -5.83,0 0,28.8476 -3.57,0 0,5.3985 3.57,0 0,12.3008 5.83,0 0,-12.3008 6.12,0 0,-5.3985 -6.12,0 0,-28.8476" /><path
         id="path5770"
         style="fill:#231f20;fill-opacity:1;fill-rule:nonzero;stroke:none"
         d="m 1318.34,49.75 0.15,0 c 1.81,2.8516 4.73,4.6719 8.23,4.6719 4,0 7.64,-2.1211 9.47,-5.6875 2.04,3.7929 6.11,5.6875 10.27,5.6875 8.74,0 10.92,-7.1446 10.92,-14.3555 l 0,-20.832 -5.83,0 0,19.8867 c 0,4.4492 -0.28,9.9062 -6.26,9.9062 -6.7,0 -7.42,-6.4804 -7.42,-11.664 l 0,-18.1289 -5.83,0 0,19.4453 c 0,4.2305 -0.51,10.3476 -6.13,10.3476 -6.84,0 -7.57,-6.9218 -7.57,-12.0898 l 0,-17.7031 -5.83,0 0,34.2461 5.83,0 0,-3.7305" /><path
         id="path5772"
         style="fill:#231f20;fill-opacity:1;fill-rule:nonzero;stroke:none"
         d="m 1392.13,40.0664 c -0.8,4.9531 -4.95,8.9609 -10.05,8.9609 -5.02,0 -9.69,-4.0078 -10.42,-8.9609 l 20.47,0 z m -20.75,-4.957 c 0.06,-6.3399 4.58,-11.4336 11.21,-11.4336 4.96,0 8.16,2.9844 10.42,7.0664 l 4.95,-2.8359 c -3.28,-6.1211 -8.81,-9.6172 -15.81,-9.6172 -10.19,0 -16.75,7.789 -16.75,17.625 0,10.1289 5.9,18.5078 16.6,18.5078 11.01,0 16.83,-9.1055 16.25,-19.3125 l -26.87,0" /><path
         id="path5774"
         style="fill:#231f20;fill-opacity:1;fill-rule:nonzero;stroke:none"
         d="m 1412.1,49.3203 0.14,0 c 2.4,3.2813 5.54,5.1016 9.76,5.1016 9.47,0 11.66,-6.8516 11.66,-14.8594 l 0,-20.3281 -5.83,0 0,19.3125 c 0,5.5351 -0.43,10.4804 -7.21,10.4804 -8.02,0 -8.52,-7.4335 -8.52,-13.5429 l 0,-16.25 -5.83,0 0,34.2461 5.83,0 0,-4.1602" /><path
         id="path5776"
         style="fill:#231f20;fill-opacity:1;fill-rule:nonzero;stroke:none"
         d="m 1450.85,19.2344 -5.83,0 0,28.8476 -3.58,0 0,5.3985 3.58,0 0,12.3008 5.83,0 0,-12.3008 6.12,0 0,-5.3985 -6.12,0 0,-28.8476" /><path
         id="path5778"
         style="fill:#231f20;fill-opacity:1;fill-rule:nonzero;stroke:none"
         d="m 1487.42,36.3477 c 0,-6.9883 4.96,-12.6719 12.17,-12.6719 7.21,0 12.16,5.6836 12.16,12.6719 0,6.9296 -4.95,12.6796 -12.16,12.6796 -7.21,0 -12.17,-5.75 -12.17,-12.6796 z m -5.82,-0.0704 c 0,10.0586 7.93,18.1446 17.99,18.1446 10.05,0 17.98,-8.086 17.98,-18.1446 0,-10.0585 -8,-17.9882 -17.98,-17.9882 -9.98,0 -17.99,7.9297 -17.99,17.9882" /><path
         id="path5780"
         style="fill:#231f20;fill-opacity:1;fill-rule:nonzero;stroke:none"
         d="m 1531.93,19.2344 -5.83,0 0,28.8476 -3.2,0 0,5.3985 3.2,0 0,13.6211 c 0,2.8359 0,6.4062 1.53,8.8867 1.9,3.0547 5.32,4.3008 8.82,4.3008 1.38,0 2.76,-0.293 4.15,-0.7344 l 0,-5.8984 c -1.31,0.4296 -2.48,0.8046 -3.94,0.8046 -4.73,0 -4.73,-3.3554 -4.73,-9.3984 l 0,-11.582 8.67,0 0,-5.3985 -8.67,0 0,-28.8476" /><path
         id="path5782"
         style="fill:#231f20;fill-opacity:1;fill-rule:nonzero;stroke:none"
         d="m 1609.88,62.1328 c -4.37,4.5274 -10.42,7.293 -16.76,7.293 -12.23,0 -22.14,-10.6406 -22.14,-22.7266 0,-12.1015 9.97,-22.7344 22.29,-22.7344 6.19,0 12.24,2.9219 16.61,7.293 l 0,-7.582 c -4.73,-3.4258 -10.56,-5.3867 -16.39,-5.3867 -15.51,0 -28.63,12.6015 -28.63,28.1836 0,15.7382 12.89,28.6328 28.63,28.6328 6.12,0 11.5,-1.7422 16.39,-5.3867 l 0,-7.586" /><path
         id="path5784"
         style="fill:#231f20;fill-opacity:1;fill-rule:nonzero;stroke:none"
         d="m 1623,36.3477 c 0,-6.9883 4.95,-12.6719 12.16,-12.6719 7.2,0 12.16,5.6836 12.16,12.6719 0,6.9296 -4.96,12.6796 -12.16,12.6796 -7.21,0 -12.16,-5.75 -12.16,-12.6796 z m -5.83,-0.0704 c 0,10.0586 7.93,18.1446 17.99,18.1446 10.05,0 17.99,-8.086 17.99,-18.1446 0,-10.0585 -8.01,-17.9882 -17.99,-17.9882 -9.98,0 -17.99,7.9297 -17.99,17.9882" /><path
         id="path5786"
         style="fill:#231f20;fill-opacity:1;fill-rule:nonzero;stroke:none"
         d="m 1666.99,49.75 0.15,0 c 1.82,2.8516 4.73,4.6719 8.24,4.6719 4,0 7.64,-2.1211 9.46,-5.6875 2.05,3.7929 6.12,5.6875 10.27,5.6875 8.74,0 10.93,-7.1446 10.93,-14.3555 l 0,-20.832 -5.83,0 0,19.8867 c 0,4.4492 -0.29,9.9062 -6.26,9.9062 -6.7,0 -7.44,-6.4804 -7.44,-11.664 l 0,-18.1289 -5.83,0 0,19.4453 c 0,4.2305 -0.51,10.3476 -6.11,10.3476 -6.85,0 -7.58,-6.9218 -7.58,-12.0898 l 0,-17.7031 -5.82,0 0,34.2461 5.82,0 0,-3.7305" /><path
         id="path5788"
         style="fill:#231f20;fill-opacity:1;fill-rule:nonzero;stroke:none"
         d="m 1722.94,49.75 0.14,0 c 1.83,2.8516 4.74,4.6719 8.24,4.6719 4,0 7.65,-2.1211 9.47,-5.6875 2.04,3.7929 6.12,5.6875 10.27,5.6875 8.74,0 10.93,-7.1446 10.93,-14.3555 l 0,-20.832 -5.82,0 0,19.8867 c 0,4.4492 -0.3,9.9062 -6.27,9.9062 -6.71,0 -7.44,-6.4804 -7.44,-11.664 l 0,-18.1289 -5.82,0 0,19.4453 c 0,4.2305 -0.51,10.3476 -6.13,10.3476 -6.83,0 -7.57,-6.9218 -7.57,-12.0898 l 0,-17.7031 -5.83,0 0,34.2461 5.83,0 0,-3.7305" /><path
         id="path5790"
         style="fill:#231f20;fill-opacity:1;fill-rule:nonzero;stroke:none"
         d="m 1796.74,40.0664 c -0.81,4.9531 -4.95,8.9609 -10.06,8.9609 -5.02,0 -9.68,-4.0078 -10.41,-8.9609 l 20.47,0 z m -20.76,-4.957 c 0.07,-6.3399 4.59,-11.4336 11.21,-11.4336 4.96,0 8.17,2.9844 10.42,7.0664 l 4.96,-2.8359 c -3.28,-6.1211 -8.82,-9.6172 -15.81,-9.6172 -10.2,0 -16.76,7.789 -16.76,17.625 0,10.1289 5.9,18.5078 16.62,18.5078 10.99,0 16.82,-9.1055 16.23,-19.3125 l -26.87,0" /><path
         id="path5792"
         style="fill:#231f20;fill-opacity:1;fill-rule:nonzero;stroke:none"
         d="m 1816.4,49.75 0.15,0 c 2.05,2.7109 3.79,4.6719 7.58,4.6719 1.97,0 3.57,-0.6602 5.24,-1.6094 l -2.76,-5.3203 c -1.16,0.8086 -1.97,1.5351 -3.5,1.5351 -6.4,0 -6.71,-8.2226 -6.71,-12.6796 l 0,-17.1133 -5.83,0 0,34.2461 5.83,0 0,-3.7305" /><path
         id="path5794"
         style="fill:#231f20;fill-opacity:1;fill-rule:nonzero;stroke:none"
         d="m 1860.7,43.2773 -0.14,0 c -2.7,3.4219 -6.05,5.75 -10.65,5.75 -7.05,0 -12.08,-5.8359 -12.08,-12.6796 0,-6.7735 4.66,-12.6719 11.79,-12.6719 4.89,0 8.32,2.1914 11.16,5.8984 l 0.14,0 0,-7.789 c -3.35,-2.2539 -6.78,-3.4961 -10.85,-3.4961 -10.34,0 -18.22,7.7148 -18.22,18.0586 0,10.207 8.23,18.0742 18.28,18.0742 3.72,0 7.51,-1.2344 10.57,-3.4258 l 0,-7.7188" /><path
         id="path5796"
         style="fill:#231f20;fill-opacity:1;fill-rule:nonzero;stroke:none"
         d="m 1893.64,40.0664 c -0.81,4.9531 -4.96,8.9609 -10.06,8.9609 -5.03,0 -9.69,-4.0078 -10.42,-8.9609 l 20.48,0 z m -20.77,-4.957 c 0.07,-6.3399 4.58,-11.4336 11.22,-11.4336 4.96,0 8.15,2.9844 10.41,7.0664 l 4.95,-2.8359 c -3.27,-6.1211 -8.81,-9.6172 -15.81,-9.6172 -10.19,0 -16.74,7.789 -16.74,17.625 0,10.1289 5.89,18.5078 16.61,18.5078 10.99,0 16.82,-9.1055 16.24,-19.3125 l -26.88,0" /><path
         id="path5798"
         style="fill:#231f20;fill-opacity:1;fill-rule:nonzero;stroke:none"
         d="M 49.0195,17.1289 0,17.1289 0,206.414 c 0,-0.211 0,35.711 35.8672,47.672 32.3476,10.375 53.9883,-10.527 54.0156,-10.449 L 251.488,68.875 c 8.117,-5.0117 11.41,0.1953 11.34,4.9961 l 0,180.2149 49.473,0 0,-187.9297 C 312.09,50.1523 298.848,30.2891 280.09,22.5664 260.852,15.0977 239.734,15.1523 214.723,36.1953 L 63.5508,200.504 c -3.9766,4.273 -14.3672,4.746 -14.5313,-3.625 l 0,-179.7501" /><path
         id="path5800"
         style="fill:#231f20;fill-opacity:1;fill-rule:nonzero;stroke:none"
         d="m 344.086,254.086 49.473,0 0,-169.7852 c -0.153,-18.0703 14.964,-18.0703 29.949,-18.1445 l 219.711,0 c 9.179,0.0742 19.586,10.8789 19.523,21.7734 0.063,11.3203 -10.539,22.7543 -20.437,22.6993 l -142.985,0 c -24.59,-0.899 -75.632,21.805 -75.812,69.914 0.18,58.742 48.402,72 70.383,73.543 l 404.449,0 0,-49.938 -101.25,0 0,-187.0191 -49.024,0 0,187.0191 -247.847,0 c -23.598,2.055 -40.606,-38.613 -1.813,-44.492 l 152.074,0 c 22.848,0.203 60.668,-19.672 60.821,-68.9997 C 711.148,40.707 681.848,17.0586 650.48,17.1289 l -224.695,0 c -37.097,-0.0703 -50.414,8.3789 -63.555,20.8789 -12.171,12.0195 -14.21,18.7695 -18.144,43.582 l 0,172.4962" /></g></g></svg>