<?xml version="1.0" encoding="UTF-8" standalone="no"?>
<!-- Created with Inkscape (http://www.inkscape.org/) -->

<svg
   xmlns:dc="http://purl.org/dc/elements/1.1/"
   xmlns:cc="http://creativecommons.org/ns#"
   xmlns:rdf="http://www.w3.org/1999/02/22-rdf-syntax-ns#"
   xmlns:svg="http://www.w3.org/2000/svg"
   xmlns="http://www.w3.org/2000/svg"
   xmlns:sodipodi="http://sodipodi.sourceforge.net/DTD/sodipodi-0.dtd"
   xmlns:inkscape="http://www.inkscape.org/namespaces/inkscape"
   width="16in"
   height="9in"
   viewBox="0 0 1440 810.00002"
   id="svg9568"
   version="1.1"
   inkscape:version="0.91 r13725"
   sodipodi:docname="nist_general_background.svg">
  <defs
     id="defs9570">
    <clipPath
       clipPathUnits="userSpaceOnUse"
       id="clipPath11194">
      <path
         d="m 0,0 946.215,0 0,386.91 L 0,386.91 0,0 Z"
         id="path11196" />
    </clipPath>
    <clipPath
       clipPathUnits="userSpaceOnUse"
       id="clipPath8966">
      <path
         d="m 0,0 2521.2,0 0,88.2305 L 0,88.2305 0,0 Z"
         id="path8968" />
    </clipPath>
  </defs>
  <sodipodi:namedview
     id="base"
     pagecolor="#ffffff"
     bordercolor="#666666"
     borderopacity="1.0"
     inkscape:pageopacity="0.0"
     inkscape:pageshadow="2"
     inkscape:zoom="0.49497475"
     inkscape:cx="349.28142"
     inkscape:cy="289.24408"
     inkscape:document-units="px"
     inkscape:current-layer="layer1"
     showgrid="false"
     units="in"
     inkscape:snap-bbox="true"
     inkscape:bbox-nodes="true"
     inkscape:bbox-paths="true"
     inkscape:snap-page="true"
     inkscape:snap-global="true"
     inkscape:window-width="1920"
     inkscape:window-height="1137"
     inkscape:window-x="-8"
     inkscape:window-y="-8"
     inkscape:window-maximized="1" />
  <metadata
     id="metadata9573">
    <rdf:RDF>
      <cc:Work
         rdf:about="">
        <dc:format>image/svg+xml</dc:format>
        <dc:type
           rdf:resource="http://purl.org/dc/dcmitype/StillImage" />
        <dc:title></dc:title>
      </cc:Work>
    </rdf:RDF>
  </metadata>
  <g
     inkscape:label="Layer 1"
     inkscape:groupmode="layer"
     id="layer1"
     transform="translate(0,-242.36215)">
    <rect
       style="opacity:1;fill:#26386d;fill-opacity:1;stroke:none;stroke-width:5;stroke-miterlimit:4;stroke-dasharray:none;stroke-opacity:1"
       id="rect10116"
       width="1440"
       height="10"
       x="0"
       y="242.36215" />
    <rect
       style="opacity:1;fill:#26386d;fill-opacity:1;stroke:none;stroke-width:5;stroke-miterlimit:4;stroke-dasharray:none;stroke-opacity:1"
       id="rect10116-9"
       width="1440"
       height="40"
       x="0"
       y="1010.3622" />
    <g
       id="g4144"
       transform="matrix(1.0206498,0,0,-1.0206498,61.619282,1091.8677)">
      <g
         id="g4146"
         transform="scale(0.1,0.1)">
        <path
           d="m 425.094,475.242 -52.067,0 0,201.028 c 0,-0.231 0,37.929 38.094,50.64 34.359,11.024 57.336,-11.18 57.371,-11.113 L 640.129,530.191 c 8.617,-5.324 12.121,0.219 12.039,5.317 l 0,191.402 52.543,0 0,-199.605 c -0.231,-16.992 -14.285,-38.082 -34.215,-46.301 -20.433,-7.93 -42.855,-7.863 -69.422,14.48 L 440.523,669.988 c -4.218,4.559 -15.253,5.051 -15.429,-3.851 l 0,-190.895"
           style="fill:#ffffff;fill-opacity:1;fill-rule:nonzero;stroke:none"
           id="path4278"
           inkscape:connector-curvature="0" />
        <path
           d="m 738.473,726.91 52.543,0 0,-180.34 c -0.161,-19.187 15.886,-19.187 31.82,-19.265 l 233.334,0 c 9.73,0.078 20.8,11.547 20.73,23.125 0.07,12.019 -11.19,24.164 -21.69,24.113 l -151.87,0 c -26.121,-0.953 -80.348,23.156 -80.504,74.266 0.156,62.367 51.394,76.445 74.742,78.101 l 429.552,0 0,-53.039 -107.54,0 0,-198.629 -52.04,0 0,198.629 -263.253,0 c -25.067,2.168 -43.125,-41.019 -1.926,-47.266 l 161.509,0 c 24.27,0.227 64.43,-20.894 64.59,-73.277 -0.16,-53.051 -31.27,-78.168 -64.59,-78.086 l -238.638,0 c -39.418,-0.082 -53.547,8.887 -67.5,22.168 -12.929,12.774 -15.097,19.942 -19.269,46.285 l 0,183.215"
           style="fill:#ffffff;fill-opacity:1;fill-rule:nonzero;stroke:none"
           id="path4280"
           inkscape:connector-curvature="0" />
      </g>
    </g>
    <g
       id="g8958"
       transform="matrix(2.6068083,0,0,-2.6068083,657.04603,1041.8622)">
      <g
         id="g8960"
         transform="scale(0.1,0.1)"
         style="fill:#ffffff">
        <g
           id="g8962"
           style="fill:#ffffff">
          <g
             id="g8964"
             clip-path="url(#clipPath8966)"
             style="fill:#ffffff">
            <path
               d="m 53.6875,86.9102 28.1641,0 0,-85.59379 -17.1641,0 0,68.21089 -0.2187,0 -15.8399,-68.21089 -15.4062,0 -15.8399,68.21089 -0.2187,0 0,-68.21089 -17.1641,0 0,85.59379 28.1641,0 12.6523,-61.3868 0.2188,0 12.6523,61.3868"
               style="fill:#ffffff;fill-opacity:1;fill-rule:nonzero;stroke:none"
               id="path8970"
               inkscape:connector-curvature="0" />
            <path
               d="m 137.172,72.168 -0.438,0 -9.019,-35.8633 18.48,0 -9.023,35.8633 z m 35.539,-70.85159 -17.492,0 -5.614,21.45699 -25.304,0 -5.61,-21.45699 -17.492,0 23.989,85.59379 23.097,0 24.426,-85.59379"
               style="fill:#ffffff;fill-opacity:1;fill-rule:nonzero;stroke:none"
               id="path8972"
               inkscape:connector-curvature="0" />
            <path
               d="m 242.004,72.3867 -22.231,0 0,-71.07029 -17.156,0 0,71.07029 -22.226,0 0,14.5235 61.613,0 0,-14.5235"
               style="fill:#ffffff;fill-opacity:1;fill-rule:nonzero;stroke:none"
               id="path8974"
               inkscape:connector-curvature="0" />
            <path
               d="m 316.254,72.3867 -36.082,0 0,-20.4648 29.922,0 0,-14.5196 -29.922,0 0,-21.5625 38.172,0 0,-14.52339 -55.336,0 0,85.59379 53.246,0 0,-14.5235"
               style="fill:#ffffff;fill-opacity:1;fill-rule:nonzero;stroke:none"
               id="path8976"
               inkscape:connector-curvature="0" />
            <path
               d="m 367.953,51.375 c 7.481,0 18.922,-0.4375 18.922,10.2305 0,11.7734 -11.555,10.7812 -20.023,10.7812 l -6.379,0 0,-21.0117 7.48,0 z m 9.133,35.5352 c 19.691,0 27.391,-14.0821 27.391,-24.9727 0,-9.3477 -5.829,-18.0391 -14.52,-21.5625 l 17.051,-39.05859 -18.043,0 -15.402,35.53909 -13.09,0 0,-35.53909 -17.16,0 0,85.59379 33.773,0"
               style="fill:#ffffff;fill-opacity:1;fill-rule:nonzero;stroke:none"
               id="path8978"
               inkscape:connector-curvature="0" />
            <path
               d="m 430.098,1.31641 17.1641,0 0,85.5938 -17.1641,0 0,-85.5938 z"
               style="fill:#ffffff;fill-opacity:1;fill-rule:nonzero;stroke:none"
               id="path8980"
               inkscape:connector-curvature="0" />
            <path
               d="m 502.59,72.168 -0.442,0 -9.019,-35.8633 18.48,0 -9.019,35.8633 z m 35.535,-70.85159 -17.488,0 -5.614,21.45699 -25.304,0 -5.614,-21.45699 -17.488,0 23.985,85.59379 23.097,0 24.426,-85.59379"
               style="fill:#ffffff;fill-opacity:1;fill-rule:nonzero;stroke:none"
               id="path8982"
               inkscape:connector-curvature="0" />
            <path
               d="m 574.633,15.8398 35.644,0 0,-14.52339 -52.804,0 0,85.59379 17.16,0 0,-71.0704"
               style="fill:#ffffff;fill-opacity:1;fill-rule:nonzero;stroke:none"
               id="path8984"
               inkscape:connector-curvature="0" />
            <path
               d="m 735.238,86.9102 28.164,0 0,-85.59379 -17.164,0 0,68.21089 -0.218,0 -15.84,-68.21089 -15.407,0 -15.835,68.21089 -0.223,0 0,-68.21089 -17.16,0 0,85.59379 28.164,0 12.648,-61.3868 0.223,0 12.648,61.3868"
               style="fill:#ffffff;fill-opacity:1;fill-rule:nonzero;stroke:none"
               id="path8986"
               inkscape:connector-curvature="0" />
            <path
               d="m 842.816,72.3867 -36.082,0 0,-20.4648 29.922,0 0,-14.5196 -29.922,0 0,-21.5625 38.172,0 0,-14.52339 -55.336,0 0,85.59379 53.246,0 0,-14.5235"
               style="fill:#ffffff;fill-opacity:1;fill-rule:nonzero;stroke:none"
               id="path8988"
               inkscape:connector-curvature="0" />
            <path
               d="m 899.023,72.168 -0.437,0 -9.02,-35.8633 18.481,0 -9.024,35.8633 z m 35.54,-70.85159 -17.493,0 -5.609,21.45699 -25.309,0 -5.609,-21.45699 -17.492,0 23.984,85.59379 23.102,0 24.426,-85.59379"
               style="fill:#ffffff;fill-opacity:1;fill-rule:nonzero;stroke:none"
               id="path8990"
               inkscape:connector-curvature="0" />
            <path
               d="m 993.848,61.7188 c -1.653,5.9375 -4.953,11.9921 -11.883,11.9921 -5.613,0 -10.449,-4.0742 -10.449,-9.9023 0,-16.8359 40.264,-5.832 40.264,-37.7344 C 1011.78,15.6211 1003.86,0 982.734,0 966.449,0 954.68,7.91797 952.043,24.6445 l 17.16,2.5274 c 1.539,-7.2578 5.277,-12.6485 13.418,-12.6485 6.715,0 12.324,3.5196 12.324,10.8868 0,17.164 -40.265,7.2617 -40.265,36.414 0,15.4063 12.98,26.4063 27.836,26.4063 14.519,0 25.414,-9.3477 26.844,-23.7617 l -15.512,-2.75"
               style="fill:#ffffff;fill-opacity:1;fill-rule:nonzero;stroke:none"
               id="path8992"
               inkscape:connector-curvature="0" />
            <path
               d="m 1095.92,86.9102 0,-59.1836 C 1095.92,10.1172 1083.82,0 1065.79,0 c -18.05,0 -30.15,10.1172 -30.15,27.7266 l 0,59.1836 17.16,0 0,-53.6875 c 0,-14.3008 4.29,-18.6993 12.99,-18.6993 8.69,0 12.97,4.3985 12.97,18.6993 l 0,53.6875 17.16,0"
               style="fill:#ffffff;fill-opacity:1;fill-rule:nonzero;stroke:none"
               id="path8994"
               inkscape:connector-curvature="0" />
            <path
               d="m 1146.19,51.375 c 7.48,0 18.92,-0.4375 18.92,10.2305 0,11.7734 -11.55,10.7812 -20.03,10.7812 l -6.37,0 0,-21.0117 7.48,0 z m 9.13,35.5352 c 19.68,0 27.39,-14.0821 27.39,-24.9727 0,-9.3477 -5.83,-18.0391 -14.52,-21.5625 l 17.05,-39.05859 -18.04,0 -15.41,35.53909 -13.08,0 0,-35.53909 -17.17,0 0,85.59379 33.78,0"
               style="fill:#ffffff;fill-opacity:1;fill-rule:nonzero;stroke:none"
               id="path8996"
               inkscape:connector-curvature="0" />
            <path
               d="m 1261.59,72.3867 -36.09,0 0,-20.4648 29.92,0 0,-14.5196 -29.92,0 0,-21.5625 38.18,0 0,-14.52339 -55.35,0 0,85.59379 53.26,0 0,-14.5235"
               style="fill:#ffffff;fill-opacity:1;fill-rule:nonzero;stroke:none"
               id="path8998"
               inkscape:connector-curvature="0" />
            <path
               d="m 1342.31,86.9102 28.17,0 0,-85.59379 -17.15,0 0,68.21089 -0.23,0 -15.84,-68.21089 -15.39,0 -15.86,68.21089 -0.22,0 0,-68.21089 -17.17,0 0,85.59379 28.17,0 12.65,-61.3868 0.22,0 12.65,61.3868"
               style="fill:#ffffff;fill-opacity:1;fill-rule:nonzero;stroke:none"
               id="path9000"
               inkscape:connector-curvature="0" />
            <path
               d="m 1449.89,72.3867 -36.07,0 0,-20.4648 29.92,0 0,-14.5196 -29.92,0 0,-21.5625 38.16,0 0,-14.52339 -55.33,0 0,85.59379 53.24,0 0,-14.5235"
               style="fill:#ffffff;fill-opacity:1;fill-rule:nonzero;stroke:none"
               id="path9002"
               inkscape:connector-curvature="0" />
            <path
               d="m 1502.04,86.9102 25.63,-56.4375 0.21,0 0,56.4375 17.17,0 0,-85.59379 -18.38,0 -32.34,68.76169 -0.22,0 0,-68.76169 -17.17,0 0,85.59379 25.1,0"
               style="fill:#ffffff;fill-opacity:1;fill-rule:nonzero;stroke:none"
               id="path9004"
               inkscape:connector-curvature="0" />
            <path
               d="m 1627.76,72.3867 -22.22,0 0,-71.07029 -17.15,0 0,71.07029 -22.23,0 0,14.5235 61.6,0 0,-14.5235"
               style="fill:#ffffff;fill-opacity:1;fill-rule:nonzero;stroke:none"
               id="path9006"
               inkscape:connector-curvature="0" />
            <path
               d="m 1714.44,15.8398 35.65,0 0,-14.52339 -52.81,0 0,85.59379 17.16,0 0,-71.0704"
               style="fill:#ffffff;fill-opacity:1;fill-rule:nonzero;stroke:none"
               id="path9008"
               inkscape:connector-curvature="0" />
            <path
               d="m 1802,72.168 -0.43,0 -9.02,-35.8633 18.48,0 -9.03,35.8633 z m 35.55,-70.85159 -17.5,0 -5.61,21.45699 -25.31,0 -5.6,-21.45699 -17.5,0 23.98,85.59379 23.11,0 24.43,-85.59379"
               style="fill:#ffffff;fill-opacity:1;fill-rule:nonzero;stroke:none"
               id="path9010"
               inkscape:connector-curvature="0" />
            <path
               d="m 1885.17,14.8477 c 5.15,0 15.17,-0.6602 15.17,12.3242 0,11.6601 -9.69,13.2031 -26.29,11.9922 l 0,-24.3164 11.12,0 z m -11.12,37.2968 c 12.64,0 24.63,-1.4257 24.63,10.3399 0,12.2109 -12.54,10.8945 -24.63,10.8945 l 0,-21.2344 z m -17.17,-50.82809 0,85.59379 24.65,0 c 27.72,0 34.77,-9.6797 34.77,-23.543 0,-8.0313 -3.87,-13.8594 -10.78,-17.7109 7.81,-3.7422 12.42,-11.1172 12.42,-19.6954 0,-14.7382 -11.99,-24.64449 -27.62,-24.64449 l -33.44,0"
               style="fill:#ffffff;fill-opacity:1;fill-rule:nonzero;stroke:none"
               id="path9012"
               inkscape:connector-curvature="0" />
            <path
               d="m 1958.31,44.1172 c 0,-11.0039 2.97,-30.5859 17.72,-30.5859 14.74,0 17.71,19.582 17.71,30.5859 0,11 -2.97,30.5781 -17.71,30.5781 -14.75,0 -17.72,-19.5781 -17.72,-30.5781 z m 53.03,0 C 2011.34,22.5547 2000.46,0 1976.03,0 c -24.42,0 -35.32,22.5547 -35.32,44.1172 0,21.5625 10.9,44.1133 35.32,44.1133 24.43,0 35.31,-22.5508 35.31,-44.1133"
               style="fill:#ffffff;fill-opacity:1;fill-rule:nonzero;stroke:none"
               id="path9014"
               inkscape:connector-curvature="0" />
            <path
               d="m 2060.4,51.375 c 7.48,0 18.93,-0.4375 18.93,10.2305 0,11.7734 -11.57,10.7812 -20.04,10.7812 l -6.37,0 0,-21.0117 7.48,0 z m 9.12,35.5352 c 19.69,0 27.4,-14.0821 27.4,-24.9727 0,-9.3477 -5.84,-18.0391 -14.53,-21.5625 l 17.05,-39.05859 -18.02,0 -15.41,35.53909 -13.09,0 0,-35.53909 -17.17,0 0,85.59379 33.77,0"
               style="fill:#ffffff;fill-opacity:1;fill-rule:nonzero;stroke:none"
               id="path9016"
               inkscape:connector-curvature="0" />
            <path
               d="m 2151.69,72.168 -0.43,0 -9.02,-35.8633 18.47,0 -9.02,35.8633 z m 35.55,-70.85159 -17.5,0 -5.61,21.45699 -25.31,0 -5.61,-21.45699 -17.5,0 23.99,85.59379 23.1,0 24.44,-85.59379"
               style="fill:#ffffff;fill-opacity:1;fill-rule:nonzero;stroke:none"
               id="path9018"
               inkscape:connector-curvature="0" />
            <path
               d="m 2256.53,72.3867 -22.22,0 0,-71.07029 -17.17,0 0,71.07029 -22.23,0 0,14.5235 61.62,0 0,-14.5235"
               style="fill:#ffffff;fill-opacity:1;fill-rule:nonzero;stroke:none"
               id="path9020"
               inkscape:connector-curvature="0" />
            <path
               d="m 2293.49,44.1172 c 0,-11.0039 2.97,-30.5859 17.71,-30.5859 14.73,0 17.7,19.582 17.7,30.5859 0,11 -2.97,30.5781 -17.7,30.5781 -14.74,0 -17.71,-19.5781 -17.71,-30.5781 z m 53.02,0 C 2346.51,22.5547 2335.62,0 2311.2,0 c -24.43,0 -35.33,22.5547 -35.33,44.1172 0,21.5625 10.9,44.1133 35.33,44.1133 24.42,0 35.31,-22.5508 35.31,-44.1133"
               style="fill:#ffffff;fill-opacity:1;fill-rule:nonzero;stroke:none"
               id="path9022"
               inkscape:connector-curvature="0" />
            <path
               d="m 2395.56,51.375 c 7.48,0 18.92,-0.4375 18.92,10.2305 0,11.7734 -11.54,10.7812 -20.02,10.7812 l -6.38,0 0,-21.0117 7.48,0 z m 9.14,35.5352 c 19.68,0 27.38,-14.0821 27.38,-24.9727 0,-9.3477 -5.82,-18.0391 -14.51,-21.5625 l 17.05,-39.05859 -18.05,0 -15.41,35.53909 -13.08,0 0,-35.53909 -17.17,0 0,85.59379 33.79,0"
               style="fill:#ffffff;fill-opacity:1;fill-rule:nonzero;stroke:none"
               id="path9024"
               inkscape:connector-curvature="0" />
            <path
               d="m 2492.8,35.8633 0,-34.54689 -17.15,0 0,34.54689 -28.06,51.0469 18.26,0 18.5,-37.625 19.14,37.625 17.71,0 -28.4,-51.0469"
               style="fill:#ffffff;fill-opacity:1;fill-rule:nonzero;stroke:none"
               id="path9026"
               inkscape:connector-curvature="0" />
          </g>
        </g>
      </g>
    </g>
  </g>
</svg>
