<?xml version="1.0" encoding="UTF-8" standalone="no"?>
<svg
   xmlns:dc="http://purl.org/dc/elements/1.1/"
   xmlns:cc="http://creativecommons.org/ns#"
   xmlns:rdf="http://www.w3.org/1999/02/22-rdf-syntax-ns#"
   xmlns:svg="http://www.w3.org/2000/svg"
   xmlns="http://www.w3.org/2000/svg"
   viewBox="0 0 192.89999 85.162498"
   height="85.162498"
   width="192.89999"
   xml:space="preserve"
   version="1.1"
   id="svg4970"><metadata
     id="metadata4976"><rdf:RDF><cc:Work
         rdf:about=""><dc:format>image/svg+xml</dc:format><dc:type
           rdf:resource="http://purl.org/dc/dcmitype/StillImage" /><dc:title></dc:title></cc:Work></rdf:RDF></metadata><defs
     id="defs4974" /><g
     transform="matrix(1.25,0,0,-1.25,0,85.1625)"
     id="g4978"><g
       transform="scale(0.1,0.1)"
       id="g4980"><path
         id="path4982"
         style="fill:#231f20;fill-opacity:1;fill-rule:nonzero;stroke:none"
         d="m 3.78125,385.891 21.81255,0 39.9687,-51.325 0.2227,0 0,51.325 21.8164,0 0,-83.938 -21.8164,0 -39.9649,51.43 -0.2265,0 0,-51.43 -21.81255,0 0,83.938" /><path
         id="path4984"
         style="fill:#231f20;fill-opacity:1;fill-rule:nonzero;stroke:none"
         d="m 118.227,330.449 c 0,-7.234 4.781,-12.793 13.027,-12.793 8.234,0 13.019,5.559 13.019,12.793 0,7.012 -4.785,12.918 -13.019,12.918 -8.246,0 -13.027,-5.906 -13.027,-12.918 z m 45.644,-28.496 -20.258,0 0,6.348 -0.222,0 c -3.571,-5.684 -10.575,-8.242 -17.262,-8.242 -16.914,0 -28.8399,14.132 -28.8399,30.507 0,16.372 11.6989,30.387 28.6129,30.387 6.571,0 13.485,-2.445 17.711,-7.457 l 0,5.567 20.258,0 0,-57.11" /><path
         id="path4986"
         style="fill:#231f20;fill-opacity:1;fill-rule:nonzero;stroke:none"
         d="m 199.488,301.953 -20.258,0 0,40.41 -6.57,0 0,16.7 6.57,0 0,17.148 20.258,0 0,-17.148 11.469,0 0,-16.7 -11.469,0 0,-40.41" /><path
         id="path4988"
         style="fill:#231f20;fill-opacity:1;fill-rule:nonzero;stroke:none"
         d="m 237.68,301.953 -20.258,0 0,57.11 20.258,0 0,-57.11 z m 1.215,79.039 c 0,-6.23 -5.118,-11.351 -11.352,-11.351 -6.238,0 -11.352,5.121 -11.352,11.351 0,6.238 5.114,11.352 11.352,11.352 6.234,0 11.352,-5.114 11.352,-11.352" /><path
         id="path4990"
         style="fill:#231f20;fill-opacity:1;fill-rule:nonzero;stroke:none"
         d="m 268.18,330.449 c 0,-7.234 4.785,-12.793 13.015,-12.793 8.246,0 13.035,5.559 13.035,12.793 0,7.012 -4.789,12.918 -13.035,12.918 -8.23,0 -13.015,-5.906 -13.015,-12.918 z m 47.418,0 c 0,-19.363 -16.032,-30.39 -34.403,-30.39 -18.246,0 -34.398,10.918 -34.398,30.39 0,19.477 16.031,30.504 34.398,30.504 18.371,0 34.403,-11.027 34.403,-30.504" /><path
         id="path4992"
         style="fill:#231f20;fill-opacity:1;fill-rule:nonzero;stroke:none"
         d="m 344.988,351.715 0.227,0 c 4.68,6.902 10.359,9.238 18.262,9.238 15.355,0 21.472,-9.683 21.472,-23.703 l 0,-35.297 -20.258,0 0,27.832 c 0,5.453 0.899,15.024 -9.117,15.024 -8.246,0 -10.586,-6.118 -10.586,-13.246 l 0,-29.61 -20.258,0 0,57.11 20.258,0 0,-7.348" /><path
         id="path4994"
         style="fill:#231f20;fill-opacity:1;fill-rule:nonzero;stroke:none"
         d="m 415.121,330.449 c 0,-7.234 4.801,-12.793 13.031,-12.793 8.235,0 13.036,5.559 13.036,12.793 0,7.012 -4.801,12.918 -13.036,12.918 -8.23,0 -13.031,-5.906 -13.031,-12.918 z m 45.645,-28.496 -20.258,0 0,6.348 -0.227,0 c -3.551,-5.684 -10.57,-8.242 -17.254,-8.242 -16.918,0 -28.824,14.132 -28.824,30.507 0,16.372 11.68,30.387 28.613,30.387 6.571,0 13.461,-2.445 17.692,-7.457 l 0,5.567 20.258,0 0,-57.11" /><path
         id="path4996"
         style="fill:#231f20;fill-opacity:1;fill-rule:nonzero;stroke:none"
         d="m 474.234,301.953 20.2734,0 0,92.4023 -20.2734,0 0,-92.4023 z" /><path
         id="path4998"
         style="fill:#231f20;fill-opacity:1;fill-rule:nonzero;stroke:none"
         d="m 546.484,301.953 21.8164,0 0,83.9375 -21.8164,0 0,-83.9375 z" /><path
         id="path5000"
         style="fill:#231f20;fill-opacity:1;fill-rule:nonzero;stroke:none"
         d="m 602.371,351.715 0.227,0 c 4.675,6.902 10.347,9.238 18.261,9.238 15.356,0 21.477,-9.683 21.477,-23.703 l 0,-35.297 -20.262,0 0,27.832 c 0,5.453 0.899,15.024 -9.129,15.024 -8.234,0 -10.574,-6.118 -10.574,-13.246 l 0,-29.61 -20.258,0 0,57.11 20.258,0 0,-7.348" /><path
         id="path5002"
         style="fill:#231f20;fill-opacity:1;fill-rule:nonzero;stroke:none"
         d="m 693.441,344.359 c -3.121,1.68 -7.457,2.789 -10.918,2.789 -2.335,0 -6.339,-0.992 -6.339,-3.902 0,-3.894 6.339,-4.437 9.129,-5.004 9.46,-1.89 16.585,-6.347 16.585,-16.914 0,-15.027 -13.691,-21.269 -26.933,-21.269 -8.129,0 -16.152,2.343 -23.047,6.574 l 7.344,14.129 c 4.113,-2.891 11.027,-5.801 16.031,-5.801 2.566,0 6.348,1.23 6.348,4.355 0,4.454 -6.348,4.676 -12.692,6.36 -6.355,1.648 -12.699,4.773 -12.699,15.023 0,14.024 12.699,20.254 25.16,20.254 6.465,0 12.914,-1.004 18.824,-3.676 l -6.793,-12.918" /><path
         id="path5004"
         style="fill:#231f20;fill-opacity:1;fill-rule:nonzero;stroke:none"
         d="m 734.961,301.953 -20.258,0 0,40.41 -6.566,0 0,16.7 6.566,0 0,17.148 20.258,0 0,-17.148 11.477,0 0,-16.7 -11.477,0 0,-40.41" /><path
         id="path5006"
         style="fill:#231f20;fill-opacity:1;fill-rule:nonzero;stroke:none"
         d="m 773.141,301.953 -20.258,0 0,57.11 20.258,0 0,-57.11 z m 1.23,79.039 c 0,-6.23 -5.129,-11.351 -11.359,-11.351 -6.231,0 -11.364,5.121 -11.364,11.351 0,6.238 5.133,11.352 11.364,11.352 6.23,0 11.359,-5.114 11.359,-11.352" /><path
         id="path5008"
         style="fill:#231f20;fill-opacity:1;fill-rule:nonzero;stroke:none"
         d="m 808.648,301.953 -20.253,0 0,40.41 -6.575,0 0,16.7 6.575,0 0,17.148 20.253,0 0,-17.148 11.473,0 0,-16.7 -11.473,0 0,-40.41" /><path
         id="path5010"
         style="fill:#231f20;fill-opacity:1;fill-rule:nonzero;stroke:none"
         d="m 846.5,359.063 0,-30.508 c 0,-7.227 1.785,-12.364 10.137,-12.364 8.359,0 10.136,5.137 10.136,12.364 l 0,30.508 20.254,0 0,-34.415 c 0,-18.796 -13.254,-24.589 -30.39,-24.589 -17.141,0 -30.391,5.793 -30.391,24.589 l 0,34.415 20.254,0" /><path
         id="path5012"
         style="fill:#231f20;fill-opacity:1;fill-rule:nonzero;stroke:none"
         d="m 922.094,301.953 -20.262,0 0,40.41 -6.562,0 0,16.7 6.562,0 0,17.148 20.262,0 0,-17.148 11.476,0 0,-16.7 -11.476,0 0,-40.41" /><path
         id="path5014"
         style="fill:#231f20;fill-opacity:1;fill-rule:nonzero;stroke:none"
         d="m 979.867,338.809 c -1.004,5.445 -6.004,9 -11.453,9 -5.91,0 -10.812,-3.106 -12.031,-9 l 23.484,0 z m 18.821,-11.7 -42.629,0 c 0,-8.242 4.328,-12.675 12.687,-12.675 4.336,0 7.449,1.433 9.688,5.214 l 19.472,0 c -3.222,-13.464 -16.027,-19.589 -29.062,-19.589 -18.926,0 -33.067,10.683 -33.067,30.39 0,19.039 13.036,30.504 31.629,30.504 19.817,0 31.282,-12.246 31.282,-31.723 l 0,-2.121" /><path
         id="path5016"
         style="fill:#231f20;fill-opacity:1;fill-rule:nonzero;stroke:none"
         d="m 1063.26,330.449 c 0,-7.234 4.78,-12.793 13.01,-12.793 8.26,0 13.04,5.559 13.04,12.793 0,7.012 -4.78,12.918 -13.04,12.918 -8.23,0 -13.01,-5.906 -13.01,-12.918 z m 47.42,0 c 0,-19.363 -16.04,-30.39 -34.41,-30.39 -18.25,0 -34.39,10.918 -34.39,30.39 0,19.477 16.03,30.504 34.39,30.504 18.37,0 34.41,-11.027 34.41,-30.504" /><path
         id="path5018"
         style="fill:#231f20;fill-opacity:1;fill-rule:nonzero;stroke:none"
         d="m 1142.08,301.953 -20.26,0 0,40.41 -7.14,0 0,16.7 7.14,0 0,7.238 c 0,7.898 0.21,13.683 5.78,20.039 5.01,5.902 12.24,9.125 19.93,9.125 3.11,0 5.9,-0.559 8.69,-2.004 l 0,-17.473 c -2.34,1 -4.46,1.883 -7.14,1.883 -5.22,0 -7,-3.109 -7,-9.57 l 0,-9.238 14.14,0 0,-16.7 -14.14,0 0,-40.41" /><path
         id="path5020"
         style="fill:#231f20;fill-opacity:1;fill-rule:nonzero;stroke:none"
         d="m 49.8711,229.941 c -4.0156,3.332 -9.1289,5.547 -14.4648,5.547 -4.0196,0 -9.3555,-2.343 -9.3555,-7 0,-4.902 5.8867,-6.789 9.6797,-8.019 l 5.5664,-1.668 c 11.6953,-3.449 20.7109,-9.336 20.7109,-22.934 0,-8.347 -2.0117,-16.922 -8.6836,-22.605 -6.5664,-5.547 -15.3711,-7.891 -23.8281,-7.891 -10.5703,0 -20.9336,3.555 -29.4961,9.57 l 9.33984,17.59 c 5.46096,-4.789 11.92576,-8.683 19.37496,-8.683 5.129,0 10.5704,2.55 10.5704,8.457 0,6.113 -8.5586,8.242 -13.2344,9.57 -13.6914,3.898 -22.71877,7.461 -22.71877,23.723 0,17.031 12.14067,28.152 28.95317,28.152 8.457,0 18.8046,-2.664 26.2734,-6.895 l -8.6875,-16.914" /><path
         id="path5022"
         style="fill:#231f20;fill-opacity:1;fill-rule:nonzero;stroke:none"
         d="m 94.0664,167.59 -20.2578,0 0,40.418 -6.5664,0 0,16.687 6.5664,0 0,17.16 20.2578,0 0,-17.16 11.4686,0 0,-16.687 -11.4686,0 0,-40.418" /><path
         id="path5024"
         style="fill:#231f20;fill-opacity:1;fill-rule:nonzero;stroke:none"
         d="m 128.801,196.086 c 0,-7.227 4.777,-12.797 13.023,-12.797 8.235,0 13.02,5.57 13.02,12.797 0,7.012 -4.785,12.918 -13.02,12.918 -8.246,0 -13.023,-5.906 -13.023,-12.918 z m 45.64,-28.496 -20.257,0 0,6.348 -0.223,0 c -3.57,-5.684 -10.57,-8.235 -17.262,-8.235 -16.914,0 -28.84,14.121 -28.84,30.496 0,16.379 11.704,30.383 28.618,30.383 6.566,0 13.48,-2.43 17.707,-7.441 l 0,5.554 20.257,0 0,-57.105" /><path
         id="path5026"
         style="fill:#231f20;fill-opacity:1;fill-rule:nonzero;stroke:none"
         d="m 208.168,217.344 0.227,0 c 4.675,6.914 10.359,9.238 18.265,9.238 15.352,0 21.485,-9.668 21.485,-23.691 l 0,-35.301 -20.274,0 0,27.832 c 0,5.457 0.902,15.027 -9.117,15.027 -8.246,0 -10.586,-6.125 -10.586,-13.242 l 0,-29.617 -20.258,0 0,57.105 20.258,0 0,-7.351" /><path
         id="path5028"
         style="fill:#231f20;fill-opacity:1;fill-rule:nonzero;stroke:none"
         d="m 279.082,196.086 c 0,-7.227 4.801,-12.797 13.031,-12.797 8.235,0 13.032,5.57 13.032,12.797 0,7.012 -4.797,12.918 -13.032,12.918 -8.23,0 -13.031,-5.906 -13.031,-12.918 z m 25.387,-22.148 -0.227,0 c -3.551,-5.684 -10.57,-8.235 -17.238,-8.235 -16.938,0 -28.84,14.121 -28.84,30.496 0,16.379 11.68,30.383 28.613,30.383 6.567,0 13.461,-2.43 17.692,-7.441 l 0,40.859 20.261,0 0,-92.41 -20.261,0 0,6.348" /><path
         id="path5030"
         style="fill:#231f20;fill-opacity:1;fill-rule:nonzero;stroke:none"
         d="m 354.238,196.086 c 0,-7.227 4.785,-12.797 13.02,-12.797 8.246,0 13.031,5.57 13.031,12.797 0,7.012 -4.785,12.918 -13.031,12.918 -8.235,0 -13.02,-5.906 -13.02,-12.918 z m 45.633,-28.496 -20.258,0 0,6.348 -0.222,0 c -3.555,-5.684 -10.575,-8.235 -17.246,-8.235 -16.93,0 -28.84,14.121 -28.84,30.496 0,16.379 11.683,30.383 28.613,30.383 6.566,0 13.469,-2.43 17.695,-7.441 l 0,5.554 20.258,0 0,-57.105" /><path
         id="path5032"
         style="fill:#231f20;fill-opacity:1;fill-rule:nonzero;stroke:none"
         d="m 433.613,215.352 0.227,0 c 3.879,7.003 10.57,10.117 18.469,10.117 l 3.902,0 0,-19.461 c -2.789,1.551 -5.457,1.894 -8.578,1.894 -11.246,0 -14.02,-7.472 -14.02,-17.265 l 0,-23.047 -20.258,0 0,57.105 20.258,0 0,-9.343" /><path
         id="path5034"
         style="fill:#231f20;fill-opacity:1;fill-rule:nonzero;stroke:none"
         d="m 481.371,196.086 c 0,-7.227 4.785,-12.797 13.02,-12.797 8.246,0 13.031,5.57 13.031,12.797 0,7.012 -4.785,12.918 -13.031,12.918 -8.235,0 -13.02,-5.906 -13.02,-12.918 z m 25.371,-22.148 -0.222,0 c -3.555,-5.684 -10.575,-8.235 -17.243,-8.235 -16.933,0 -28.839,14.121 -28.839,30.496 0,16.379 11.679,30.383 28.617,30.383 6.566,0 13.461,-2.43 17.687,-7.441 l 0,40.859 20.262,0 0,-92.41 -20.262,0 0,6.348" /><path
         id="path5036"
         style="fill:#231f20;fill-opacity:1;fill-rule:nonzero;stroke:none"
         d="m 577.438,210 c -3.106,1.68 -7.458,2.781 -10.907,2.781 -2.336,0 -6.34,-0.984 -6.34,-3.894 0,-3.899 6.34,-4.434 9.118,-5.008 9.461,-1.887 16.597,-6.34 16.597,-16.914 0,-15.02 -13.703,-21.262 -26.945,-21.262 -8.133,0 -16.141,2.332 -23.047,6.563 l 7.348,14.132 c 4.121,-2.882 11.019,-5.793 16.031,-5.793 2.562,0 6.344,1.231 6.344,4.344 0,4.457 -6.344,4.692 -12.692,6.36 -6.343,1.652 -12.687,4.777 -12.687,15.031 0,14.023 12.687,20.242 25.168,20.242 6.445,0 12.91,-0.984 18.804,-3.66 L 577.438,210" /><path
         id="path5038"
         style="fill:#231f20;fill-opacity:1;fill-rule:nonzero;stroke:none"
         d="m 651.797,196.086 c 0,-7.227 4.801,-12.797 13.031,-12.797 8.235,0 13.031,5.57 13.031,12.797 0,7.012 -4.796,12.918 -13.031,12.918 -8.23,0 -13.031,-5.906 -13.031,-12.918 z m 45.648,-28.496 -20.261,0 0,6.348 -0.227,0 c -3.551,-5.684 -10.57,-8.235 -17.238,-8.235 -16.938,0 -28.84,14.121 -28.84,30.496 0,16.379 11.68,30.383 28.613,30.383 6.567,0 13.461,-2.43 17.692,-7.441 l 0,5.554 20.261,0 0,-57.105" /><path
         id="path5040"
         style="fill:#231f20;fill-opacity:1;fill-rule:nonzero;stroke:none"
         d="m 731.184,217.344 0.226,0 c 4.664,6.914 10.348,9.238 18.246,9.238 15.367,0 21.492,-9.668 21.492,-23.691 l 0,-35.301 -20.257,0 0,27.832 c 0,5.457 0.882,15.027 -9.133,15.027 -8.235,0 -10.574,-6.125 -10.574,-13.242 l 0,-29.617 -20.278,0 0,57.105 20.278,0 0,-7.351" /><path
         id="path5042"
         style="fill:#231f20;fill-opacity:1;fill-rule:nonzero;stroke:none"
         d="m 802.094,196.086 c 0,-7.227 4.785,-12.797 13.019,-12.797 8.242,0 13.028,5.57 13.028,12.797 0,7.012 -4.786,12.918 -13.028,12.918 -8.234,0 -13.019,-5.906 -13.019,-12.918 z m 25.383,-22.148 -0.215,0 c -3.574,-5.684 -10.586,-8.235 -17.266,-8.235 -16.926,0 -28.84,14.121 -28.84,30.496 0,16.379 11.699,30.383 28.625,30.383 6.563,0 13.457,-2.43 17.696,-7.441 l 0,40.859 20.273,0 0,-92.41 -20.273,0 0,6.348" /><path
         id="path5044"
         style="fill:#231f20;fill-opacity:1;fill-rule:nonzero;stroke:none"
         d="m 932.457,167.59 -21.816,0 0,65.476 -18.047,0 0,18.477 57.898,0 0,-18.477 -18.035,0 0,-65.476" /><path
         id="path5046"
         style="fill:#231f20;fill-opacity:1;fill-rule:nonzero;stroke:none"
         d="m 989.566,204.453 c -0.996,5.442 -6.007,8.992 -11.464,8.992 -5.911,0 -10.801,-3.101 -12.032,-8.992 l 23.496,0 z m 18.804,-11.699 -42.632,0 c 0,-8.25 4.336,-12.684 12.696,-12.684 4.343,0 7.461,1.434 9.687,5.211 l 19.469,0 c -3.22,-13.465 -16.024,-19.578 -29.039,-19.578 -18.946,0 -33.067,10.676 -33.067,30.383 0,19.043 13.016,30.496 31.61,30.496 19.816,0 31.276,-12.234 31.276,-31.719 l 0,-2.109" /><path
         id="path5048"
         style="fill:#231f20;fill-opacity:1;fill-rule:nonzero;stroke:none"
         d="m 1058.8,206.105 c -2.99,2.223 -6.56,4.012 -10.46,4.012 -7.78,0 -13.91,-6.015 -13.91,-13.918 0,-8.238 5.9,-14.031 14.26,-14.031 3.55,0 7.45,1.453 10.11,3.898 l 0,-17.14 c -4.45,-2.235 -9.33,-3.223 -14.23,-3.223 -16.94,0 -31.06,12.57 -31.06,29.844 0,18.351 14.01,31.035 31.93,31.035 4.68,0 9.36,-1.113 13.36,-3.328 l 0,-17.149" /><path
         id="path5050"
         style="fill:#231f20;fill-opacity:1;fill-rule:nonzero;stroke:none"
         d="m 1091.65,260 0,-42.539 0.22,0 c 4.68,6.238 10.35,9.121 18.25,9.121 14.48,0 21.49,-9.57 21.49,-24.031 l 0,-34.961 -20.26,0 0,29.273 c 0,6.692 -1,13.586 -9.13,13.586 -8.01,0 -10.57,-6.894 -10.57,-13.586 l 0,-29.273 -20.26,0 0,92.41 20.26,0" /><path
         id="path5052"
         style="fill:#231f20;fill-opacity:1;fill-rule:nonzero;stroke:none"
         d="m 1165.23,217.344 0.22,0 c 4.68,6.914 10.37,9.238 18.27,9.238 15.36,0 21.49,-9.668 21.49,-23.691 l 0,-35.301 -20.27,0 0,27.832 c 0,5.457 0.89,15.027 -9.12,15.027 -8.25,0 -10.59,-6.125 -10.59,-13.242 l 0,-29.617 -20.25,0 0,57.105 20.25,0 0,-7.351" /><path
         id="path5054"
         style="fill:#231f20;fill-opacity:1;fill-rule:nonzero;stroke:none"
         d="m 1235.71,196.086 c 0,-7.227 4.78,-12.797 13.02,-12.797 8.25,0 13.02,5.57 13.02,12.797 0,7.012 -4.77,12.918 -13.02,12.918 -8.24,0 -13.02,-5.906 -13.02,-12.918 z m 47.42,0 c 0,-19.367 -16.04,-30.383 -34.4,-30.383 -18.26,0 -34.41,10.918 -34.41,30.383 0,19.488 16.04,30.496 34.41,30.496 18.36,0 34.4,-11.008 34.4,-30.496" /><path
         id="path5056"
         style="fill:#231f20;fill-opacity:1;fill-rule:nonzero;stroke:none"
         d="m 1292.26,167.59 20.25,0 0,92.4102 -20.25,0 0,-92.4102 z" /><path
         id="path5058"
         style="fill:#231f20;fill-opacity:1;fill-rule:nonzero;stroke:none"
         d="m 1343.02,196.086 c 0,-7.227 4.79,-12.797 13.03,-12.797 8.24,0 13.03,5.57 13.03,12.797 0,7.012 -4.79,12.918 -13.03,12.918 -8.24,0 -13.03,-5.906 -13.03,-12.918 z m 47.42,0 c 0,-19.367 -16.01,-30.383 -34.39,-30.383 -18.26,0 -34.4,10.918 -34.4,30.383 0,19.488 16.04,30.496 34.4,30.496 18.38,0 34.39,-11.008 34.39,-30.496" /><path
         id="path5060"
         style="fill:#231f20;fill-opacity:1;fill-rule:nonzero;stroke:none"
         d="m 1416.6,196.531 c 0,-7.222 4.8,-12.801 13.04,-12.801 8.23,0 13.03,5.579 13.03,12.801 0,7.024 -4.8,12.934 -13.03,12.934 -8.24,0 -13.04,-5.91 -13.04,-12.934 z m 45.66,-23.375 c 0,-24.269 -12.03,-34.054 -33.07,-34.054 -13.14,0 -30.74,6.777 -32.52,21.796 l 22.72,0 c 0.57,-1.992 2.01,-3.449 3.79,-4.328 1.78,-0.886 3.89,-1.336 5.78,-1.336 10.92,0 13.03,7.121 13.03,16.379 l 0,2.664 c -5.24,-5.246 -10.57,-7.793 -18.15,-7.793 -16.7,0 -28.16,12.688 -28.16,29.161 0,16.691 11.82,30.937 29.28,30.937 6.7,0 12.81,-2.219 16.81,-7.891 l 0.22,0 0,6.004 20.27,0 0,-51.539" /><path
         id="path5062"
         style="fill:#231f20;fill-opacity:1;fill-rule:nonzero;stroke:none"
         d="m 1466.6,224.695 23.38,0 15.25,-29.273 14.92,29.273 23.03,0 -45.74,-85.593 -22.72,0 19.49,36.289 -27.61,49.304" /><path
         id="path5064"
         style="fill:#231f20;fill-opacity:1;fill-rule:nonzero;stroke:none"
         d="m 14.2461,63.3398 c 0,-6.2382 -0.2266,-13.3398 3.6719,-18.6992 3.6758,-5.1093 10.7968,-8.0195 16.9179,-8.0195 6.0118,0 12.5821,2.7852 16.4766,7.4727 4.4531,5.332 4.1289,12.6835 4.1289,19.246 l 0,50.0002 9.3399,0 0,-52.547 c 0,-9.1328 -0.6602,-16.3789 -7.3516,-23.2735 -5.7852,-6.2382 -14.125,-9.5703 -22.5938,-9.5703 -7.9023,0 -16.0312,2.9961 -21.6992,8.5664 C 5.78516,43.5352 4.88672,51.2109 4.88672,60.793 l 0,52.547 9.35938,0 0,-50.0002" /><path
         id="path5066"
         style="fill:#231f20;fill-opacity:1;fill-rule:nonzero;stroke:none"
         d="m 96.2852,34.2773 c 0,-3.4492 -2.7735,-6.3281 -6.2227,-6.3281 -3.4453,0 -6.2383,2.8789 -6.2383,6.3281 0,3.3594 2.793,6.1329 6.2383,6.1329 3.4492,0 6.2227,-2.7735 6.2227,-6.1329" /><path
         id="path5068"
         style="fill:#231f20;fill-opacity:1;fill-rule:nonzero;stroke:none"
         d="m 153.734,96.9648 c -3.343,5.7892 -7.347,9.1292 -14.472,9.1292 -7.449,0 -13.914,-5.34 -13.914,-13.0276 0,-7.2383 7.468,-10.5781 13.136,-13.1445 l 5.563,-2.4414 c 10.918,-4.7852 20.152,-10.2422 20.152,-23.5821 0,-14.6992 -11.797,-25.9492 -26.379,-25.9492 -13.48,0 -23.496,8.6719 -26.164,21.6992 l 9.133,2.5704 c 1.215,-8.586 7.785,-15.5977 16.809,-15.5977 9.011,0 17.246,6.9141 17.246,16.3789 0,9.7813 -7.676,13.1328 -15.457,16.6953 l -5.133,2.2188 c -9.789,4.4648 -18.262,9.4648 -18.262,21.4922 0,13.0317 11.02,21.3707 23.496,21.3707 9.36,0 17.258,-4.789 21.711,-13.019 l -7.465,-4.7932" /><path
         id="path5070"
         style="fill:#231f20;fill-opacity:1;fill-rule:nonzero;stroke:none"
         d="m 192.813,34.2773 c 0,-3.4492 -2.79,-6.3281 -6.235,-6.3281 -3.453,0 -6.242,2.8789 -6.242,6.3281 0,3.3594 2.789,6.1329 6.242,6.1329 3.445,0 6.235,-2.7735 6.235,-6.1329" /><path
         id="path5072"
         style="fill:#231f20;fill-opacity:1;fill-rule:nonzero;stroke:none"
         d="m 262.617,38.0742 c 10.242,0 18.805,1.4571 26.5,8.6836 6.895,6.4453 10.461,15.2461 10.461,24.6094 0,9.5781 -3.672,18.8203 -10.91,25.1484 -7.684,6.8044 -16.141,8.1254 -26.051,8.1254 l -6.793,0 0,-66.5668 6.793,0 z m -16.152,75.2658 15.82,0 c 12.57,0 22.813,-1.68 32.727,-10.137 9.578,-8.2538 13.914,-19.4803 13.914,-31.9413 0,-12.2578 -4.457,-23.0664 -13.692,-31.2812 -10.019,-8.9063 -20.035,-10.586 -33.171,-10.586 l -15.598,0 0,83.9455" /><path
         id="path5074"
         style="fill:#231f20;fill-opacity:1;fill-rule:nonzero;stroke:none"
         d="m 358.141,61.2305 c -1.231,7.5703 -7.575,13.6914 -15.371,13.6914 -7.676,0 -14.801,-6.1211 -15.922,-13.6914 l 31.293,0 z m -31.735,-7.5782 c 0.11,-9.6875 7.008,-17.4687 17.145,-17.4687 7.57,0 12.461,4.5586 15.922,10.8008 l 7.558,-4.336 C 362.02,33.293 353.563,27.9492 342.875,27.9492 c -15.578,0 -25.602,11.9063 -25.602,26.9336 0,15.4805 9.016,28.2813 25.395,28.2813 16.805,0 25.711,-13.9141 24.812,-29.5118 l -41.074,0" /><path
         id="path5076"
         style="fill:#231f20;fill-opacity:1;fill-rule:nonzero;stroke:none"
         d="m 387.738,56.1133 c 0,-10.2461 6.016,-19.9297 17.16,-19.9297 11.454,0 17.465,9.2383 17.465,19.8125 0,10.4687 -6.566,18.9258 -17.59,18.9258 -10.343,0 -17.035,-9.0156 -17.035,-18.8086 z m 0.45,18.1445 0.226,0 c 4.336,5.793 10.801,8.9063 18.039,8.9063 15.36,0 25.047,-13.2539 25.047,-27.7227 0,-14.9219 -9.465,-27.4922 -25.168,-27.4922 -7.117,0 -13.691,3.125 -17.918,8.7891 l -0.226,0 0,-36.7383 -8.907,0 0,81.7305 8.907,0 0,-7.4727" /><path
         id="path5078"
         style="fill:#231f20;fill-opacity:1;fill-rule:nonzero;stroke:none"
         d="m 448.637,56.1133 c 0,-10.2461 6.011,-19.9297 17.14,-19.9297 11.473,0 17.485,9.2383 17.485,19.8125 0,10.4687 -6.567,18.9258 -17.586,18.9258 -10.348,0 -17.039,-9.0156 -17.039,-18.8086 z m 43.082,-26.7188 -8.906,0 0,7.2266 -0.223,0 c -4.563,-5.793 -10.68,-8.6719 -18.027,-8.6719 -15.368,0 -25.055,13.0196 -25.055,27.4922 0,14.9219 9.461,27.7227 25.16,27.7227 7.125,0 13.586,-3.3399 17.922,-8.9063 l 0.223,0 0,7.4727 8.906,0 0,-52.336" /><path
         id="path5080"
         style="fill:#231f20;fill-opacity:1;fill-rule:nonzero;stroke:none"
         d="m 516.656,76.0273 0.223,0 c 3.121,4.1407 5.793,7.1368 11.578,7.1368 3.02,0 5.461,-1.0078 8.023,-2.461 l -4.23,-8.125 c -1.781,1.2305 -3.012,2.3438 -5.352,2.3438 -9.789,0 -10.242,-12.5664 -10.242,-19.375 l 0,-26.1524 -8.906,0 0,52.336 8.906,0 0,-5.7032" /><path
         id="path5082"
         style="fill:#231f20;fill-opacity:1;fill-rule:nonzero;stroke:none"
         d="m 557.07,29.3945 -8.906,0 0,44.0821 -5.461,0 0,8.2539 5.461,0 0,18.7965 8.906,0 0,-18.7965 9.356,0 0,-8.2539 -9.356,0 0,-44.0821" /><path
         id="path5084"
         style="fill:#231f20;fill-opacity:1;fill-rule:nonzero;stroke:none"
         d="m 583.344,76.0273 0.226,0 c 2.774,4.3555 7.227,7.1368 12.578,7.1368 6.118,0 11.684,-3.2422 14.473,-8.6914 3.117,5.8007 9.34,8.6914 15.695,8.6914 13.352,0 16.692,-10.918 16.692,-21.9336 l 0,-31.836 -8.906,0 0,30.3907 c 0,6.7968 -0.434,15.1367 -9.567,15.1367 -10.242,0 -11.351,-9.9024 -11.351,-17.8203 l 0,-27.7071 -8.907,0 0,29.7188 c 0,6.4609 -0.781,15.8086 -9.359,15.8086 -10.465,0 -11.574,-10.5742 -11.574,-18.4766 l 0,-27.0508 -8.91,0 0,52.336 8.91,0 0,-5.7032" /><path
         id="path5086"
         style="fill:#231f20;fill-opacity:1;fill-rule:nonzero;stroke:none"
         d="m 696.109,61.2305 c -1.214,7.5703 -7.558,13.6914 -15.355,13.6914 -7.68,0 -14.816,-6.1211 -15.926,-13.6914 l 31.281,0 z m -31.714,-7.5782 c 0.101,-9.6875 7,-17.4687 17.136,-17.4687 7.574,0 12.461,4.5586 15.914,10.8008 l 7.571,-4.336 c -5.004,-9.3554 -13.461,-14.6992 -24.157,-14.6992 -15.582,0 -25.593,11.9063 -25.593,26.9336 0,15.4805 9.007,28.2813 25.371,28.2813 16.808,0 25.715,-13.9141 24.832,-29.5118 l -41.074,0" /><path
         id="path5088"
         style="fill:#231f20;fill-opacity:1;fill-rule:nonzero;stroke:none"
         d="m 726.625,75.3711 0.211,0 c 3.672,5.0117 8.473,7.793 14.922,7.793 14.469,0 17.816,-10.4688 17.816,-22.7032 l 0,-31.0664 -8.91,0 0,29.5118 c 0,8.457 -0.66,16.0156 -11.019,16.0156 -12.258,0 -13.02,-11.3555 -13.02,-20.6914 l 0,-24.836 -8.906,0 0,52.336 8.906,0 0,-6.3594" /><path
         id="path5090"
         style="fill:#231f20;fill-opacity:1;fill-rule:nonzero;stroke:none"
         d="m 785.844,29.3945 -8.906,0 0,44.0821 -5.469,0 0,8.2539 5.469,0 0,18.7965 8.906,0 0,-18.7965 9.355,0 0,-8.2539 -9.355,0 0,-44.0821" /><path
         id="path5092"
         style="fill:#231f20;fill-opacity:1;fill-rule:nonzero;stroke:none"
         d="m 841.734,55.5469 c 0,-10.6836 7.567,-19.3633 18.594,-19.3633 11.016,0 18.574,8.6797 18.574,19.3633 0,10.5859 -7.558,19.375 -18.574,19.375 -11.027,0 -18.594,-8.7891 -18.594,-19.375 z m -8.906,-0.1055 c 0,15.3711 12.129,27.7227 27.5,27.7227 15.352,0 27.481,-12.3516 27.481,-27.7227 0,-15.3711 -12.227,-27.4922 -27.481,-27.4922 -15.254,0 -27.5,12.1211 -27.5,27.4922" /><path
         id="path5094"
         style="fill:#231f20;fill-opacity:1;fill-rule:nonzero;stroke:none"
         d="m 909.75,29.3945 -8.906,0 0,44.0821 -4.903,0 0,8.2539 4.903,0 0,20.8085 c 0,4.336 0,9.797 2.336,13.586 2.898,4.668 8.125,6.57 13.476,6.57 2.11,0 4.219,-0.449 6.336,-1.125 l 0,-9.011 c -2,0.656 -3.777,1.23 -6.015,1.23 -7.227,0 -7.227,-5.129 -7.227,-14.3632 l 0,-17.6953 13.242,0 0,-8.2539 -13.242,0 0,-44.0821" /><path
         id="path5096"
         style="fill:#231f20;fill-opacity:1;fill-rule:nonzero;stroke:none"
         d="m 1028.86,94.9492 c -6.68,6.9138 -15.92,11.1448 -25.6,11.1448 -18.694,0 -33.842,-16.2581 -33.842,-34.7268 0,-18.4961 15.246,-34.7461 34.072,-34.7461 9.45,0 18.69,4.4648 25.37,11.1445 l 0,-11.582 c -7.22,-5.2383 -16.13,-8.2344 -25.04,-8.2344 -23.707,0 -43.757,19.2578 -43.757,43.0664 0,24.0547 19.699,43.7614 43.757,43.7614 9.36,0 17.58,-2.668 25.04,-8.234 l 0,-11.5938" /><path
         id="path5098"
         style="fill:#231f20;fill-opacity:1;fill-rule:nonzero;stroke:none"
         d="m 1048.91,55.5469 c 0,-10.6836 7.57,-19.3633 18.59,-19.3633 11.01,0 18.58,8.6797 18.58,19.3633 0,10.5859 -7.57,19.375 -18.58,19.375 -11.02,0 -18.59,-8.7891 -18.59,-19.375 z M 1040,55.4414 c 0,15.3711 12.13,27.7227 27.5,27.7227 15.36,0 27.5,-12.3516 27.5,-27.7227 0,-15.3711 -12.24,-27.4922 -27.5,-27.4922 -15.26,0 -27.5,12.1211 -27.5,27.4922" /><path
         id="path5100"
         style="fill:#231f20;fill-opacity:1;fill-rule:nonzero;stroke:none"
         d="m 1116.15,76.0273 0.22,0 c 2.78,4.3555 7.23,7.1368 12.59,7.1368 6.11,0 11.68,-3.2422 14.46,-8.6914 3.13,5.8007 9.35,8.6914 15.7,8.6914 13.36,0 16.7,-10.918 16.7,-21.9336 l 0,-31.836 -8.91,0 0,30.3907 c 0,6.7968 -0.45,15.1367 -9.57,15.1367 -10.24,0 -11.37,-9.9024 -11.37,-17.8203 l 0,-27.7071 -8.9,0 0,29.7188 c 0,6.4609 -0.79,15.8086 -9.34,15.8086 -10.47,0 -11.58,-10.5742 -11.58,-18.4766 l 0,-27.0508 -8.91,0 0,52.336 8.91,0 0,-5.7032" /><path
         id="path5102"
         style="fill:#231f20;fill-opacity:1;fill-rule:nonzero;stroke:none"
         d="m 1201.64,76.0273 0.22,0 c 2.79,4.3555 7.25,7.1368 12.59,7.1368 6.11,0 11.69,-3.2422 14.47,-8.6914 3.12,5.8007 9.36,8.6914 15.69,8.6914 13.36,0 16.71,-10.918 16.71,-21.9336 l 0,-31.836 -8.9,0 0,30.3907 c 0,6.7968 -0.45,15.1367 -9.58,15.1367 -10.25,0 -11.36,-9.9024 -11.36,-17.8203 l 0,-27.7071 -8.91,0 0,29.7188 c 0,6.4609 -0.78,15.8086 -9.35,15.8086 -10.45,0 -11.58,-10.5742 -11.58,-18.4766 l 0,-27.0508 -8.91,0 0,52.336 8.91,0 0,-5.7032" /><path
         id="path5104"
         style="fill:#231f20;fill-opacity:1;fill-rule:nonzero;stroke:none"
         d="m 1314.42,61.2305 c -1.23,7.5703 -7.57,13.6914 -15.37,13.6914 -7.68,0 -14.8,-6.1211 -15.91,-13.6914 l 31.28,0 z m -31.73,-7.5782 c 0.11,-9.6875 7.02,-17.4687 17.14,-17.4687 7.58,0 12.48,4.5586 15.93,10.8008 l 7.57,-4.336 c -5.01,-9.3554 -13.48,-14.6992 -24.16,-14.6992 -15.59,0 -25.61,11.9063 -25.61,26.9336 0,15.4805 9.01,28.2813 25.39,28.2813 16.81,0 25.71,-13.9141 24.81,-29.5118 l -41.07,0" /><path
         id="path5106"
         style="fill:#231f20;fill-opacity:1;fill-rule:nonzero;stroke:none"
         d="m 1344.47,76.0273 0.23,0 c 3.13,4.1407 5.78,7.1368 11.58,7.1368 3.01,0 5.45,-1.0078 8.01,-2.461 l -4.22,-8.125 c -1.77,1.2305 -3,2.3438 -5.35,2.3438 -9.78,0 -10.25,-12.5664 -10.25,-19.375 l 0,-26.1524 -8.91,0 0,52.336 8.91,0 0,-5.7032" /><path
         id="path5108"
         style="fill:#231f20;fill-opacity:1;fill-rule:nonzero;stroke:none"
         d="m 1412.16,66.1328 -0.21,0 c -4.12,5.2344 -9.24,8.7891 -16.27,8.7891 -10.78,0 -18.46,-8.9141 -18.46,-19.375 0,-10.3516 7.11,-19.3633 18.01,-19.3633 7.48,0 12.71,3.3477 17.05,9.0117 l 0.22,0 0,-11.9023 c -5.12,-3.4492 -10.36,-5.3438 -16.59,-5.3438 -15.8,0 -27.83,11.7891 -27.83,27.5977 0,15.5976 12.58,27.6172 27.93,27.6172 5.68,0 11.49,-1.8828 16.15,-5.2344 l 0,-11.7969" /><path
         id="path5110"
         style="fill:#231f20;fill-opacity:1;fill-rule:nonzero;stroke:none"
         d="m 1462.5,61.2305 c -1.24,7.5703 -7.58,13.6914 -15.38,13.6914 -7.67,0 -14.8,-6.1211 -15.91,-13.6914 l 31.29,0 z m -31.74,-7.5782 c 0.11,-9.6875 7.01,-17.4687 17.15,-17.4687 7.57,0 12.46,4.5586 15.91,10.8008 l 7.56,-4.336 c -5,-9.3554 -13.46,-14.6992 -24.16,-14.6992 -15.56,0 -25.58,11.9063 -25.58,26.9336 0,15.4805 9,28.2813 25.39,28.2813 16.79,0 25.7,-13.9141 24.8,-29.5118 l -41.07,0" /><path
         id="path5112"
         style="fill:#231f20;fill-opacity:1;fill-rule:nonzero;stroke:none"
         d="m 54.9102,441.41 -49.01567,0 0,189.289 c 0,-0.211 0,35.711 35.86717,47.672 32.3438,10.375 53.9844,-10.527 54.0156,-10.449 L 257.383,493.16 c 8.113,-5.012 11.41,0.195 11.34,4.996 l 0,180.215 49.468,0 0,-187.93 c -0.207,-16.003 -13.449,-35.867 -32.211,-43.589 -19.238,-7.473 -40.351,-7.414 -65.367,13.628 L 69.4453,624.789 c -3.9765,4.274 -14.3672,4.746 -14.5351,-3.625 l 0,-179.754" /><path
         id="path5114"
         style="fill:#231f20;fill-opacity:1;fill-rule:nonzero;stroke:none"
         d="m 349.98,678.371 49.473,0 0,-169.785 c -0.152,-18.074 14.965,-18.074 29.945,-18.145 l 219.711,0 c 9.184,0.071 19.586,10.879 19.528,21.77 0.058,11.324 -10.539,22.754 -20.438,22.699 l -142.984,0 c -24.59,-0.894 -75.637,21.809 -75.817,69.918 0.18,58.742 48.407,72 70.387,73.543 l 404.449,0 0,-49.937 -101.25,0 0,-187.024 -49.023,0 0,187.024 -247.848,0 c -23.597,2.054 -40.605,-38.614 -1.812,-44.493 l 152.07,0 c 22.852,0.204 60.672,-19.671 60.82,-69 -0.148,-49.953 -29.453,-73.597 -60.82,-73.531 l -224.691,0 c -37.102,-0.066 -50.414,8.379 -63.555,20.879 -12.172,12.024 -14.215,18.77 -18.145,43.586 l 0,172.496" /></g></g></svg>